  0
SECTION
  2
HEADER
  9
$ACADVER
  1
AC1009
  9
$DWGCODEPAGE
  3
ansi_1252
  9
$INSBASE
 10
0.0
 20
0.0
 30
0.0
  9
$EXTMIN
 10
0.0
 20
0.0
 30
0.0
  9
$EXTMAX
 10
431.8
 20
279.4
 30
0.0
  9
$LIMMIN
 10
0.0
 20
0.0
  9
$LIMMAX
 10
431.8
 20
279.4
  9
$ORTHOMODE
 70
     0
  9
$REGENMODE
 70
     1
  9
$FILLMODE
 70
     1
  9
$QTEXTMODE
 70
     0
  9
$MIRRTEXT
 70
     1
  9
$DRAGMODE
 70
     2
  9
$LTSCALE
 40
1.0
  9
$OSMODE
 70
    37
  9
$ATTMODE
 70
     1
  9
$TEXTSIZE
 40
3.5
  9
$TRACEWID
 40
1.0
  9
$TEXTSTYLE
  7
STANDARD
  9
$CLAYER
  8
0
  9
$CELTYPE
  6
BYLAYER
  9
$CECOLOR
 62
   256
  9
$DIMSCALE
 40
1.0
  9
$DIMASZ
 40
6.0
  9
$DIMEXO
 40
1.0
  9
$DIMDLI
 40
3.75
  9
$DIMRND
 40
0.0
  9
$DIMDLE
 40
0.0
  9
$DIMEXE
 40
1.0
  9
$DIMTP
 40
0.0
  9
$DIMTM
 40
0.0
  9
$DIMTXT
 40
3.5
  9
$DIMCEN
 40
2.5
  9
$DIMTSZ
 40
0.0
  9
$DIMTOL
 70
     0
  9
$DIMLIM
 70
     0
  9
$DIMTIH
 70
     1
  9
$DIMTOH
 70
     1
  9
$DIMSE1
 70
     0
  9
$DIMSE2
 70
     0
  9
$DIMTAD
 70
     1
  9
$DIMZIN
 70
     0
  9
$DIMBLK
  1

  9
$DIMASO
 70
     1
  9
$DIMSHO
 70
     1
  9
$DIMPOST
  1

  9
$DIMAPOST
  1

  9
$DIMALT
 70
     0
  9
$DIMALTD
 70
     3
  9
$DIMALTF
 40
0.0393700787
  9
$DIMLFAC
 40
1.0
  9
$DIMTOFL
 70
     1
  9
$DIMTVP
 40
0.0
  9
$DIMTIX
 70
     0
  9
$DIMSOXD
 70
     0
  9
$DIMSAH
 70
     0
  9
$DIMBLK1
  1

  9
$DIMBLK2
  1

  9
$DIMSTYLE
  2
ISO-25
  9
$DIMCLRD
 70
     0
  9
$DIMCLRE
 70
     0
  9
$DIMCLRT
 70
     0
  9
$DIMTFAC
 40
1.0
  9
$DIMGAP
 40
1.524
  9
$LUNITS
 70
     2
  9
$LUPREC
 70
     2
  9
$SKETCHINC
 40
1.0
  9
$FILLETRAD
 40
10.0
  9
$AUNITS
 70
     0
  9
$AUPREC
 70
     2
  9
$MENU
  1
.
  9
$ELEVATION
 40
0.0
  9
$PELEVATION
 40
0.0
  9
$THICKNESS
 40
0.0
  9
$LIMCHECK
 70
     0
  9
$CHAMFERA
 40
10.0
  9
$CHAMFERB
 40
10.0
  9
$SKPOLY
 70
     0
  9
$TDCREATE
 40
2456042.92949456
  9
$TDUPDATE
 40
2456042.929521678
  9
$TDINDWG
 40
0.0000000116
  9
$TDUSRTIMER
 40
0.0000000116
  9
$USRTIMER
 70
     1
  9
$ANGBASE
 50
0.0
  9
$ANGDIR
 70
     0
  9
$PDMODE
 70
     0
  9
$PDSIZE
 40
-1.0
  9
$PLINEWID
 40
0.0
  9
$COORDS
 70
     1
  9
$SPLFRAME
 70
     0
  9
$SPLINETYPE
 70
     6
  9
$SPLINESEGS
 70
     8
  9
$ATTDIA
 70
     0
  9
$ATTREQ
 70
     1
  9
$HANDLING
 70
     1
  9
$HANDSEED
  5
230
  9
$SURFTAB1
 70
     6
  9
$SURFTAB2
 70
     6
  9
$SURFTYPE
 70
     6
  9
$SURFU
 70
     6
  9
$SURFV
 70
     6
  9
$UCSNAME
  2

  9
$UCSORG
 10
0.0
 20
0.0
 30
0.0
  9
$UCSXDIR
 10
1.0
 20
0.0
 30
0.0
  9
$UCSYDIR
 10
0.0
 20
1.0
 30
0.0
  9
$PUCSNAME
  2

  9
$PUCSORG
 10
0.0
 20
0.0
 30
0.0
  9
$PUCSXDIR
 10
1.0
 20
0.0
 30
0.0
  9
$PUCSYDIR
 10
0.0
 20
1.0
 30
0.0
  9
$USERI1
 70
     0
  9
$USERI2
 70
     0
  9
$USERI3
 70
     0
  9
$USERI4
 70
     0
  9
$USERI5
 70
     0
  9
$USERR1
 40
0.0
  9
$USERR2
 40
0.0
  9
$USERR3
 40
0.0
  9
$USERR4
 40
0.0
  9
$USERR5
 40
0.0
  9
$WORLDVIEW
 70
     1
  9
$SHADEDGE
 70
     3
  9
$SHADEDIF
 70
    70
  9
$TILEMODE
 70
     1
  9
$MAXACTVP
 70
    64
  9
$PLIMCHECK
 70
     0
  9
$PEXTMIN
 10
1.0000000000E+20
 20
1.0000000000E+20
 30
1.0000000000E+20
  9
$PEXTMAX
 10
-1.0000000000E+20
 20
-1.0000000000E+20
 30
-1.0000000000E+20
  9
$PLIMMIN
 10
0.0
 20
0.0
  9
$PLIMMAX
 10
420.0
 20
297.0
  9
$UNITMODE
 70
     0
  9
$VISRETAIN
 70
     1
  9
$PLINEGEN
 70
     0
  9
$PSLTSCALE
 70
     1
  0
ENDSEC
  0
SECTION
  2
TABLES
  0
TABLE
  2
VPORT
 70
     1
  0
VPORT
  2
*ACTIVE
 70
     0
 10
0.0
 20
0.0
 11
1.0
 21
1.0
 12
215.9
 22
139.7
 13
0.0
 23
0.0
 14
10.0
 24
10.0
 15
10.0
 25
10.0
 16
0.0
 26
0.0
 36
1.0
 17
0.0
 27
0.0
 37
0.0
 40
279.4
 41
1.5454545455
 42
50.0
 43
0.0
 44
0.0
 50
0.0
 51
0.0
 71
     0
 72
  2000
 73
     1
 74
     3
 75
     0
 76
     0
 77
     0
 78
     0
  0
ENDTAB
  0
TABLE
  2
LTYPE
 70
     6
  0
LTYPE
  2
CONTINUOUS
 70
     0
  3
Solid line
 72
    65
 73
     0
 40
0.0
  0
LTYPE
  2
HIDDEN
 70
     0
  3
Hidden __ __ __ __ __ __ __ __ __ __ __ __ __ __
 72
    65
 73
     2
 40
1.905
 49
1.27
 49
-0.635
  0
LTYPE
  2
PHANTOM
 70
     0
  3
Phantom ______  __  __  ______  __  __  ______
 72
    65
 73
     6
 40
12.7
 49
6.35
 49
-1.27
 49
1.27
 49
-1.27
 49
1.27
 49
-1.27
  0
LTYPE
  2
CENTER
 70
     0
  3
Center ____ _ ____ _ ____ _ ____ _ ____ _ ____
 72
    65
 73
     4
 40
10.16
 49
6.35
 49
-1.27
 49
1.27
 49
-1.27
  0
LTYPE
  2
CENTERX2
 70
     0
  3
Center (2x) ________  __  ________  __  _____
 72
    65
 73
     4
 40
20.32
 49
12.7
 49
-2.54
 49
2.54
 49
-2.54
  0
LTYPE
  2
DOT2
 70
     0
  3
Dot (.5x) ........................................
 72
    65
 73
     2
 40
0.635
 49
0.0
 49
-0.635
  0
ENDTAB
  0
TABLE
  2
LAYER
 70
     2
  0
LAYER
  2
0
 70
     0
 62
     7
  6
CONTINUOUS
  0
LAYER
  2
FORMAT
 70
     0
 62
     7
  6
CONTINUOUS
  0
ENDTAB
  0
TABLE
  2
STYLE
 70
     1
  0
STYLE
  2
STANDARD
 70
     0
 40
0.0
 41
1.0
 50
0.0
 71
     0
 42
3.5
  3
txt
  4

  0
ENDTAB
  0
TABLE
  2
VIEW
 70
     0
  0
ENDTAB
  0
TABLE
  2
UCS
 70
     0
  0
ENDTAB
  0
TABLE
  2
APPID
 70
     1
  0
APPID
  2
ACAD
 70
     0
  0
ENDTAB
  0
TABLE
  2
DIMSTYLE
 70
     4
  0
DIMSTYLE
  2
ISO-25
 70
     0
  3

  4

  5

  6

  7

 40
1.0
 41
2.5
 42
0.625
 43
3.75
 44
1.25
 45
0.0
 46
0.0
 47
0.0
 48
0.0
140
2.5
141
2.5
142
0.0
143
0.0393700787
144
1.0
145
0.0
146
1.0
147
0.625
 71
     0
 72
     0
 73
     0
 74
     0
 75
     0
 76
     0
 77
     1
 78
     8
170
     0
171
     3
172
     1
173
     0
174
     0
175
     0
176
     0
177
     0
178
     0
  0
DIMSTYLE
  2
SLDDIMSTYLE0
 70
     0
  3

  4

  5

  6
CLOSED
  7
CLOSED
 40
1.0
 41
6.0
 42
0.0625
 43
0.38
 44
0.0
 45
0.000000001
 46
0.0
 47
0.0
 48
0.0
140
3.5
141
0.09
142
0.0
143
25.4
144
1.0
145
0.0
146
1.0
147
0.875
 71
     0
 72
     0
 73
     1
 74
     1
 75
     0
 76
     0
 77
     0
 78
     4
170
     0
171
     2
172
     1
173
     1
174
     0
175
     0
176
     0
177
     0
178
     0
  0
DIMSTYLE
  2
SLDDIMSTYLE1
 70
     0
  3

  4

  5

  6
CLOSED
  7
CLOSED
 40
1.0
 41
6.0
 42
0.0625
 43
0.38
 44
0.0
 45
0.000000001
 46
0.0
 47
0.0
 48
0.0
140
3.5
141
0.09
142
0.0
143
25.4
144
1.0
145
0.0
146
1.0
147
0.875
 71
     0
 72
     0
 73
     1
 74
     1
 75
     0
 76
     0
 77
     0
 78
    12
170
     0
171
     2
172
     1
173
     1
174
     0
175
     0
176
     0
177
     0
178
     0
  0
DIMSTYLE
  2
SLDDIMSTYLE2
 70
     0
  3

  4

  5

  6
CLOSED
  7
CLOSED
 40
1.0
 41
6.0
 42
0.0625
 43
0.38
 44
0.0
 45
0.000000001
 46
0.0
 47
0.0
 48
0.0
140
3.5
141
0.09
142
0.0
143
25.4
144
1.0
145
0.0
146
1.0
147
0.875
 71
     0
 72
     0
 73
     0
 74
     0
 75
     0
 76
     0
 77
     1
 78
    12
170
     0
171
     2
172
     1
173
     1
174
     0
175
     0
176
     0
177
     0
178
     0
  0
ENDTAB
  0
ENDSEC
  0
SECTION
  2
BLOCKS
  0
BLOCK
  8
0
  2
$MODEL_SPACE
 70
     0
 10
0.0
 20
0.0
 30
0.0
  3
$MODEL_SPACE
  1

  0
ENDBLK
  5
21
  8
0
  0
BLOCK
 67
     1
  8
0
  2
$PAPER_SPACE
 70
     0
 10
0.0
 20
0.0
 30
0.0
  3
$PAPER_SPACE
  1

  0
ENDBLK
  5
1D
 67
     1
  8
0
  0
BLOCK
  8
0
  2
SW_NOTE_0
 70
     0
 10
0.0
 20
0.0
 30
0.0
  3
SW_NOTE_0
  1

  0
TEXT
  5
B1
  8
0
  6
CONTINUOUS
 62
     0
 10
0.0
 20
0.8211626229
 30
0.0
 40
1.5875
  1
REFER TO NOTES FOR 
 41
0.6263157895
 11
0.0
 21
0.0
 31
0.0
 73
     1
  0
TEXT
  5
B2
  8
0
  6
CONTINUOUS
 62
     0
 10
0.0
 20
-1.2955040182
 30
0.0
 40
1.5875
  1
TOLERANCE INFORMATION.
 41
0.7
 11
0.0
 21
-2.1166666411
 31
0.0
 73
     1
  0
ENDBLK
  5
B0
  8
0
  0
BLOCK
  8
0
  2
SW_NOTE_1
 70
     0
 10
0.0
 20
0.0
 30
0.0
  3
SW_NOTE_1
  1

  0
TEXT
  5
C3
  8
0
  6
CONTINUOUS
 62
     0
 10
0.0
 20
0.8211626229
 30
0.0
 40
1.5875
  1
REVISIONS
 41
0.7
 11
0.0
 21
0.0
 31
0.0
 73
     1
  0
TEXT
  5
C4
  8
0
  6
CONTINUOUS
 62
     0
 10
-14.3903926946
 20
-2.0010595652
 30
0.0
 40
1.5875
  1
SEE REVISION HISTORY BLOCK ON PAGE 1
 41
0.6416666667
 11
-14.3903926946
 21
-2.8222221881
 31
0.0
 73
     1
  0
ENDBLK
  5
C2
  8
0
  0
BLOCK
  8
0
  2
SW_NOTE_2
 70
     0
 10
0.0
 20
0.0
 30
0.0
  3
SW_NOTE_2
  1

  0
TEXT
  5
F8
  8
0
  6
CONTINUOUS
 62
     0
 10
0.0
 20
0.8211626229
 30
0.0
 40
1.5875
  1
COPYRIGHT ©
 41
0.7
 11
0.0
 21
0.0
 31
0.0
 73
     1
  0
TEXT
  5
F9
  8
0
  6
CONTINUOUS
 62
     0
 10
16.151342541
 20
0.8211626229
 30
0.0
 40
1.5875
  1
TAM LABS LLC
 41
0.6416666667
 11
16.151342541
 21
0.0
 31
0.0
 73
     1
  0
ENDBLK
  5
F7
  8
0
  0
BLOCK
  8
0
  2
SW_NOTE_3
 70
     0
 10
0.0
 20
0.0
 30
0.0
  3
SW_NOTE_3
  1

  0
TEXT
  5
FE
  8
0
  6
CONTINUOUS
 62
     0
 10
0.0
 20
0.6843021857
 30
0.0
 40
1.3229166667
  1
The CAD and 3D data files, drawings, designs, specifications and engineering information in this 
 41
0.6494845361
 11
0.0
 21
0.0
 31
0.0
 73
     1
  0
TEXT
  5
FF
  8
0
  6
CONTINUOUS
 62
     0
 10
0.0
 20
-1.0795866818
 30
0.0
 40
1.3229166667
  1
drawing is the exclusive proprietary property of Tam Labs, LLC and are not to be disseminated 
 41
0.6404255319
 11
0.0
 21
-1.7638888676
 31
0.0
 73
     1
  0
TEXT
  5
100
  8
0
  6
CONTINUOUS
 62
     0
 10
0.0
 20
-2.8434755494
 30
0.0
 40
1.3229166667
  1
without prior written permission from Tam Labs, LLC.  It is disclosed with the understanding that 
 41
0.6428571429
 11
0.0
 21
-3.5277777351
 31
0.0
 73
     1
  0
TEXT
  5
101
  8
0
  6
CONTINUOUS
 62
     0
 10
0.0
 20
-4.607364417
 30
0.0
 40
1.3229166667
  1
acceptance or review by the recipient constitutes an undertaking by the recipient: 1) to hold this 
 41
0.6434343434
 11
0.0
 21
-5.2916666027
 31
0.0
 73
     1
  0
TEXT
  5
102
  8
0
  6
CONTINUOUS
 62
     0
 10
0.0
 20
-6.3712532845
 30
0.0
 40
1.3229166667
  1
information in strict confidence and 2) not to disclose, copy or use the information in whole or part 
 41
0.6382352941
 11
0.0
 21
-7.0555554703
 31
0.0
 73
     1
  0
TEXT
  5
103
  8
0
  6
CONTINUOUS
 62
     0
 10
0.0
 20
-8.1351421521
 30
0.0
 40
1.3229166667
  1
for any purpose other than which disclosed.  
 41
0.6377777778
 11
0.0
 21
-8.8194443379
 31
0.0
 73
     1
  0
ENDBLK
  5
FD
  8
0
  0
BLOCK
  8
0
  2
SW_NOTE_4
 70
     0
 10
0.0
 20
0.0
 30
0.0
  3
SW_NOTE_4
  1

  0
TEXT
  5
11F
  8
0
  6
CONTINUOUS
 62
     0
 10
0.0
 20
1.0948834972
 30
0.0
 40
2.1166666667
  1
1:1 SCALE 
 41
0.63
 11
0.0
 21
0.0
 31
0.0
 73
     1
  0
TEXT
  5
120
  8
0
  6
CONTINUOUS
 62
     0
 10
-8.388272021
 20
-1.7273386909
 30
0.0
 40
2.1166666667
  1
FOR DXF GENERATION
 41
0.6611111111
 11
-8.388272021
 21
-2.8222221881
 31
0.0
 73
     1
  0
ENDBLK
  5
11E
  8
0
  0
BLOCK
  8
0
  2
_CLOSED
 70
     0
 10
0.0
 20
0.0
 30
0.0
  3
_CLOSED
  1

  0
LINE
  5
13E
  8
0
  6
BYBLOCK
 62
     0
 10
-1.0
 20
0.166667
 30
0.0
 11
0.0
 21
0.0
 31
0.0
  0
LINE
  5
13F
  8
0
  6
BYBLOCK
 62
     0
 10
0.0
 20
0.0
 30
0.0
 11
-1.0
 21
-0.166667
 31
0.0
  0
LINE
  5
140
  8
0
  6
BYBLOCK
 62
     0
 10
-1.0
 20
0.166667
 30
0.0
 11
-1.0
 21
-0.166667
 31
0.0
  0
LINE
  5
141
  8
0
  6
BYBLOCK
 62
     0
 10
0.0
 20
0.0
 30
0.0
 11
-1.0
 21
0.0
 31
0.0
  0
ENDBLK
  5
13D
  8
0
  0
BLOCK
  8
0
  2
_D
 70
     0
 10
0.0
 20
0.0
 30
0.0
  3
_D
  1

  0
INSERT
  5
145
  8
0
  6
CONTINUOUS
 62
     7
  2
_CLOSED
 10
77.6114214701
 20
166.2320792466
 30
-1.4
 41
6.0
 42
6.0
 50
180.0
  0
INSERT
  5
146
  8
0
  6
CONTINUOUS
 62
     7
  2
_CLOSED
 10
70.1114214701
 20
166.2320792466
 30
-1.4
 41
6.0
 42
6.0
 50
0.0
  0
LINE
  5
147
  8
0
  6
CONTINUOUS
 62
     7
 10
77.6114214701
 20
211.4102042422
 30
0.0
 11
77.6114214701
 21
165.2320792466
 31
0.0
  0
LINE
  5
148
  8
0
  6
CONTINUOUS
 62
     7
 10
70.1114214701
 20
183.0102042422
 30
0.0
 11
70.1114214701
 21
165.2320792466
 31
0.0
  0
LINE
  5
149
  8
0
  6
CONTINUOUS
 62
     7
 10
77.6114214701
 20
166.2320792466
 30
0.0
 11
89.6114214701
 21
166.2320792466
 31
0.0
  0
LINE
  5
14A
  8
0
  6
CONTINUOUS
 62
     7
 10
77.6114214701
 20
166.2320792466
 30
0.0
 11
70.1114214701
 21
166.2320792466
 31
0.0
  0
LINE
  5
14B
  8
0
  6
CONTINUOUS
 62
     7
 10
70.1114214701
 20
166.2320792466
 30
0.0
 11
32.7569972906
 21
166.2320792466
 31
0.0
  0
TEXT
  5
14C
  8
0
  6
CONTINUOUS
 62
     7
 10
32.7569972906
 20
168.0425163508
 30
-1.4
 40
3.5
  1
7.500
 41
0.7
 11
32.7569972906
 21
166.232079072
 31
-1.4
 73
     1
  0
TEXT
  5
14D
  8
0
  6
CONTINUOUS
 62
     7
 10
47.2382474873
 20
168.0425163508
 30
-1.4
 40
3.5
  1
 3PL
 41
0.7
 11
47.2382474873
 21
166.232079072
 31
-1.4
 73
     1
  0
ENDBLK
  5
144
  8
0
  0
BLOCK
  8
0
  2
_D_1
 70
     0
 10
0.0
 20
0.0
 30
0.0
  3
_D_1
  1

  0
INSERT
  5
152
  8
0
  6
CONTINUOUS
 62
     7
  2
_CLOSED
 10
137.6114214701
 20
166.2320792466
 30
-1.4
 41
6.0
 42
6.0
 50
0.0
  0
INSERT
  5
153
  8
0
  6
CONTINUOUS
 62
     7
  2
_CLOSED
 10
145.1114214701
 20
166.2320792466
 30
-1.4
 41
6.0
 42
6.0
 50
180.0
  0
LINE
  5
154
  8
0
  6
CONTINUOUS
 62
     7
 10
137.6114214701
 20
211.4102042422
 30
0.0
 11
137.6114214701
 21
165.2320792466
 31
0.0
  0
LINE
  5
155
  8
0
  6
CONTINUOUS
 62
     7
 10
145.1114214701
 20
183.0102042422
 30
0.0
 11
145.1114214701
 21
165.2320792466
 31
0.0
  0
LINE
  5
156
  8
0
  6
CONTINUOUS
 62
     7
 10
137.6114214701
 20
166.2320792466
 30
0.0
 11
125.6114214701
 21
166.2320792466
 31
0.0
  0
LINE
  5
157
  8
0
  6
CONTINUOUS
 62
     7
 10
137.6114214701
 20
166.2320792466
 30
0.0
 11
145.1114214701
 21
166.2320792466
 31
0.0
  0
LINE
  5
158
  8
0
  6
CONTINUOUS
 62
     7
 10
145.1114214701
 20
166.2320792466
 30
0.0
 11
178.7489219574
 21
166.2320792466
 31
0.0
  0
TEXT
  5
159
  8
0
  6
CONTINUOUS
 62
     7
 10
155.4739209829
 20
168.0425163508
 30
-1.4
 40
3.5
  1
7.500
 41
0.7
 11
155.4739209829
 21
166.232079072
 31
-1.4
 73
     1
  0
TEXT
  5
15A
  8
0
  6
CONTINUOUS
 62
     7
 10
169.9551711796
 20
168.0425163508
 30
-1.4
 40
3.5
  1
 3PL
 41
0.7
 11
169.9551711796
 21
166.232079072
 31
-1.4
 73
     1
  0
ENDBLK
  5
151
  8
0
  0
BLOCK
  8
0
  2
_D_2
 70
     0
 10
0.0
 20
0.0
 30
0.0
  3
_D_2
  1

  0
INSERT
  5
160
  8
0
  6
CONTINUOUS
 62
     7
  2
_CLOSED
 10
155.1114214701
 20
186.5102042422
 30
-1.4
 41
6.0
 42
6.0
 50
90.0
  0
INSERT
  5
161
  8
0
  6
CONTINUOUS
 62
     7
  2
_CLOSED
 10
155.1114214701
 20
201.5102042422
 30
-1.4
 41
6.0
 42
6.0
 50
270.0
  0
LINE
  5
162
  8
0
  6
CONTINUOUS
 62
     7
 10
82.7114214701
 20
186.5102042422
 30
0.0
 11
156.1114214701
 21
186.5102042422
 31
0.0
  0
LINE
  5
163
  8
0
  6
CONTINUOUS
 62
     7
 10
82.7114214701
 20
201.5102042422
 30
0.0
 11
156.1114214701
 21
201.5102042422
 31
0.0
  0
LINE
  5
164
  8
0
  6
CONTINUOUS
 62
     7
 10
155.1114214701
 20
186.5102042422
 30
0.0
 11
155.1114214701
 21
174.5102042422
 31
0.0
  0
LINE
  5
165
  8
0
  6
CONTINUOUS
 62
     7
 10
155.1114214701
 20
201.5102042422
 30
0.0
 11
155.1114214701
 21
213.5102042422
 31
0.0
  0
LINE
  5
166
  8
0
  6
CONTINUOUS
 62
     7
 10
155.1114214701
 20
186.5102042422
 30
0.0
 11
155.1114214701
 21
192.0312325557
 31
0.0
  0
LINE
  5
167
  8
0
  6
CONTINUOUS
 62
     7
 10
155.1114214701
 20
201.5102042422
 30
0.0
 11
155.1114214701
 21
197.5874825468
 31
0.0
  0
TEXT
  5
168
  8
0
  6
CONTINUOUS
 62
     7
 10
146.7065593345
 20
193.8416696599
 30
-1.4
 40
3.5
  1
15
 41
0.7
 11
146.7065593345
 21
192.0312323811
 31
-1.4
 73
     1
  0
TEXT
  5
169
  8
0
  6
CONTINUOUS
 62
     7
 10
154.7225318966
 20
193.8416696599
 30
-1.4
 40
3.5
  1
 2PL
 41
0.7
 11
154.7225318966
 21
192.0312323811
 31
-1.4
 73
     1
  0
ENDBLK
  5
15F
  8
0
  0
BLOCK
  8
0
  2
_D_3
 70
     0
 10
0.0
 20
0.0
 30
0.0
  3
_D_3
  1

  0
INSERT
  5
16E
  8
0
  6
CONTINUOUS
 62
     7
  2
_CLOSED
 10
167.1114214701
 20
216.5102042422
 30
-1.4
 41
6.0
 42
6.0
 50
270.0
  0
INSERT
  5
16F
  8
0
  6
CONTINUOUS
 62
     7
  2
_CLOSED
 10
167.1114214701
 20
201.5102042422
 30
-1.4
 41
6.0
 42
6.0
 50
90.0
  0
LINE
  5
170
  8
0
  6
CONTINUOUS
 62
     7
 10
82.7114214701
 20
216.5102042422
 30
0.0
 11
168.1114214701
 21
216.5102042422
 31
0.0
  0
LINE
  5
171
  8
0
  6
CONTINUOUS
 62
     7
 10
82.7114214701
 20
201.5102042422
 30
0.0
 11
168.1114214701
 21
201.5102042422
 31
0.0
  0
LINE
  5
172
  8
0
  6
CONTINUOUS
 62
     7
 10
167.1114214701
 20
216.5102042422
 30
0.0
 11
167.1114214701
 21
228.5102042422
 31
0.0
  0
LINE
  5
173
  8
0
  6
CONTINUOUS
 62
     7
 10
167.1114214701
 20
201.5102042422
 30
0.0
 11
167.1114214701
 21
189.5102042422
 31
0.0
  0
LINE
  5
174
  8
0
  6
CONTINUOUS
 62
     7
 10
167.1114214701
 20
216.5102042422
 30
0.0
 11
167.1114214701
 21
211.5686315981
 31
0.0
  0
LINE
  5
175
  8
0
  6
CONTINUOUS
 62
     7
 10
167.1114214701
 20
201.5102042422
 30
0.0
 11
167.1114214701
 21
206.012381607
 31
0.0
  0
TEXT
  5
176
  8
0
  6
CONTINUOUS
 62
     7
 10
158.7065593345
 20
207.8228187112
 30
-1.4
 40
3.5
  1
15
 41
0.7
 11
158.7065593345
 21
206.0123814324
 31
-1.4
 73
     1
  0
TEXT
  5
177
  8
0
  6
CONTINUOUS
 62
     7
 10
166.7225318966
 20
207.8228187112
 30
-1.4
 40
3.5
  1
 2PL
 41
0.7
 11
166.7225318966
 21
206.0123814324
 31
-1.4
 73
     1
  0
ENDBLK
  5
16D
  8
0
  0
BLOCK
  8
0
  2
SW_CENTERMARKSYMBOL_0
 70
     0
 10
0.0
 20
0.0
 30
0.0
  3
SW_CENTERMARKSYMBOL_0
  1

  0
LINE
  5
17B
  8
0
  6
CONTINUOUS
 62
     0
 10
0.0
 20
0.0
 30
0.0
 11
0.0
 21
2.5
 31
0.0
  0
LINE
  5
17C
  8
0
  6
CONTINUOUS
 62
     0
 10
0.0
 20
0.0
 30
0.0
 11
-2.5
 21
0.0
 31
0.0
  0
LINE
  5
17D
  8
0
  6
CONTINUOUS
 62
     0
 10
0.0
 20
0.0
 30
0.0
 11
0.0
 21
-2.5
 31
0.0
  0
LINE
  5
17E
  8
0
  6
CONTINUOUS
 62
     0
 10
0.0
 20
0.0
 30
0.0
 11
2.5
 21
0.0
 31
0.0
  0
LINE
  5
17F
  8
0
  6
CONTINUOUS
 62
     0
 10
0.0
 20
2.5
 30
0.0
 11
0.0
 21
4.1
 31
0.0
  0
LINE
  5
180
  8
0
  6
CONTINUOUS
 62
     0
 10
-2.5
 20
0.0
 30
0.0
 11
-4.1
 21
0.0
 31
0.0
  0
LINE
  5
181
  8
0
  6
CONTINUOUS
 62
     0
 10
0.0
 20
-2.5
 30
0.0
 11
0.0
 21
-4.1
 31
0.0
  0
LINE
  5
182
  8
0
  6
CONTINUOUS
 62
     0
 10
2.5
 20
0.0
 30
0.0
 11
4.1
 21
0.0
 31
0.0
  0
ENDBLK
  5
17A
  8
0
  0
BLOCK
  8
0
  2
SW_CENTERMARKSYMBOL_1
 70
     0
 10
0.0
 20
0.0
 30
0.0
  3
SW_CENTERMARKSYMBOL_1
  1

  0
LINE
  5
187
  8
0
  6
CONTINUOUS
 62
     0
 10
0.0
 20
0.0
 30
0.0
 11
0.0
 21
2.5
 31
0.0
  0
LINE
  5
188
  8
0
  6
CONTINUOUS
 62
     0
 10
0.0
 20
0.0
 30
0.0
 11
-2.5
 21
0.0
 31
0.0
  0
LINE
  5
189
  8
0
  6
CONTINUOUS
 62
     0
 10
0.0
 20
0.0
 30
0.0
 11
0.0
 21
-2.5
 31
0.0
  0
LINE
  5
18A
  8
0
  6
CONTINUOUS
 62
     0
 10
0.0
 20
0.0
 30
0.0
 11
2.5
 21
0.0
 31
0.0
  0
LINE
  5
18B
  8
0
  6
CONTINUOUS
 62
     0
 10
0.0
 20
2.5
 30
0.0
 11
0.0
 21
4.1
 31
0.0
  0
LINE
  5
18C
  8
0
  6
CONTINUOUS
 62
     0
 10
-2.5
 20
0.0
 30
0.0
 11
-4.1
 21
0.0
 31
0.0
  0
LINE
  5
18D
  8
0
  6
CONTINUOUS
 62
     0
 10
0.0
 20
-2.5
 30
0.0
 11
0.0
 21
-4.1
 31
0.0
  0
LINE
  5
18E
  8
0
  6
CONTINUOUS
 62
     0
 10
2.5
 20
0.0
 30
0.0
 11
4.1
 21
0.0
 31
0.0
  0
ENDBLK
  5
186
  8
0
  0
BLOCK
  8
0
  2
SW_CENTERMARKSYMBOL_2
 70
     0
 10
0.0
 20
0.0
 30
0.0
  3
SW_CENTERMARKSYMBOL_2
  1

  0
LINE
  5
193
  8
0
  6
CONTINUOUS
 62
     0
 10
0.0
 20
0.0
 30
0.0
 11
0.0
 21
2.5
 31
0.0
  0
LINE
  5
194
  8
0
  6
CONTINUOUS
 62
     0
 10
0.0
 20
0.0
 30
0.0
 11
-2.5
 21
0.0
 31
0.0
  0
LINE
  5
195
  8
0
  6
CONTINUOUS
 62
     0
 10
0.0
 20
0.0
 30
0.0
 11
0.0
 21
-2.5
 31
0.0
  0
LINE
  5
196
  8
0
  6
CONTINUOUS
 62
     0
 10
0.0
 20
0.0
 30
0.0
 11
2.5
 21
0.0
 31
0.0
  0
LINE
  5
197
  8
0
  6
CONTINUOUS
 62
     0
 10
0.0
 20
2.5
 30
0.0
 11
0.0
 21
4.1
 31
0.0
  0
LINE
  5
198
  8
0
  6
CONTINUOUS
 62
     0
 10
-2.5
 20
0.0
 30
0.0
 11
-4.1
 21
0.0
 31
0.0
  0
LINE
  5
199
  8
0
  6
CONTINUOUS
 62
     0
 10
0.0
 20
-2.5
 30
0.0
 11
0.0
 21
-4.1
 31
0.0
  0
LINE
  5
19A
  8
0
  6
CONTINUOUS
 62
     0
 10
2.5
 20
0.0
 30
0.0
 11
4.1
 21
0.0
 31
0.0
  0
ENDBLK
  5
192
  8
0
  0
BLOCK
  8
0
  2
SW_CENTERMARKSYMBOL_3
 70
     0
 10
0.0
 20
0.0
 30
0.0
  3
SW_CENTERMARKSYMBOL_3
  1

  0
LINE
  5
19F
  8
0
  6
CONTINUOUS
 62
     0
 10
0.0
 20
0.0
 30
0.0
 11
0.0
 21
2.5
 31
0.0
  0
LINE
  5
1A0
  8
0
  6
CONTINUOUS
 62
     0
 10
0.0
 20
0.0
 30
0.0
 11
-2.5
 21
0.0
 31
0.0
  0
LINE
  5
1A1
  8
0
  6
CONTINUOUS
 62
     0
 10
0.0
 20
0.0
 30
0.0
 11
0.0
 21
-2.5
 31
0.0
  0
LINE
  5
1A2
  8
0
  6
CONTINUOUS
 62
     0
 10
0.0
 20
0.0
 30
0.0
 11
2.5
 21
0.0
 31
0.0
  0
LINE
  5
1A3
  8
0
  6
CONTINUOUS
 62
     0
 10
0.0
 20
2.5
 30
0.0
 11
0.0
 21
4.1
 31
0.0
  0
LINE
  5
1A4
  8
0
  6
CONTINUOUS
 62
     0
 10
-2.5
 20
0.0
 30
0.0
 11
-4.1
 21
0.0
 31
0.0
  0
LINE
  5
1A5
  8
0
  6
CONTINUOUS
 62
     0
 10
0.0
 20
-2.5
 30
0.0
 11
0.0
 21
-4.1
 31
0.0
  0
LINE
  5
1A6
  8
0
  6
CONTINUOUS
 62
     0
 10
2.5
 20
0.0
 30
0.0
 11
4.1
 21
0.0
 31
0.0
  0
ENDBLK
  5
19E
  8
0
  0
BLOCK
  8
0
  2
SW_CENTERMARKSYMBOL_4
 70
     0
 10
0.0
 20
0.0
 30
0.0
  3
SW_CENTERMARKSYMBOL_4
  1

  0
LINE
  5
1AB
  8
0
  6
CONTINUOUS
 62
     0
 10
0.0
 20
0.0
 30
0.0
 11
0.0
 21
2.5
 31
0.0
  0
LINE
  5
1AC
  8
0
  6
CONTINUOUS
 62
     0
 10
0.0
 20
0.0
 30
0.0
 11
-2.5
 21
0.0
 31
0.0
  0
LINE
  5
1AD
  8
0
  6
CONTINUOUS
 62
     0
 10
0.0
 20
0.0
 30
0.0
 11
0.0
 21
-2.5
 31
0.0
  0
LINE
  5
1AE
  8
0
  6
CONTINUOUS
 62
     0
 10
0.0
 20
0.0
 30
0.0
 11
2.5
 21
0.0
 31
0.0
  0
LINE
  5
1AF
  8
0
  6
CONTINUOUS
 62
     0
 10
0.0
 20
2.5
 30
0.0
 11
0.0
 21
4.1
 31
0.0
  0
LINE
  5
1B0
  8
0
  6
CONTINUOUS
 62
     0
 10
-2.5
 20
0.0
 30
0.0
 11
-4.1
 21
0.0
 31
0.0
  0
LINE
  5
1B1
  8
0
  6
CONTINUOUS
 62
     0
 10
0.0
 20
-2.5
 30
0.0
 11
0.0
 21
-4.1
 31
0.0
  0
LINE
  5
1B2
  8
0
  6
CONTINUOUS
 62
     0
 10
2.5
 20
0.0
 30
0.0
 11
4.1
 21
0.0
 31
0.0
  0
ENDBLK
  5
1AA
  8
0
  0
BLOCK
  8
0
  2
SW_CENTERMARKSYMBOL_5
 70
     0
 10
0.0
 20
0.0
 30
0.0
  3
SW_CENTERMARKSYMBOL_5
  1

  0
LINE
  5
1B7
  8
0
  6
CONTINUOUS
 62
     0
 10
0.0
 20
0.0
 30
0.0
 11
0.0
 21
2.5
 31
0.0
  0
LINE
  5
1B8
  8
0
  6
CONTINUOUS
 62
     0
 10
0.0
 20
0.0
 30
0.0
 11
-2.5
 21
0.0
 31
0.0
  0
LINE
  5
1B9
  8
0
  6
CONTINUOUS
 62
     0
 10
0.0
 20
0.0
 30
0.0
 11
0.0
 21
-2.5
 31
0.0
  0
LINE
  5
1BA
  8
0
  6
CONTINUOUS
 62
     0
 10
0.0
 20
0.0
 30
0.0
 11
2.5
 21
0.0
 31
0.0
  0
LINE
  5
1BB
  8
0
  6
CONTINUOUS
 62
     0
 10
0.0
 20
2.5
 30
0.0
 11
0.0
 21
4.1
 31
0.0
  0
LINE
  5
1BC
  8
0
  6
CONTINUOUS
 62
     0
 10
-2.5
 20
0.0
 30
0.0
 11
-4.1
 21
0.0
 31
0.0
  0
LINE
  5
1BD
  8
0
  6
CONTINUOUS
 62
     0
 10
0.0
 20
-2.5
 30
0.0
 11
0.0
 21
-4.1
 31
0.0
  0
LINE
  5
1BE
  8
0
  6
CONTINUOUS
 62
     0
 10
2.5
 20
0.0
 30
0.0
 11
4.1
 21
0.0
 31
0.0
  0
ENDBLK
  5
1B6
  8
0
  0
BLOCK
  8
0
  2
_D_4
 70
     0
 10
0.0
 20
0.0
 30
0.0
  3
_D_4
  1

  0
INSERT
  5
1DC
  8
0
  6
CONTINUOUS
 62
     7
  2
_CLOSED
 10
76.1131706582
 20
46.0257061695
 30
-1.4
 41
6.0
 42
6.0
 50
180.0
  0
INSERT
  5
1DD
  8
0
  6
CONTINUOUS
 62
     7
  2
_CLOSED
 10
71.1131706582
 20
46.0257061695
 30
-1.4
 41
6.0
 42
6.0
 50
0.0
  0
LINE
  5
1DE
  8
0
  6
CONTINUOUS
 62
     7
 10
76.1131706582
 20
78.4257061695
 30
0.0
 11
76.1131706582
 21
45.0257061695
 31
0.0
  0
LINE
  5
1DF
  8
0
  6
CONTINUOUS
 62
     7
 10
71.1131706582
 20
60.0257061695
 30
0.0
 11
71.1131706582
 21
45.0257061695
 31
0.0
  0
LINE
  5
1E0
  8
0
  6
CONTINUOUS
 62
     7
 10
76.1131706582
 20
46.0257061695
 30
0.0
 11
88.1131706582
 21
46.0257061695
 31
0.0
  0
LINE
  5
1E1
  8
0
  6
CONTINUOUS
 62
     7
 10
76.1131706582
 20
46.0257061695
 30
0.0
 11
71.1131706582
 21
46.0257061695
 31
0.0
  0
LINE
  5
1E2
  8
0
  6
CONTINUOUS
 62
     7
 10
71.1131706582
 20
46.0257061695
 30
0.0
 11
36.0013647014
 21
46.0257061695
 31
0.0
  0
TEXT
  5
1E3
  8
0
  6
CONTINUOUS
 62
     7
 10
36.0013647014
 20
47.8361432737
 30
-1.4
 40
3.5
  1
5
 50
0.0
 41
0.7
 11
36.0013647014
 21
46.0257059949
 31
-1.4
 73
     1
  0
TEXT
  5
1E4
  8
0
  6
CONTINUOUS
 62
     7
 10
41.4312258372
 20
47.8361432737
 30
-1.4
 40
3.5
  1
 2PL
 50
0.0
 41
0.7
 11
41.4312258372
 21
46.0257059949
 31
-1.4
 73
     1
  0
ENDBLK
  5
1DB
  8
0
  0
BLOCK
  8
0
  2
_D_5
 70
     0
 10
0.0
 20
0.0
 30
0.0
  3
_D_5
  1

  0
INSERT
  5
1E9
  8
0
  6
CONTINUOUS
 62
     7
  2
_CLOSED
 10
146.1131706582
 20
46.0257061695
 30
-1.4
 41
6.0
 42
6.0
 50
180.0
  0
INSERT
  5
1EA
  8
0
  6
CONTINUOUS
 62
     7
  2
_CLOSED
 10
141.1131706582
 20
46.0257061695
 30
-1.4
 41
6.0
 42
6.0
 50
0.0
  0
LINE
  5
1EB
  8
0
  6
CONTINUOUS
 62
     7
 10
146.1131706582
 20
60.0257061695
 30
0.0
 11
146.1131706582
 21
45.0257061695
 31
0.0
  0
LINE
  5
1EC
  8
0
  6
CONTINUOUS
 62
     7
 10
141.1131706582
 20
78.4257061695
 30
0.0
 11
141.1131706582
 21
45.0257061695
 31
0.0
  0
LINE
  5
1ED
  8
0
  6
CONTINUOUS
 62
     7
 10
146.1131706582
 20
46.0257061695
 30
0.0
 11
171.145328928
 21
46.0257061695
 31
0.0
  0
LINE
  5
1EE
  8
0
  6
CONTINUOUS
 62
     7
 10
146.1131706582
 20
46.0257061695
 30
0.0
 11
141.1131706582
 21
46.0257061695
 31
0.0
  0
LINE
  5
1EF
  8
0
  6
CONTINUOUS
 62
     7
 10
141.1131706582
 20
46.0257061695
 30
0.0
 11
129.1131706582
 21
46.0257061695
 31
0.0
  0
TEXT
  5
1F0
  8
0
  6
CONTINUOUS
 62
     7
 10
156.9217170143
 20
47.8361432737
 30
-1.4
 40
3.5
  1
5
 50
0.0
 41
0.7
 11
156.9217170143
 21
46.0257059949
 31
-1.4
 73
     1
  0
TEXT
  5
1F1
  8
0
  6
CONTINUOUS
 62
     7
 10
162.3515781501
 20
47.8361432737
 30
-1.4
 40
3.5
  1
 2PL
 50
0.0
 41
0.7
 11
162.3515781501
 21
46.0257059949
 31
-1.4
 73
     1
  0
ENDBLK
  5
1E8
  8
0
  0
BLOCK
  8
0
  2
_D_6
 70
     0
 10
0.0
 20
0.0
 30
0.0
  3
_D_6
  1

  0
INSERT
  5
1F6
  8
0
  6
CONTINUOUS
 62
     7
  2
_CLOSED
 10
156.1131706582
 20
73.5257061695
 30
-1.4
 41
6.0
 42
6.0
 50
90.0
  0
INSERT
  5
1F7
  8
0
  6
CONTINUOUS
 62
     7
  2
_CLOSED
 10
156.1131706582
 20
83.5257061695
 30
-1.4
 41
6.0
 42
6.0
 50
270.0
  0
LINE
  5
1F8
  8
0
  6
CONTINUOUS
 62
     7
 10
81.2131706582
 20
73.5257061695
 30
0.0
 11
157.1131706582
 21
73.5257061695
 31
0.0
  0
LINE
  5
1F9
  8
0
  6
CONTINUOUS
 62
     7
 10
81.2131706582
 20
83.5257061695
 30
0.0
 11
157.1131706582
 21
83.5257061695
 31
0.0
  0
LINE
  5
1FA
  8
0
  6
CONTINUOUS
 62
     7
 10
172.9228949295
 20
96.33974919
 30
0.0
 11
156.1131706582
 21
96.33974919
 31
0.0
  0
LINE
  5
1FB
  8
0
  6
CONTINUOUS
 62
     7
 10
156.1131706582
 20
96.33974919
 30
0.0
 11
156.1131706582
 21
83.5257061695
 31
0.0
  0
LINE
  5
1FC
  8
0
  6
CONTINUOUS
 62
     7
 10
156.1131706582
 20
73.5257061695
 30
0.0
 11
156.1131706582
 21
61.5257061695
 31
0.0
  0
LINE
  5
1FD
  8
0
  6
CONTINUOUS
 62
     7
 10
156.1131706582
 20
73.5257061695
 30
0.0
 11
156.1131706582
 21
83.5257061695
 31
0.0
  0
TEXT
  5
1FE
  8
0
  6
CONTINUOUS
 62
     7
 10
156.1131706582
 20
98.1501862942
 30
-1.4
 40
3.5
  1
10
 41
0.7
 11
156.1131706582
 21
96.3397490154
 31
-1.4
 73
     1
  0
TEXT
  5
1FF
  8
0
  6
CONTINUOUS
 62
     7
 10
164.1291432203
 20
98.1501862942
 30
-1.4
 40
3.5
  1
 2PL
 41
0.7
 11
164.1291432203
 21
96.3397490154
 31
-1.4
 73
     1
  0
ENDBLK
  5
1F5
  8
0
  0
BLOCK
  8
0
  2
SW_CENTERMARKSYMBOL_6
 70
     0
 10
0.0
 20
0.0
 30
0.0
  3
SW_CENTERMARKSYMBOL_6
  1

  0
LINE
  5
203
  8
0
  6
CONTINUOUS
 62
     0
 10
0.0
 20
0.0
 30
0.0
 11
0.0
 21
2.5
 31
0.0
  0
LINE
  5
204
  8
0
  6
CONTINUOUS
 62
     0
 10
0.0
 20
0.0
 30
0.0
 11
-2.5
 21
0.0
 31
0.0
  0
LINE
  5
205
  8
0
  6
CONTINUOUS
 62
     0
 10
0.0
 20
0.0
 30
0.0
 11
0.0
 21
-2.5
 31
0.0
  0
LINE
  5
206
  8
0
  6
CONTINUOUS
 62
     0
 10
0.0
 20
0.0
 30
0.0
 11
2.5
 21
0.0
 31
0.0
  0
LINE
  5
207
  8
0
  6
CONTINUOUS
 62
     0
 10
0.0
 20
2.5
 30
0.0
 11
0.0
 21
4.1
 31
0.0
  0
LINE
  5
208
  8
0
  6
CONTINUOUS
 62
     0
 10
-2.5
 20
0.0
 30
0.0
 11
-4.1
 21
0.0
 31
0.0
  0
LINE
  5
209
  8
0
  6
CONTINUOUS
 62
     0
 10
0.0
 20
-2.5
 30
0.0
 11
0.0
 21
-4.1
 31
0.0
  0
LINE
  5
20A
  8
0
  6
CONTINUOUS
 62
     0
 10
2.5
 20
0.0
 30
0.0
 11
4.1
 21
0.0
 31
0.0
  0
ENDBLK
  5
202
  8
0
  0
BLOCK
  8
0
  2
SW_CENTERMARKSYMBOL_7
 70
     0
 10
0.0
 20
0.0
 30
0.0
  3
SW_CENTERMARKSYMBOL_7
  1

  0
LINE
  5
20F
  8
0
  6
CONTINUOUS
 62
     0
 10
0.0
 20
0.0
 30
0.0
 11
0.0
 21
2.5
 31
0.0
  0
LINE
  5
210
  8
0
  6
CONTINUOUS
 62
     0
 10
0.0
 20
0.0
 30
0.0
 11
-2.5
 21
0.0
 31
0.0
  0
LINE
  5
211
  8
0
  6
CONTINUOUS
 62
     0
 10
0.0
 20
0.0
 30
0.0
 11
0.0
 21
-2.5
 31
0.0
  0
LINE
  5
212
  8
0
  6
CONTINUOUS
 62
     0
 10
0.0
 20
0.0
 30
0.0
 11
2.5
 21
0.0
 31
0.0
  0
LINE
  5
213
  8
0
  6
CONTINUOUS
 62
     0
 10
0.0
 20
2.5
 30
0.0
 11
0.0
 21
4.1
 31
0.0
  0
LINE
  5
214
  8
0
  6
CONTINUOUS
 62
     0
 10
-2.5
 20
0.0
 30
0.0
 11
-4.1
 21
0.0
 31
0.0
  0
LINE
  5
215
  8
0
  6
CONTINUOUS
 62
     0
 10
0.0
 20
-2.5
 30
0.0
 11
0.0
 21
-4.1
 31
0.0
  0
LINE
  5
216
  8
0
  6
CONTINUOUS
 62
     0
 10
2.5
 20
0.0
 30
0.0
 11
4.1
 21
0.0
 31
0.0
  0
ENDBLK
  5
20E
  8
0
  0
BLOCK
  8
0
  2
SW_CENTERMARKSYMBOL_8
 70
     0
 10
0.0
 20
0.0
 30
0.0
  3
SW_CENTERMARKSYMBOL_8
  1

  0
LINE
  5
21B
  8
0
  6
CONTINUOUS
 62
     0
 10
0.0
 20
0.0
 30
0.0
 11
0.0
 21
2.5
 31
0.0
  0
LINE
  5
21C
  8
0
  6
CONTINUOUS
 62
     0
 10
0.0
 20
0.0
 30
0.0
 11
-2.5
 21
0.0
 31
0.0
  0
LINE
  5
21D
  8
0
  6
CONTINUOUS
 62
     0
 10
0.0
 20
0.0
 30
0.0
 11
0.0
 21
-2.5
 31
0.0
  0
LINE
  5
21E
  8
0
  6
CONTINUOUS
 62
     0
 10
0.0
 20
0.0
 30
0.0
 11
2.5
 21
0.0
 31
0.0
  0
LINE
  5
21F
  8
0
  6
CONTINUOUS
 62
     0
 10
0.0
 20
2.5
 30
0.0
 11
0.0
 21
4.1
 31
0.0
  0
LINE
  5
220
  8
0
  6
CONTINUOUS
 62
     0
 10
-2.5
 20
0.0
 30
0.0
 11
-4.1
 21
0.0
 31
0.0
  0
LINE
  5
221
  8
0
  6
CONTINUOUS
 62
     0
 10
0.0
 20
-2.5
 30
0.0
 11
0.0
 21
-4.1
 31
0.0
  0
LINE
  5
222
  8
0
  6
CONTINUOUS
 62
     0
 10
2.5
 20
0.0
 30
0.0
 11
4.1
 21
0.0
 31
0.0
  0
ENDBLK
  5
21A
  8
0
  0
BLOCK
  8
0
  2
SW_CENTERMARKSYMBOL_9
 70
     0
 10
0.0
 20
0.0
 30
0.0
  3
SW_CENTERMARKSYMBOL_9
  1

  0
LINE
  5
227
  8
0
  6
CONTINUOUS
 62
     0
 10
0.0
 20
0.0
 30
0.0
 11
0.0
 21
2.5
 31
0.0
  0
LINE
  5
228
  8
0
  6
CONTINUOUS
 62
     0
 10
0.0
 20
0.0
 30
0.0
 11
-2.5
 21
0.0
 31
0.0
  0
LINE
  5
229
  8
0
  6
CONTINUOUS
 62
     0
 10
0.0
 20
0.0
 30
0.0
 11
0.0
 21
-2.5
 31
0.0
  0
LINE
  5
22A
  8
0
  6
CONTINUOUS
 62
     0
 10
0.0
 20
0.0
 30
0.0
 11
2.5
 21
0.0
 31
0.0
  0
LINE
  5
22B
  8
0
  6
CONTINUOUS
 62
     0
 10
0.0
 20
2.5
 30
0.0
 11
0.0
 21
4.1
 31
0.0
  0
LINE
  5
22C
  8
0
  6
CONTINUOUS
 62
     0
 10
-2.5
 20
0.0
 30
0.0
 11
-4.1
 21
0.0
 31
0.0
  0
LINE
  5
22D
  8
0
  6
CONTINUOUS
 62
     0
 10
0.0
 20
-2.5
 30
0.0
 11
0.0
 21
-4.1
 31
0.0
  0
LINE
  5
22E
  8
0
  6
CONTINUOUS
 62
     0
 10
2.5
 20
0.0
 30
0.0
 11
4.1
 21
0.0
 31
0.0
  0
ENDBLK
  5
226
  8
0
  0
ENDSEC
  0
SECTION
  2
ENTITIES
  0
LINE
  5
46
  8
0
  6
CONTINUOUS
 62
     7
 10
12.7
 20
266.7
 30
0.0
 11
419.1
 21
266.7
 31
0.0
  0
LINE
  5
47
  8
0
  6
CONTINUOUS
 62
     7
 10
12.7
 20
266.7
 30
0.0
 11
12.7
 21
12.7
 31
0.0
  0
LINE
  5
48
  8
0
  6
CONTINUOUS
 62
     7
 10
419.1
 20
12.7
 30
0.0
 11
200.2008454433
 21
12.7
 31
0.0
  0
LINE
  5
49
  8
0
  6
CONTINUOUS
 62
     7
 10
419.1
 20
12.7
 30
0.0
 11
419.1
 21
266.7
 31
0.0
  0
LINE
  5
4A
  8
0
  6
CONTINUOUS
 62
     7
 10
324.7939548863
 20
34.925
 30
0.0
 11
324.7939548863
 21
12.7
 31
0.0
  0
LINE
  5
4B
  8
0
  6
CONTINUOUS
 62
     7
 10
419.1
 20
12.7
 30
0.0
 11
244.7
 21
12.7
 31
0.0
  0
LINE
  5
4C
  8
0
  6
CONTINUOUS
 62
     7
 10
419.1
 20
12.7
 30
0.0
 11
419.1
 21
9.525
 31
0.0
  0
LINE
  5
4D
  8
0
  6
CONTINUOUS
 62
     7
 10
419.1
 20
9.525
 30
0.0
 11
215.9
 21
9.525
 31
0.0
  0
LINE
  5
4E
  8
0
  6
CONTINUOUS
 62
     7
 10
419.1
 20
31.75
 30
0.0
 11
296.7115942223
 21
31.75
 31
0.0
  0
LINE
  5
4F
  8
0
  6
CONTINUOUS
 62
     7
 10
303.6965942223
 20
22.225
 30
0.0
 11
303.6965942223
 21
12.7
 31
0.0
  0
LINE
  5
50
  8
0
  6
CONTINUOUS
 62
     7
 10
419.1
 20
12.7
 30
0.0
 11
368.3
 21
12.7
 31
0.0
  0
LINE
  5
51
  8
0
  6
CONTINUOUS
 62
     7
 10
419.1
 20
12.7
 30
0.0
 11
419.1
 21
38.1
 31
0.0
  0
LINE
  5
52
  8
0
  6
CONTINUOUS
 62
     7
 10
343.5062509278
 20
22.225
 30
0.0
 11
343.5062509278
 21
12.7
 31
0.0
  0
LINE
  5
53
  8
0
  6
CONTINUOUS
 62
     7
 10
339.725
 20
12.7
 30
0.0
 11
415.9567907574
 21
12.7
 31
0.0
  0
LINE
  5
54
  8
0
  6
CONTINUOUS
 62
     7
 10
380.365
 20
22.225
 30
0.0
 11
380.365
 21
12.7
 31
0.0
  0
LINE
  5
55
  8
0
  6
CONTINUOUS
 62
     7
 10
412.115
 20
22.225
 30
0.0
 11
412.115
 21
12.7
 31
0.0
  0
LINE
  5
56
  8
0
  6
CONTINUOUS
 62
     7
 10
368.3
 20
12.7
 30
0.0
 11
330.2
 21
12.7
 31
0.0
  0
LINE
  5
57
  8
0
  6
CONTINUOUS
 62
     7
 10
380.365
 20
15.875
 30
0.0
 11
324.7939548863
 21
15.875
 31
0.0
  0
LINE
  5
58
  8
0
  6
CONTINUOUS
 62
     7
 10
296.7115942223
 20
34.925
 30
0.0
 11
296.7115942223
 21
12.7
 31
0.0
  0
LINE
  5
59
  8
0
  6
CONTINUOUS
 62
     7
 10
215.9
 20
34.925
 30
0.0
 11
215.9
 21
12.7
 31
0.0
  0
LINE
  5
5A
  8
0
  6
CONTINUOUS
 62
     7
 10
296.7115942223
 20
31.75
 30
0.0
 11
215.9
 21
31.75
 31
0.0
  0
LINE
  5
5B
  8
0
  6
CONTINUOUS
 62
     7
 10
296.7115942223
 20
19.05
 30
0.0
 11
303.6965942223
 21
19.05
 31
0.0
  0
LINE
  5
5C
  8
0
  6
CONTINUOUS
 62
     7
 10
10.16
 20
241.3
 30
0.0
 11
12.7
 21
241.3
 31
0.0
  0
LINE
  5
5D
  8
0
  6
CONTINUOUS
 62
     7
 10
419.1
 20
22.225
 30
0.0
 11
296.7115942223
 21
22.225
 31
0.0
  0
LINE
  5
5E
  8
0
  6
CONTINUOUS
 62
     7
 10
317.5303375599
 20
12.7
 30
0.0
 11
339.7553375599
 21
12.7
 31
0.0
  0
LINE
  5
5F
  8
0
  6
CONTINUOUS
 62
     7
 10
215.9
 20
12.7
 30
0.0
 11
215.9
 21
9.525
 31
0.0
  0
LINE
  5
60
  8
0
  6
CONTINUOUS
 62
     7
 10
215.9
 20
34.925
 30
0.0
 11
193.675
 21
34.925
 31
0.0
  0
LINE
  5
61
  8
0
  6
CONTINUOUS
 62
     7
 10
254.0
 20
12.7
 30
0.0
 11
254.0
 21
9.525
 31
0.0
  0
LINE
  5
62
  8
0
  6
CONTINUOUS
 62
     7
 10
419.1
 20
266.7
 30
0.0
 11
227.1617197736
 21
266.7
 31
0.0
  0
LINE
  5
63
  8
0
  6
CONTINUOUS
 62
     7
 10
419.1
 20
34.925
 30
0.0
 11
215.9
 21
34.925
 31
0.0
  0
LINE
  5
64
  8
0
  6
CONTINUOUS
 62
     7
 10
330.2
 20
12.7
 30
0.0
 11
244.7
 21
12.7
 31
0.0
  0
LINE
  5
65
  8
0
  6
CONTINUOUS
 62
     7
 10
419.1
 20
266.7
 30
0.0
 11
419.1
 21
263.525
 31
0.0
  0
LINE
  5
66
  8
0
  6
CONTINUOUS
 62
     7
 10
419.1
 20
263.525
 30
0.0
 11
368.3
 21
263.525
 31
0.0
  0
LINE
  5
67
  8
0
  6
CONTINUOUS
 62
     7
 10
227.1617197736
 20
266.7
 30
0.0
 11
227.1617197736
 21
263.525
 31
0.0
  0
LINE
  5
68
  8
0
  6
CONTINUOUS
 62
     7
 10
368.3
 20
263.525
 30
0.0
 11
419.1
 21
263.525
 31
0.0
  0
LINE
  5
69
  8
0
  6
CONTINUOUS
 62
     7
 10
244.7
 20
12.7
 30
0.0
 11
330.2
 21
12.7
 31
0.0
  0
LINE
  5
6A
  8
0
  6
CONTINUOUS
 62
     7
 10
274.32
 20
12.7
 30
0.0
 11
317.529353287
 21
12.7
 31
0.0
  0
LINE
  5
6B
  8
0
  6
CONTINUOUS
 62
     7
 10
419.1
 20
266.7
 30
0.0
 11
368.3
 21
266.7
 31
0.0
  0
LINE
  5
6C
  8
0
  6
CONTINUOUS
 62
     7
 10
330.2
 20
12.7
 30
0.0
 11
244.7
 21
12.7
 31
0.0
  0
LINE
  5
6D
  8
0
  6
CONTINUOUS
 62
     7
 10
200.2008454433
 20
12.7
 30
0.0
 11
12.7
 21
12.7
 31
0.0
  0
LINE
  5
6E
  8
0
  6
CONTINUOUS
 62
     7
 10
419.1
 20
263.525
 30
0.0
 11
419.1
 21
260.35
 31
0.0
  0
LINE
  5
6F
  8
0
  6
CONTINUOUS
 62
     7
 10
419.1
 20
266.7
 30
0.0
 11
419.1
 21
260.35
 31
0.0
  0
LINE
  5
70
  8
0
  6
CONTINUOUS
 62
     7
 10
419.1
 20
260.35
 30
0.0
 11
368.3
 21
260.35
 31
0.0
  0
LINE
  5
71
  8
0
  6
CONTINUOUS
 62
     7
 10
215.9
 20
34.925
 30
0.0
 11
215.9
 21
12.7
 31
0.0
  0
LINE
  5
72
  8
0
  6
CONTINUOUS
 62
     7
 10
215.9
 20
12.7
 30
0.0
 11
193.675
 21
12.7
 31
0.0
  0
LINE
  5
73
  8
0
  6
CONTINUOUS
 62
     7
 10
193.675
 20
34.925
 30
0.0
 11
193.675
 21
12.7
 31
0.0
  0
LINE
  5
74
  8
0
  6
CONTINUOUS
 62
     7
 10
215.9
 20
12.7
 30
0.0
 11
215.9
 21
10.16
 31
0.0
  0
LINE
  5
75
  8
0
  6
CONTINUOUS
 62
     7
 10
266.7
 20
269.24
 30
0.0
 11
266.7
 21
266.7
 31
0.0
  0
LINE
  5
76
  8
0
  6
CONTINUOUS
 62
     7
 10
251.05
 20
12.7
 30
0.0
 11
244.7
 21
12.7
 31
0.0
  0
LINE
  5
77
  8
0
  6
CONTINUOUS
 62
     7
 10
419.1
 20
257.175
 30
0.0
 11
419.1
 21
254.0
 31
0.0
  0
LINE
  5
78
  8
0
  6
CONTINUOUS
 62
     7
 10
292.1
 20
269.24
 30
0.0
 11
292.1
 21
266.7
 31
0.0
  0
LINE
  5
79
  8
0
  6
CONTINUOUS
 62
     7
 10
317.5
 20
269.24
 30
0.0
 11
317.5
 21
266.7
 31
0.0
  0
LINE
  5
7A
  8
0
  6
CONTINUOUS
 62
     7
 10
324.7939548863
 20
19.05
 30
0.0
 11
419.1
 21
19.05
 31
0.0
  0
LINE
  5
7B
  8
0
  6
CONTINUOUS
 62
     7
 10
342.9
 20
269.24
 30
0.0
 11
342.9
 21
266.7
 31
0.0
  0
LINE
  5
7C
  8
0
  6
CONTINUOUS
 62
     7
 10
368.3
 20
269.24
 30
0.0
 11
368.3
 21
266.7
 31
0.0
  0
LINE
  5
7D
  8
0
  6
CONTINUOUS
 62
     7
 10
10.16
 20
215.9
 30
0.0
 11
12.7
 21
215.9
 31
0.0
  0
LINE
  5
7E
  8
0
  6
CONTINUOUS
 62
     7
 10
10.16
 20
190.5
 30
0.0
 11
12.7
 21
190.5
 31
0.0
  0
LINE
  5
7F
  8
0
  6
CONTINUOUS
 62
     7
 10
10.16
 20
165.1
 30
0.0
 11
12.7
 21
165.1
 31
0.0
  0
LINE
  5
80
  8
0
  6
CONTINUOUS
 62
     7
 10
10.16
 20
139.7
 30
0.0
 11
12.7
 21
139.7
 31
0.0
  0
LINE
  5
81
  8
0
  6
CONTINUOUS
 62
     7
 10
10.16
 20
114.3
 30
0.0
 11
12.7
 21
114.3
 31
0.0
  0
LINE
  5
82
  8
0
  6
CONTINUOUS
 62
     7
 10
368.3
 20
266.7
 30
0.0
 11
368.3
 21
260.35
 31
0.0
  0
LINE
  5
83
  8
0
  6
CONTINUOUS
 62
     7
 10
190.5
 20
12.7
 30
0.0
 11
190.5
 21
10.16
 31
0.0
  0
LINE
  5
84
  8
0
  6
CONTINUOUS
 62
     7
 10
12.7
 20
266.7
 30
0.0
 11
12.7
 21
269.24
 31
0.0
  0
LINE
  5
85
  8
0
  6
CONTINUOUS
 62
     7
 10
38.1
 20
12.7
 30
0.0
 11
38.1
 21
10.16
 31
0.0
  0
LINE
  5
86
  8
0
  6
CONTINUOUS
 62
     7
 10
88.9
 20
12.7
 30
0.0
 11
88.9
 21
10.16
 31
0.0
  0
LINE
  5
87
  8
0
  6
CONTINUOUS
 62
     7
 10
139.7
 20
12.7
 30
0.0
 11
139.7
 21
10.16
 31
0.0
  0
LINE
  5
88
  8
0
  6
CONTINUOUS
 62
     7
 10
165.1
 20
12.7
 30
0.0
 11
165.1
 21
10.16
 31
0.0
  0
LINE
  5
89
  8
0
  6
CONTINUOUS
 62
     7
 10
63.5
 20
12.7
 30
0.0
 11
63.5
 21
10.16
 31
0.0
  0
LINE
  5
8A
  8
0
  6
CONTINUOUS
 62
     7
 10
114.3
 20
12.7
 30
0.0
 11
114.3
 21
10.16
 31
0.0
  0
LINE
  5
8B
  8
0
  6
CONTINUOUS
 62
     7
 10
10.16
 20
88.9
 30
0.0
 11
12.7
 21
88.9
 31
0.0
  0
LINE
  5
8C
  8
0
  6
CONTINUOUS
 62
     7
 10
38.1
 20
269.24
 30
0.0
 11
38.1
 21
266.7
 31
0.0
  0
LINE
  5
8D
  8
0
  6
CONTINUOUS
 62
     7
 10
10.16
 20
38.1
 30
0.0
 11
12.7
 21
38.1
 31
0.0
  0
LINE
  5
8E
  8
0
  6
CONTINUOUS
 62
     7
 10
88.9
 20
269.24
 30
0.0
 11
88.9
 21
266.7
 31
0.0
  0
LINE
  5
8F
  8
0
  6
CONTINUOUS
 62
     7
 10
10.16
 20
12.7
 30
0.0
 11
27.0838350908
 21
12.7
 31
0.0
  0
LINE
  5
90
  8
0
  6
CONTINUOUS
 62
     7
 10
10.16
 20
63.5
 30
0.0
 11
12.7
 21
63.5
 31
0.0
  0
LINE
  5
91
  8
0
  6
CONTINUOUS
 62
     7
 10
114.3
 20
269.24
 30
0.0
 11
114.3
 21
266.7
 31
0.0
  0
LINE
  5
92
  8
0
  6
CONTINUOUS
 62
     7
 10
63.5
 20
269.24
 30
0.0
 11
63.5
 21
266.7
 31
0.0
  0
LINE
  5
93
  8
0
  6
CONTINUOUS
 62
     7
 10
165.1
 20
269.24
 30
0.0
 11
165.1
 21
266.7
 31
0.0
  0
LINE
  5
94
  8
0
  6
CONTINUOUS
 62
     7
 10
139.7
 20
269.24
 30
0.0
 11
139.7
 21
266.7
 31
0.0
  0
LINE
  5
95
  8
0
  6
CONTINUOUS
 62
     7
 10
393.7
 20
269.24
 30
0.0
 11
393.7
 21
266.7
 31
0.0
  0
LINE
  5
96
  8
0
  6
CONTINUOUS
 62
     7
 10
419.1
 20
266.7
 30
0.0
 11
419.1
 21
269.24
 31
0.0
  0
LINE
  5
97
  8
0
  6
CONTINUOUS
 62
     7
 10
190.5
 20
269.24
 30
0.0
 11
190.5
 21
266.7
 31
0.0
  0
LINE
  5
98
  8
0
  6
CONTINUOUS
 62
     7
 10
215.9
 20
269.24
 30
0.0
 11
215.9
 21
266.7
 31
0.0
  0
LINE
  5
99
  8
0
  6
CONTINUOUS
 62
     7
 10
241.3
 20
269.24
 30
0.0
 11
241.3
 21
266.7
 31
0.0
  0
LINE
  5
9A
  8
0
  6
CONTINUOUS
 62
     7
 10
12.7
 20
266.7
 30
0.0
 11
10.16
 21
266.7
 31
0.0
  0
LINE
  5
9B
  8
0
  6
CONTINUOUS
 62
     7
 10
419.1
 20
266.7
 30
0.0
 11
421.64
 21
266.7
 31
0.0
  0
LINE
  5
9C
  8
0
  6
CONTINUOUS
 62
     7
 10
419.1
 20
241.3
 30
0.0
 11
421.64
 21
241.3
 31
0.0
  0
LINE
  5
9D
  8
0
  6
CONTINUOUS
 62
     7
 10
419.1
 20
215.9
 30
0.0
 11
421.64
 21
215.9
 31
0.0
  0
LINE
  5
9E
  8
0
  6
CONTINUOUS
 62
     7
 10
419.1
 20
190.5
 30
0.0
 11
421.64
 21
190.5
 31
0.0
  0
LINE
  5
9F
  8
0
  6
CONTINUOUS
 62
     7
 10
419.1
 20
165.1
 30
0.0
 11
421.64
 21
165.1
 31
0.0
  0
LINE
  5
A0
  8
0
  6
CONTINUOUS
 62
     7
 10
419.1
 20
139.7
 30
0.0
 11
421.64
 21
139.7
 31
0.0
  0
LINE
  5
A1
  8
0
  6
CONTINUOUS
 62
     7
 10
419.1
 20
114.3
 30
0.0
 11
421.64
 21
114.3
 31
0.0
  0
LINE
  5
A2
  8
0
  6
CONTINUOUS
 62
     7
 10
419.1
 20
88.9
 30
0.0
 11
421.64
 21
88.9
 31
0.0
  0
LINE
  5
A3
  8
0
  6
CONTINUOUS
 62
     7
 10
419.1
 20
63.5
 30
0.0
 11
421.64
 21
63.5
 31
0.0
  0
LINE
  5
A4
  8
0
  6
CONTINUOUS
 62
     7
 10
419.1
 20
38.1
 30
0.0
 11
421.64
 21
38.1
 31
0.0
  0
LINE
  5
A5
  8
0
  6
CONTINUOUS
 62
     7
 10
12.7
 20
12.7
 30
0.0
 11
12.7
 21
10.16
 31
0.0
  0
LINE
  5
A6
  8
0
  6
CONTINUOUS
 62
     7
 10
215.9
 20
266.7
 30
0.0
 11
215.9
 21
273.05
 31
0.0
  0
LINE
  5
A7
  8
0
  6
CONTINUOUS
 62
     7
 10
12.7
 20
139.7
 30
0.0
 11
6.35
 21
139.7
 31
0.0
  0
LINE
  5
A8
  8
0
  6
CONTINUOUS
 62
     7
 10
419.1
 20
139.7
 30
0.0
 11
425.45
 21
139.7
 31
0.0
  0
LINE
  5
A9
  8
0
  6
CONTINUOUS
 62
     7
 10
215.9
 20
12.7
 30
0.0
 11
215.9
 21
6.35
 31
0.0
  0
TEXT
  5
AA
  8
0
  6
CONTINUOUS
 62
     7
 10
81.003856816
 20
159.7956142227
 30
0.0
 40
2.1166666667
  1
BOLT PATTERN FOR OPENBEAM 1515
 41
0.6533333333
 11
81.003856816
 21
158.7007307255
 31
0.0
 73
     1
  0
TEXT
  5
AB
  8
0
  6
CONTINUOUS
 62
     7
 10
86.927820039
 20
40.5412185448
 30
0.0
 40
2.1166666667
  1
BOLT PATTERN FOR MICRORAX
 41
0.658
 11
86.927820039
 21
39.4463350476
 31
0.0
 73
     1
  0
TEXT
  5
AC
  8
0
  6
CONTINUOUS
 62
     7
 10
404.2639077288
 20
10.7869413242
 30
0.0
 40
1.5875
  1
SHEET 2 OF 2
 41
0.6125
 11
404.2639077288
 21
9.9657787013
 31
0.0
 73
     1
  0
TEXT
  5
AD
  8
0
  6
CONTINUOUS
 62
     7
 10
297.449897652
 20
20.1821066522
 30
0.0
 40
1.5875
  1
SIZE:
 41
0.7
 11
297.449897652
 21
19.3609440293
 31
0.0
 73
     1
  0
INSERT
  5
B3
  8
0
  6
CONTINUOUS
 62
     7
  2
SW_NOTE_0
 10
297.505371152
 20
29.3546551259
 30
0.0
  0
TEXT
  5
B4
  8
0
  6
CONTINUOUS
 62
     7
 10
325.8188479247
 20
33.0533662784
 30
0.0
 40
1.5875
  1
TITLE:
 41
0.7
 11
325.8188479247
 21
32.2322036555
 31
0.0
 73
     1
  0
TEXT
  5
B5
  8
0
  6
CONTINUOUS
 62
     7
 10
267.5094220682
 20
10.7476292335
 30
0.0
 40
1.5875
  1
NEMA_17_Mount
 41
0.7
 11
267.5094220682
 21
9.9264666106
 31
0.0
 73
     1
  0
TEXT
  5
B6
  8
0
  6
CONTINUOUS
 62
     7
 10
382.1564751324
 20
19.9818662973
 30
0.0
 40
1.5875
  1
PART NUMBER:                        REV 
 41
0.4725
 11
382.1564751324
 21
19.1607036744
 31
0.0
 73
     1
  0
TEXT
  5
B7
  8
0
  6
CONTINUOUS
 62
     7
 10
326.0927077224
 20
13.7132403362
 30
0.0
 40
1.5875
  1
DATE CREATED:
 41
0.7
 11
326.0927077224
 21
12.8920777133
 31
0.0
 73
     1
  0
TEXT
  5
B8
  8
0
  6
CONTINUOUS
 62
     7
 10
326.0927077224
 20
16.8524088529
 30
0.0
 40
1.5875
  1
DRAWN BY:                            
 41
0.4256756757
 11
326.0927077224
 21
16.03124623
 31
0.0
 73
     1
  0
TEXT
  5
B9
  8
0
  6
CONTINUOUS
 62
     7
 10
382.1564751324
 20
15.2884758505
 30
0.0
 40
2.6458333333
  1
TL400-000105-001
 41
0.7
 11
382.1564751324
 21
13.919871479
 31
0.0
 73
     1
  0
TEXT
  5
BA
  8
0
  6
CONTINUOUS
 62
     7
 10
344.7162807199
 20
20.0938974363
 30
0.0
 40
2.1166666667
  1
TERENCE T.S. TAM
 41
0.65625
 11
344.7162807199
 21
18.9990139391
 31
0.0
 73
     1
  0
TEXT
  5
BB
  8
0
  6
CONTINUOUS
 62
     7
 10
325.4422489146
 20
20.1821066522
 30
0.0
 40
1.5875
  1
 ENGINEER: 
 41
0.6363636364
 11
325.4422489146
 21
19.3609440293
 31
0.0
 73
     1
  0
TEXT
  5
BC
  8
0
  6
CONTINUOUS
 62
     7
 10
325.4545125293
 20
28.2949725266
 30
0.0
 40
2.6458333333
  1
PLATE, NEMA 17 MOUNT, OPENBEAM 1515
 41
0.65
 11
325.4545125293
 21
26.9263681551
 31
0.0
 73
     1
  0
TEXT
  5
BD
  8
0
  6
CONTINUOUS
 62
     7
 10
297.5323388865
 20
33.0533662784
 30
0.0
 40
1.5875
  1
TOLERANCES:
 41
0.7
 11
297.5323388865
 21
32.2322036555
 31
0.0
 73
     1
  0
TEXT
  5
BE
  8
0
  6
CONTINUOUS
 62
     7
 10
216.5051402585
 20
10.7593884907
 30
0.0
 40
1.5875
  1
CAD: SOLIDWORKS   SCALE:            FILE NAME:            
 41
0.525
 11
216.5051402585
 21
9.9382258678
 31
0.0
 73
     1
  0
TEXT
  5
BF
  8
0
  6
CONTINUOUS
 62
     7
 10
248.6374743408
 20
10.7299903332
 30
0.0
 40
1.5875
  1
1:1
 41
0.7
 11
248.6374743408
 21
9.9088277103
 31
0.0
 73
     1
  0
INSERT
  5
C5
  8
0
  6
CONTINUOUS
 62
     7
  2
SW_NOTE_1
 10
389.011489415
 20
263.5420108203
 30
0.0
  0
TEXT
  5
C6
  8
0
  6
CONTINUOUS
 62
     7
 10
413.5737401063
 20
15.2884758505
 30
0.0
 40
2.6458333333
  1
01
 41
0.7
 11
413.5737401063
 21
13.919871479
 31
0.0
 73
     1
  0
TEXT
  5
C7
  8
0
  6
CONTINUOUS
 62
     7
 10
298.3181927221
 20
14.8339607913
 30
0.0
 40
4.2333333333
  1
B
 41
0.7
 11
298.3181927221
 21
12.6441937969
 31
0.0
 73
     1
  0
TEXT
  5
C8
  8
0
  6
CONTINUOUS
 62
     7
 10
194.5492383068
 20
15.2679429097
 30
0.0
 40
1.5875
  1
www.TamLabs.com
 41
0.7
 11
194.5492383068
 21
14.4467802868
 31
0.0
 73
     1
  0
TEXT
  5
C9
  8
0
  6
CONTINUOUS
 62
     7
 10
24.6929745349
 20
267.7574887132
 30
0.0
 40
1.5875
  1
A
 41
0.7
 11
24.6929745349
 21
266.9363260903
 31
0.0
 73
     1
  0
TEXT
  5
CA
  8
0
  6
CONTINUOUS
 62
     7
 10
50.094444453
 20
267.7069836627
 30
0.0
 40
1.5875
  1
B
 41
0.7
 11
50.094444453
 21
266.8858210398
 31
0.0
 73
     1
  0
TEXT
  5
CB
  8
0
  6
CONTINUOUS
 62
     7
 10
75.435648138
 20
267.6845969337
 30
0.0
 40
1.5875
  1
C
 41
0.7
 11
75.435648138
 21
266.8634343108
 31
0.0
 73
     1
  0
TEXT
  5
CC
  8
0
  6
CONTINUOUS
 62
     7
 10
151.7532407098
 20
267.9371221862
 30
0.0
 40
1.5875
  1
F
 41
0.7
 11
151.7532407098
 21
267.1159595633
 31
0.0
 73
     1
  0
TEXT
  5
CD
  8
0
  6
CONTINUOUS
 62
     7
 10
100.835648138
 20
267.7856070347
 30
0.0
 40
1.5875
  1
D
 41
0.7
 11
100.835648138
 21
266.9644444118
 31
0.0
 73
     1
  0
TEXT
  5
CE
  8
0
  6
CONTINUOUS
 62
     7
 10
126.294444453
 20
267.7351019842
 30
0.0
 40
1.5875
  1
E
 41
0.7
 11
126.294444453
 21
266.9139393613
 31
0.0
 73
     1
  0
TEXT
  5
CF
  8
0
  6
CONTINUOUS
 62
     7
 10
278.6929745349
 20
267.7351019842
 30
0.0
 40
1.5875
  1
K
 41
0.7
 11
278.6929745349
 21
266.9139393613
 31
0.0
 73
     1
  0
TEXT
  5
D0
  8
0
  6
CONTINUOUS
 62
     7
 10
253.4693634217
 20
267.7856070347
 30
0.0
 40
1.5875
  1
J
 41
0.7
 11
253.4693634217
 21
266.9644444118
 31
0.0
 73
     1
  0
TEXT
  5
D1
  8
0
  6
CONTINUOUS
 62
     7
 10
304.2105671067
 20
267.9371221862
 30
0.0
 40
1.5875
  1
L
 41
0.7
 11
304.2105671067
 21
267.1159595633
 31
0.0
 73
     1
  0
TEXT
  5
D2
  8
0
  6
CONTINUOUS
 62
     7
 10
228.3045485943
 20
267.6845969337
 30
0.0
 40
1.5875
  1
I
 41
0.7
 11
228.3045485943
 21
266.8634343108
 31
0.0
 73
     1
  0
TEXT
  5
D3
  8
0
  6
CONTINUOUS
 62
     7
 10
202.4341782199
 20
267.7351019842
 30
0.0
 40
1.5875
  1
H
 41
0.7
 11
202.4341782199
 21
266.9139393613
 31
0.0
 73
     1
  0
TEXT
  5
D4
  8
0
  6
CONTINUOUS
 62
     7
 10
176.9753819049
 20
267.7856070347
 30
0.0
 40
1.5875
  1
G
 41
0.7
 11
176.9753819049
 21
266.9644444118
 31
0.0
 73
     1
  0
TEXT
  5
D5
  8
0
  6
CONTINUOUS
 62
     7
 10
405.6929745349
 20
267.7856070347
 30
0.0
 40
1.5875
  1
P
 41
0.7
 11
405.6929745349
 21
266.9644444118
 31
0.0
 73
     1
  0
TEXT
  5
D6
  8
0
  6
CONTINUOUS
 62
     7
 10
380.1753819049
 20
267.6845969337
 30
0.0
 40
1.5875
  1
O
 41
0.7
 11
380.1753819049
 21
266.8634343108
 31
0.0
 73
     1
  0
TEXT
  5
D7
  8
0
  6
CONTINUOUS
 62
     7
 10
354.8341782199
 20
267.7351019842
 30
0.0
 40
1.5875
  1
N
 41
0.7
 11
354.8341782199
 21
266.9139393613
 31
0.0
 73
     1
  0
TEXT
  5
D8
  8
0
  6
CONTINUOUS
 62
     7
 10
329.3165856482
 20
267.7856070347
 30
0.0
 40
1.5875
  1
M
 41
0.7
 11
329.3165856482
 21
266.9644444118
 31
0.0
 73
     1
  0
TEXT
  5
D9
  8
0
  6
CONTINUOUS
 62
     7
 10
100.835648138
 20
10.6106070347
 30
0.0
 40
1.5875
  1
D
 41
0.7
 11
100.835648138
 21
9.7894444118
 31
0.0
 73
     1
  0
TEXT
  5
DA
  8
0
  6
CONTINUOUS
 62
     7
 10
75.435648138
 20
10.5095969337
 30
0.0
 40
1.5875
  1
C
 41
0.7
 11
75.435648138
 21
9.6884343108
 31
0.0
 73
     1
  0
TEXT
  5
DB
  8
0
  6
CONTINUOUS
 62
     7
 10
50.094444453
 20
10.5601019842
 30
0.0
 40
1.5875
  1
B
 41
0.7
 11
50.094444453
 21
9.7389393613
 31
0.0
 73
     1
  0
TEXT
  5
DC
  8
0
  6
CONTINUOUS
 62
     7
 10
24.6929745349
 20
10.6106070347
 30
0.0
 40
1.5875
  1
A
 41
0.7
 11
24.6929745349
 21
9.7894444118
 31
0.0
 73
     1
  0
TEXT
  5
DD
  8
0
  6
CONTINUOUS
 62
     7
 10
202.4341782199
 20
10.5601019842
 30
0.0
 40
1.5875
  1
H
 41
0.7
 11
202.4341782199
 21
9.7389393613
 31
0.0
 73
     1
  0
TEXT
  5
DE
  8
0
  6
CONTINUOUS
 62
     7
 10
176.9753819049
 20
10.6106070347
 30
0.0
 40
1.5875
  1
G
 41
0.7
 11
176.9753819049
 21
9.7894444118
 31
0.0
 73
     1
  0
TEXT
  5
DF
  8
0
  6
CONTINUOUS
 62
     7
 10
151.7532407098
 20
10.7621221862
 30
0.0
 40
1.5875
  1
F
 41
0.7
 11
151.7532407098
 21
9.9409595633
 31
0.0
 73
     1
  0
TEXT
  5
E0
  8
0
  6
CONTINUOUS
 62
     7
 10
126.294444453
 20
10.5601019842
 30
0.0
 40
1.5875
  1
E
 41
0.7
 11
126.294444453
 21
9.7389393613
 31
0.0
 73
     1
  0
TEXT
  5
E1
  8
0
  6
CONTINUOUS
 62
     7
 10
10.8405671067
 20
254.2701524892
 30
0.0
 40
1.5875
  1
1
 41
0.7
 11
10.8405671067
 21
253.4489898664
 31
0.0
 73
     1
  0
TEXT
  5
E2
  8
0
  6
CONTINUOUS
 62
     7
 10
10.8405671067
 20
228.8701524892
 30
0.0
 40
1.5875
  1
2
 41
0.7
 11
10.8405671067
 21
228.0489898664
 31
0.0
 73
     1
  0
TEXT
  5
E3
  8
0
  6
CONTINUOUS
 62
     7
 10
10.8405671067
 20
203.4701524892
 30
0.0
 40
1.5875
  1
3
 41
0.7
 11
10.8405671067
 21
202.6489898664
 31
0.0
 73
     1
  0
TEXT
  5
E4
  8
0
  6
CONTINUOUS
 62
     7
 10
10.8405671067
 20
178.0701524892
 30
0.0
 40
1.5875
  1
4
 41
0.7
 11
10.8405671067
 21
177.2489898664
 31
0.0
 73
     1
  0
TEXT
  5
E5
  8
0
  6
CONTINUOUS
 62
     7
 10
10.8405671067
 20
76.5449228275
 30
0.0
 40
1.5875
  1
8
 41
0.7
 11
10.8405671067
 21
75.7237602046
 31
0.0
 73
     1
  0
TEXT
  5
E6
  8
0
  6
CONTINUOUS
 62
     7
 10
10.8405671067
 20
101.8701524892
 30
0.0
 40
1.5875
  1
7
 41
0.7
 11
10.8405671067
 21
101.0489898664
 31
0.0
 73
     1
  0
TEXT
  5
E7
  8
0
  6
CONTINUOUS
 62
     7
 10
10.8405671067
 20
127.7752029943
 30
0.0
 40
1.5875
  1
6
 41
0.7
 11
10.8405671067
 21
126.9540403714
 31
0.0
 73
     1
  0
TEXT
  5
E8
  8
0
  6
CONTINUOUS
 62
     7
 10
10.8405671067
 20
153.1752029943
 30
0.0
 40
1.5875
  1
5
 41
0.7
 11
10.8405671067
 21
152.3540403714
 31
0.0
 73
     1
  0
TEXT
  5
E9
  8
0
  6
CONTINUOUS
 62
     7
 10
10.8405671067
 20
51.0701524892
 30
0.0
 40
1.5875
  1
9
 41
0.7
 11
10.8405671067
 21
50.2489898664
 31
0.0
 73
     1
  0
TEXT
  5
EA
  8
0
  6
CONTINUOUS
 62
     7
 10
10.2511342134
 20
26.1752029943
 30
0.0
 40
1.5875
  1
10
 41
0.7
 11
10.2511342134
 21
25.3540403714
 31
0.0
 73
     1
  0
TEXT
  5
EB
  8
0
  6
CONTINUOUS
 62
     7
 10
420.4155671067
 20
254.2701524892
 30
0.0
 40
1.5875
  1
1
 41
0.7
 11
420.4155671067
 21
253.4489898664
 31
0.0
 73
     1
  0
TEXT
  5
EC
  8
0
  6
CONTINUOUS
 62
     7
 10
420.4155671067
 20
228.8701524892
 30
0.0
 40
1.5875
  1
2
 41
0.7
 11
420.4155671067
 21
228.0489898664
 31
0.0
 73
     1
  0
TEXT
  5
ED
  8
0
  6
CONTINUOUS
 62
     7
 10
420.4155671067
 20
203.4701524892
 30
0.0
 40
1.5875
  1
3
 41
0.7
 11
420.4155671067
 21
202.6489898664
 31
0.0
 73
     1
  0
TEXT
  5
EE
  8
0
  6
CONTINUOUS
 62
     7
 10
420.4155671067
 20
178.0701524892
 30
0.0
 40
1.5875
  1
4
 41
0.7
 11
420.4155671067
 21
177.2489898664
 31
0.0
 73
     1
  0
TEXT
  5
EF
  8
0
  6
CONTINUOUS
 62
     7
 10
420.4155671067
 20
153.1752029943
 30
0.0
 40
1.5875
  1
5
 41
0.7
 11
420.4155671067
 21
152.3540403714
 31
0.0
 73
     1
  0
TEXT
  5
F0
  8
0
  6
CONTINUOUS
 62
     7
 10
420.4155671067
 20
127.7752029943
 30
0.0
 40
1.5875
  1
6
 41
0.7
 11
420.4155671067
 21
126.9540403714
 31
0.0
 73
     1
  0
TEXT
  5
F1
  8
0
  6
CONTINUOUS
 62
     7
 10
420.4155671067
 20
101.8701524892
 30
0.0
 40
1.5875
  1
7
 41
0.7
 11
420.4155671067
 21
101.0489898664
 31
0.0
 73
     1
  0
TEXT
  5
F2
  8
0
  6
CONTINUOUS
 62
     7
 10
420.4155671067
 20
76.4701524892
 30
0.0
 40
1.5875
  1
8
 41
0.7
 11
420.4155671067
 21
75.6489898664
 31
0.0
 73
     1
  0
TEXT
  5
F3
  8
0
  6
CONTINUOUS
 62
     7
 10
420.4155671067
 20
51.0701524892
 30
0.0
 40
1.5875
  1
9
 41
0.7
 11
420.4155671067
 21
50.2489898664
 31
0.0
 73
     1
  0
TEXT
  5
F4
  8
0
  6
CONTINUOUS
 62
     7
 10
419.8261342134
 20
26.1752029943
 30
0.0
 40
1.5875
  1
10
 41
0.7
 11
419.8261342134
 21
25.3540403714
 31
0.0
 73
     1
  0
INSERT
  5
FA
  8
0
  6
CONTINUOUS
 62
     7
  2
SW_NOTE_2
 10
239.9670905591
 20
32.2322036555
 30
0.0
  0
INSERT
  5
104
  8
0
  6
CONTINUOUS
 62
     7
  2
SW_NOTE_3
 10
218.0395717919
 20
28.2533930558
 30
0.0
  0
CIRCLE
  5
105
  8
0
  6
CONTINUOUS
 62
     7
 10
343.0491538116
 20
200.7487378691
 30
0.0
 40
1.599999999999966
  0
CIRCLE
  5
106
  8
0
  6
CONTINUOUS
 62
     7
 10
374.0491538116
 20
231.7487378691
 30
0.0
 40
1.60000000000008
  0
CIRCLE
  5
107
  8
0
  6
CONTINUOUS
 62
     7
 10
358.5491538116
 20
216.2487378691
 30
0.0
 40
14.0
  0
ARC
  5
108
  8
0
  6
CONTINUOUS
 62
     7
 10
391.0491538116
 20
198.7487378691
 30
0.0
 40
5.000000000000057
 50
270.0
 51
0.0
  0
LINE
  5
109
  8
0
  6
CONTINUOUS
 62
     7
 10
326.0491538116
 20
193.7487378691
 30
0.0
 11
391.0491538116
 21
193.7487378691
 31
0.0
  0
ARC
  5
10A
  8
0
  6
CONTINUOUS
 62
     7
 10
326.0491538116
 20
198.7487378691
 30
0.0
 40
5.0
 50
180.0
 51
270.0
  0
LINE
  5
10B
  8
0
  6
CONTINUOUS
 62
     7
 10
321.0491538116
 20
233.7487378691
 30
0.0
 11
321.0491538116
 21
198.7487378691
 31
0.0
  0
ARC
  5
10C
  8
0
  6
CONTINUOUS
 62
     7
 10
326.0491538116
 20
233.7487378691
 30
0.0
 40
5.0
 50
90.0
 51
180.0
  0
LINE
  5
10D
  8
0
  6
CONTINUOUS
 62
     7
 10
391.0491538116
 20
238.7487378691
 30
0.0
 11
326.0491538116
 21
238.7487378691
 31
0.0
  0
ARC
  5
10E
  8
0
  6
CONTINUOUS
 62
     7
 10
391.0491538116
 20
233.7487378691
 30
0.0
 40
5.000000000000057
 50
0.0
 51
90.0
  0
LINE
  5
10F
  8
0
  6
CONTINUOUS
 62
     7
 10
396.0491538116
 20
198.7487378691
 30
0.0
 11
396.0491538116
 21
233.7487378691
 31
0.0
  0
CIRCLE
  5
110
  8
0
  6
CONTINUOUS
 62
     7
 10
343.0491538116
 20
231.7487378691
 30
0.0
 40
1.599999999999966
  0
CIRCLE
  5
111
  8
0
  6
CONTINUOUS
 62
     7
 10
374.0491538116
 20
200.7487378691
 30
0.0
 40
1.60000000000008
  0
CIRCLE
  5
112
  8
0
  6
CONTINUOUS
 62
     7
 10
328.5491538116
 20
216.2487378691
 30
0.0
 40
1.60000000000008
  0
CIRCLE
  5
113
  8
0
  6
CONTINUOUS
 62
     7
 10
328.5491538116
 20
231.2487378691
 30
0.0
 40
1.60000000000008
  0
CIRCLE
  5
114
  8
0
  6
CONTINUOUS
 62
     7
 10
328.5491538116
 20
201.2487378691
 30
0.0
 40
1.599999999999966
  0
CIRCLE
  5
115
  8
0
  6
CONTINUOUS
 62
     7
 10
388.5491538116
 20
201.2487378691
 30
0.0
 40
1.60000000000008
  0
CIRCLE
  5
116
  8
0
  6
CONTINUOUS
 62
     7
 10
388.5491538116
 20
231.2487378691
 30
0.0
 40
1.599999999999966
  0
CIRCLE
  5
117
  8
0
  6
CONTINUOUS
 62
     7
 10
388.5491538116
 20
216.2487378691
 30
0.0
 40
1.599999999999966
  0
CIRCLE
  5
118
  8
0
  6
CONTINUOUS
 62
     7
 10
391.0491538116
 20
221.2487378691
 30
0.0
 40
1.599999999999966
  0
CIRCLE
  5
119
  8
0
  6
CONTINUOUS
 62
     7
 10
391.0491538116
 20
211.2487378691
 30
0.0
 40
1.60000000000008
  0
CIRCLE
  5
11A
  8
0
  6
CONTINUOUS
 62
     7
 10
326.0491538116
 20
211.2487378691
 30
0.0
 40
1.599999999999966
  0
CIRCLE
  5
11B
  8
0
  6
CONTINUOUS
 62
     7
 10
326.0491538116
 20
221.2487378691
 30
0.0
 40
1.600000000000023
  0
INSERT
  5
121
  8
0
  6
CONTINUOUS
 62
     7
  2
SW_NOTE_4
 10
349.8436476626
 20
186.7135479561
 30
0.0
  0
CIRCLE
  5
122
  8
0
  6
CONTINUOUS
 62
     7
 10
92.1114214701
 20
186.0102042422
 30
0.0
 40
1.600000000000009
  0
CIRCLE
  5
123
  8
0
  6
CONTINUOUS
 62
     7
 10
123.1114214701
 20
217.0102042422
 30
0.0
 40
1.600000000000009
  0
CIRCLE
  5
124
  8
0
  6
CONTINUOUS
 62
     7
 10
107.6114214701
 20
201.5102042422
 30
0.0
 40
14.0
  0
ARC
  5
125
  8
0
  6
CONTINUOUS
 62
     7
 10
140.1114214701
 20
184.0102042422
 30
0.0
 40
5.0
 50
270.0
 51
0.0
  0
LINE
  5
126
  8
0
  6
CONTINUOUS
 62
     7
 10
75.1114214701
 20
179.0102042422
 30
0.0
 11
140.1114214701
 21
179.0102042422
 31
0.0
  0
ARC
  5
127
  8
0
  6
CONTINUOUS
 62
     7
 10
75.1114214701
 20
184.0102042422
 30
0.0
 40
5.0
 50
180.0
 51
270.0
  0
LINE
  5
128
  8
0
  6
CONTINUOUS
 62
     7
 10
70.1114214701
 20
219.0102042422
 30
0.0
 11
70.1114214701
 21
184.0102042422
 31
0.0
  0
ARC
  5
129
  8
0
  6
CONTINUOUS
 62
     7
 10
75.1114214701
 20
219.0102042422
 30
0.0
 40
5.000000000000028
 50
90.0
 51
180.0
  0
LINE
  5
12A
  8
0
  6
CONTINUOUS
 62
     7
 10
140.1114214701
 20
224.0102042422
 30
0.0
 11
75.1114214701
 21
224.0102042422
 31
0.0
  0
ARC
  5
12B
  8
0
  6
CONTINUOUS
 62
     7
 10
140.1114214701
 20
219.0102042422
 30
0.0
 40
5.000000000000028
 50
0.0
 51
90.0
  0
LINE
  5
12C
  8
0
  6
CONTINUOUS
 62
     7
 10
145.1114214701
 20
184.0102042422
 30
0.0
 11
145.1114214701
 21
219.0102042422
 31
0.0
  0
CIRCLE
  5
12D
  8
0
  6
CONTINUOUS
 62
     7
 10
92.1114214701
 20
217.0102042422
 30
0.0
 40
1.600000000000009
  0
CIRCLE
  5
12E
  8
0
  6
CONTINUOUS
 62
     7
 10
123.1114214701
 20
186.0102042422
 30
0.0
 40
1.600000000000009
  0
CIRCLE
  5
12F
  8
0
  6
CONTINUOUS
 62
     7
 10
77.6114214701
 20
201.5102042422
 30
0.0
 40
1.600000000000009
  0
CIRCLE
  5
130
  8
0
  6
CONTINUOUS
 62
     7
 10
77.6114214701
 20
216.5102042422
 30
0.0
 40
1.600000000000009
  0
CIRCLE
  5
131
  8
0
  6
CONTINUOUS
 62
     7
 10
77.6114214701
 20
186.5102042422
 30
0.0
 40
1.599999999999994
  0
CIRCLE
  5
132
  8
0
  6
CONTINUOUS
 62
     7
 10
137.6114214701
 20
186.5102042422
 30
0.0
 40
1.599999999999994
  0
CIRCLE
  5
133
  8
0
  6
CONTINUOUS
 62
     7
 10
137.6114214701
 20
216.5102042422
 30
0.0
 40
1.599999999999994
  0
CIRCLE
  5
134
  8
0
  6
CONTINUOUS
 62
     7
 10
137.6114214701
 20
201.5102042422
 30
0.0
 40
1.599999999999994
  0
CIRCLE
  5
135
  8
0
  6
CONTINUOUS
 62
     7
 10
140.1114214701
 20
206.5102042422
 30
0.0
 40
1.599999999999994
  0
CIRCLE
  5
136
  8
0
  6
CONTINUOUS
 62
     7
 10
140.1114214701
 20
196.5102042422
 30
0.0
 40
1.600000000000023
  0
CIRCLE
  5
137
  8
0
  6
CONTINUOUS
 62
     7
 10
75.1114214701
 20
196.5102042422
 30
0.0
 40
1.599999999999994
  0
CIRCLE
  5
138
  8
0
  6
CONTINUOUS
 62
     7
 10
75.1114214701
 20
206.5102042422
 30
0.0
 40
1.599999999999994
  0
DIMENSION
  5
139
  8
0
  6
CONTINUOUS
 62
     7
  2
_D
 10
70.1114214701
 20
169.0102042422
 30
0.0
 11
44.3944977779
 21
169.0102042422
 31
0.0
 70
   160
  1
<> 3PL
  3
SLDDIMSTYLE0
 13
77.6114214701
 23
212.4102042422
 33
0.0
 14
70.1114214701
 24
184.0102042422
 34
0.0
  0
DIMENSION
  5
14E
  8
0
  6
CONTINUOUS
 62
     7
  2
_D_1
 10
145.1114214701
 20
169.0102042422
 30
0.0
 11
167.1114214701
 21
169.0102042422
 31
0.0
 70
   160
  1
<> 3PL
  3
SLDDIMSTYLE0
 13
137.6114214701
 23
212.4102042422
 33
0.0
 14
145.1114214701
 24
184.0102042422
 34
0.0
  0
DIMENSION
  5
15B
  8
0
  6
CONTINUOUS
 62
     7
  2
_D_2
 10
155.1114214701
 20
201.5102042422
 30
0.0
 11
155.1114214701
 21
194.8093575512
 31
0.0
 70
   160
  1
<> 2PL
  3
SLDDIMSTYLE1
 13
81.7114214701
 23
186.5102042422
 33
0.0
 14
81.7114214701
 24
201.5102042422
 34
0.0
 50
90.0
  0
DIMENSION
  5
16A
  8
0
  6
CONTINUOUS
 62
     7
  2
_D_3
 10
167.1114214701
 20
201.5102042422
 30
0.0
 11
167.1114214701
 21
208.7905066025
 31
0.0
 70
   160
  1
<> 2PL
  3
SLDDIMSTYLE1
 13
81.7114214701
 23
216.5102042422
 33
0.0
 14
81.7114214701
 24
201.5102042422
 34
0.0
 50
90.0
  0
INSERT
  5
183
  8
0
  6
CONTINUOUS
 62
     7
  2
SW_CENTERMARKSYMBOL_0
 10
77.6114214701
 20
216.5102042422
 30
0.0
  0
INSERT
  5
18F
  8
0
  6
CONTINUOUS
 62
     7
  2
SW_CENTERMARKSYMBOL_1
 10
77.6114214701
 20
201.5102042422
 30
0.0
  0
INSERT
  5
19B
  8
0
  6
CONTINUOUS
 62
     7
  2
SW_CENTERMARKSYMBOL_2
 10
77.6114214701
 20
186.5102042422
 30
0.0
  0
INSERT
  5
1A7
  8
0
  6
CONTINUOUS
 62
     7
  2
SW_CENTERMARKSYMBOL_3
 10
137.6114214701
 20
216.5102042422
 30
0.0
  0
INSERT
  5
1B3
  8
0
  6
CONTINUOUS
 62
     7
  2
SW_CENTERMARKSYMBOL_4
 10
137.6114214701
 20
201.5102042422
 30
0.0
  0
INSERT
  5
1BF
  8
0
  6
CONTINUOUS
 62
     7
  2
SW_CENTERMARKSYMBOL_5
 10
137.6114214701
 20
186.5102042422
 30
0.0
  0
CIRCLE
  5
1C0
  8
0
  6
CONTINUOUS
 62
     7
 10
93.1131706582
 20
63.0257061695
 30
0.0
 40
1.600000000000009
  0
CIRCLE
  5
1C1
  8
0
  6
CONTINUOUS
 62
     7
 10
124.1131706582
 20
94.0257061695
 30
0.0
 40
1.600000000000009
  0
CIRCLE
  5
1C2
  8
0
  6
CONTINUOUS
 62
     7
 10
108.6131706582
 20
78.5257061695
 30
0.0
 40
14.0
  0
ARC
  5
1C3
  8
0
  6
CONTINUOUS
 62
     7
 10
141.1131706582
 20
61.0257061695
 30
0.0
 40
5.0
 50
270.0
 51
0.0
  0
LINE
  5
1C4
  8
0
  6
CONTINUOUS
 62
     7
 10
76.1131706582
 20
56.0257061695
 30
0.0
 11
141.1131706582
 21
56.0257061695
 31
0.0
  0
ARC
  5
1C5
  8
0
  6
CONTINUOUS
 62
     7
 10
76.1131706582
 20
61.0257061695
 30
0.0
 40
5.0
 50
180.0
 51
270.0
  0
LINE
  5
1C6
  8
0
  6
CONTINUOUS
 62
     7
 10
71.1131706582
 20
96.0257061695
 30
0.0
 11
71.1131706582
 21
61.0257061695
 31
0.0
  0
ARC
  5
1C7
  8
0
  6
CONTINUOUS
 62
     7
 10
76.1131706582
 20
96.0257061695
 30
0.0
 40
5.0
 50
90.0
 51
180.0
  0
LINE
  5
1C8
  8
0
  6
CONTINUOUS
 62
     7
 10
141.1131706582
 20
101.0257061695
 30
0.0
 11
76.1131706582
 21
101.0257061695
 31
0.0
  0
ARC
  5
1C9
  8
0
  6
CONTINUOUS
 62
     7
 10
141.1131706582
 20
96.0257061695
 30
0.0
 40
4.999999999999986
 50
0.0
 51
90.0
  0
LINE
  5
1CA
  8
0
  6
CONTINUOUS
 62
     7
 10
146.1131706582
 20
61.0257061695
 30
0.0
 11
146.1131706582
 21
96.0257061695
 31
0.0
  0
CIRCLE
  5
1CB
  8
0
  6
CONTINUOUS
 62
     7
 10
93.1131706582
 20
94.0257061695
 30
0.0
 40
1.600000000000009
  0
CIRCLE
  5
1CC
  8
0
  6
CONTINUOUS
 62
     7
 10
124.1131706582
 20
63.0257061695
 30
0.0
 40
1.600000000000009
  0
CIRCLE
  5
1CD
  8
0
  6
CONTINUOUS
 62
     7
 10
78.6131706582
 20
78.5257061695
 30
0.0
 40
1.600000000000009
  0
CIRCLE
  5
1CE
  8
0
  6
CONTINUOUS
 62
     7
 10
78.6131706582
 20
93.5257061695
 30
0.0
 40
1.600000000000009
  0
CIRCLE
  5
1CF
  8
0
  6
CONTINUOUS
 62
     7
 10
78.6131706582
 20
63.5257061695
 30
0.0
 40
1.599999999999994
  0
CIRCLE
  5
1D0
  8
0
  6
CONTINUOUS
 62
     7
 10
138.6131706582
 20
63.5257061695
 30
0.0
 40
1.600000000000023
  0
CIRCLE
  5
1D1
  8
0
  6
CONTINUOUS
 62
     7
 10
138.6131706582
 20
93.5257061695
 30
0.0
 40
1.599999999999994
  0
CIRCLE
  5
1D2
  8
0
  6
CONTINUOUS
 62
     7
 10
138.6131706582
 20
78.5257061695
 30
0.0
 40
1.599999999999994
  0
CIRCLE
  5
1D3
  8
0
  6
CONTINUOUS
 62
     7
 10
141.1131706582
 20
83.5257061695
 30
0.0
 40
1.599999999999994
  0
CIRCLE
  5
1D4
  8
0
  6
CONTINUOUS
 62
     7
 10
141.1131706582
 20
73.5257061695
 30
0.0
 40
1.600000000000023
  0
CIRCLE
  5
1D5
  8
0
  6
CONTINUOUS
 62
     7
 10
76.1131706582
 20
73.5257061695
 30
0.0
 40
1.600000000000009
  0
CIRCLE
  5
1D6
  8
0
  6
CONTINUOUS
 62
     7
 10
76.1131706582
 20
83.5257061695
 30
0.0
 40
1.599999999999994
  0
DIMENSION
  5
1D7
  8
0
  6
CONTINUOUS
 62
     7
  2
_D_4
 10
71.1131706582
 20
46.0257061695
 30
0.0
 11
43.1131706582
 21
46.0257061695
 31
0.0
 70
   160
  1
<> 2PL
  3
SLDDIMSTYLE2
 13
76.1131706582
 23
79.4257061695
 33
0.0
 14
71.1131706582
 24
61.0257061695
 34
0.0
  0
DIMENSION
  5
1E5
  8
0
  6
CONTINUOUS
 62
     7
  2
_D_5
 10
141.1131706582
 20
46.0257061695
 30
0.0
 11
164.0335229711
 21
46.0257061695
 31
0.0
 70
   160
  1
<> 2PL
  3
SLDDIMSTYLE2
 13
146.1131706582
 23
61.0257061695
 33
0.0
 14
141.1131706582
 24
79.4257061695
 34
0.0
  0
DIMENSION
  5
1F2
  8
0
  6
CONTINUOUS
 62
     7
  2
_D_6
 10
156.1131706582
 20
83.5257061695
 30
0.0
 11
156.1131706582
 21
99.1178741855
 31
0.0
 70
   160
  1
<> 2PL
  3
SLDDIMSTYLE1
 13
80.2131706582
 23
73.5257061695
 33
0.0
 14
80.2131706582
 24
83.5257061695
 34
0.0
 50
90.0
  0
INSERT
  5
20B
  8
0
  6
CONTINUOUS
 62
     7
  2
SW_CENTERMARKSYMBOL_6
 10
76.1131706582
 20
83.5257061695
 30
0.0
  0
INSERT
  5
217
  8
0
  6
CONTINUOUS
 62
     7
  2
SW_CENTERMARKSYMBOL_7
 10
76.1131706582
 20
73.5257061695
 30
0.0
  0
INSERT
  5
223
  8
0
  6
CONTINUOUS
 62
     7
  2
SW_CENTERMARKSYMBOL_8
 10
141.1131706582
 20
83.5257061695
 30
0.0
  0
INSERT
  5
22F
  8
0
  6
CONTINUOUS
 62
     7
  2
SW_CENTERMARKSYMBOL_9
 10
141.1131706582
 20
73.5257061695
 30
0.0
  0
ENDSEC
  0
EOF
