**ABCDEFGHIJKLMNOPQRSTUVWXYZabcdefghijklmnopqrstuvwxyz**************************
**PARASOLID !"#$%&'()*+,-./:;<=>?@[\]^_`{|}~0123456789**************************
**PART1;
MC=AMD64;
MC_MODEL=AMD64 Family 16 Model 2 Stepping 3, AuthenticAMD;
MC_ID=unknown;
OS=Windows_NT;
OS_RELEASE=unknown;
FRU=Parasolid Version 24.0, build 201, 10-11-2011;
APPL=SolidWorks 2012-2011312;
SITE=;
USER=unknown;
FORMAT=text;
GUISE=transmit;
KEY=TL400-000105-002 - NEMA 17 Motor Mount;
FILE=TL400-000105-002 - NEMA 17 Motor Mount.x_t;
DATE=Sat Jul 07 18:19:21 2012;
**PART2;
SCH=SCH_2400201_20000;
USFLD_SIZE=0;
**PART3;
**END_OF_HEADER*****************************************************************
T51 : TRANSMIT FILE created by modeller version 240020123 SCH_2400201_20000_1300
6186 0 12 27 CCCCCCCCCCCCCCCCCCCCCCCA16 index_map_offset0 0 1 dA9 index_map82 0
 A17 node_id_index_map82 0 A20 schema_embedding_map82 0 Z1 1561 2 3 0 0 0 0 1e3
 1e-8 0 4 0 1 0 1 1 5 6 7 8 9 10 11 0 0 0 0 81 255 2 2 1245 12 1 0 0 0 0 13 0 70
 11 CI9 list_type0 0 1 uI10 notransmit0 0 1 lCCCDCCDI12 finger_index0 0 1 dI12 f
inger_block1012 0 CZ3 0 4 T1 0 0 3 20 1 14 14 13 255 5 94 0 1 0 15 0 0 16 0 51 2
55 6 558 0 17 18 0 0 +-.0325 .0175 .002032 0 0 -1 .005 -1 0 0 30 255 7 465 0 10
 19 0 0 --.0375 -.0175 .002032 0 0 -1 29 255 8 427 0 11 20 0 .0325 -.0225 .00203
2 19 255 9 28 0 1 16 0 21 V16 255 10 463 0 ?22 0 23 7 0 0 1 18 255 11 425 0 24 0
 25 8 ?1 17 255 24 0 26 27 28 11 29 30 0 31 +18 25 422 0 32 11 33 20 ?1 17 32 0
 34 31 35 25 36 37 0 27 +18 33 419 0 22 25 38 39 ?1 29 20 424 0 25 39 8 -.0325 -
.0225 .002032 29 39 421 0 33 40 20 -.0375 -.0175 .002032 29 40 418 0 38 41 39 -.
0375 .0175 .002032 18 38 416 0 42 33 43 40 ?1 29 41 405 0 43 44 40 .0375 .0175 .
002032 18 43 403 0 45 38 46 41 ?1 29 44 402 0 46 47 41 .0375 -.0175 .002032 18 4
6 400 0 48 43 49 44 ?1 29 47 379 0 49 50 44 -.0375 -.0175 0 18 49 377 0 51 46 52
 47 ?1 29 50 376 0 52 53 47 -.0375 .0175 0 18 52 374 0 54 49 55 50 ?1 29 53 373
 0 55 56 50 .0325 -.0225 0 18 55 371 0 57 52 58 53 ?1 29 56 370 0 58 59 53 -.032
5 -.0225 0 18 58 368 0 60 55 61 56 ?1 29 59 367 0 61 62 56 .0375 .0175 0 18 61 3
65 0 63 58 64 59 ?1 29 62 364 0 64 65 59 .0375 -.0175 0 18 64 362 0 66 61 67 62
 ?1 29 65 351 0 67 68 62 -.0325 .0225 .002032 18 67 349 0 69 64 70 65 ?1 29 68 3
48 0 70 71 65 .0325 .0225 .002032 18 70 346 0 72 67 73 68 ?1 29 71 345 0 73 74 6
8 -.0325 .0225 0 18 73 343 0 75 70 76 71 ?1 29 74 342 0 76 0 71 .0325 .0225 0 18
 76 340 0 77 73 0 74 ?1 17 77 0 78 79 80 76 63 81 0 82 -15 255 78 484 0 83 84 0
 17 79 0 78 83 77 70 82 85 0 0 -17 80 0 78 77 83 61 45 86 0 0 -17 63 0 87 88 89
 61 77 81 0 90 +16 81 395 0 ?63 91 92 93 0 0 1 17 82 0 94 95 96 76 79 85 0 89 +1
5 94 82 0 96 97 0 17 95 0 94 69 82 73 89 98 0 99 +17 96 0 94 82 69 70 100 101 0
 79 -16 85 357 0 ?82 102 103 104 0 0 1 17 89 0 87 63 75 76 95 98 0 0 -15 87 44 0
 89 105 106 17 75 0 87 89 107 73 54 102 0 95 +16 98 341 0 ?95 108 109 110 0 0 1
 16 108 375 0 ?111 112 98 113 0 0 1 16 109 363 0 ?90 98 114 115 0 0 1 30 110 68
 0 98 115 113 0 +-.0375 .0225 0 -1 0 0 30 115 69 0 109 116 110 0 +.0375 -.0225 0
 0 1 0 30 113 67 0 108 110 117 0 +-.0375 -.0225 0 0 -1 0 30 117 66 0 112 113 118
 0 +-.0375 -.0225 0 1 0 0 16 112 369 0 ?28 119 108 117 0 0 1 30 118 354 0 103 11
7 104 0 --.0325 .0225 .002032 0 0 -1 16 103 352 0 ?69 85 120 118 0 0 1 30 104 35
9 0 85 118 121 0 +.0325 .0225 .002032 0 0 -1 31 255 121 382 0 102 104 122 0 +-.0
325 .0175 0 0 0 -1 -1 0 0 .005 16 102 380 0 ?75 123 85 121 0 0 1 31 122 387 0 12
3 121 124 0 +-.0325 -.0175 0 0 0 -1 -1 0 0 .005 16 123 385 0 ?51 92 102 122 0 0
 1 31 124 392 0 92 122 93 0 +.0325 -.0175 0 0 0 -1 -1 0 0 .005 16 92 390 0 ?57 8
1 123 124 0 0 1 31 93 397 0 81 124 125 0 +.0325 .0175 0 0 0 -1 -1 0 0 .005 30 12
5 408 0 91 93 126 0 +.0375 -.0175 .002032 0 0 -1 16 91 406 0 ?127 86 81 125 0 0
 1 30 126 413 0 86 125 128 0 -.0375 .0175 .002032 0 0 -1 16 86 411 0 ?45 129 91
 126 0 0 1 31 128 430 0 129 126 130 0 --.0325 .0175 .002032 0 0 -1 -1 0 0 .005 1
6 129 428 0 ?42 37 86 128 0 0 1 31 130 435 0 37 128 131 0 --.0325 -.0175 .002032
 0 0 -1 -1 0 0 .005 16 37 433 0 ?32 132 129 130 0 0 1 31 131 440 0 132 130 133 0
 -.0325 -.0175 .002032 0 0 -1 -1 0 0 .005 16 132 438 0 ?48 134 37 131 0 0 1 31 1
33 445 0 134 131 135 0 -.0325 .0175 .002032 0 0 -1 -1 0 0 .005 16 134 443 0 ?72
 136 132 133 0 0 1 30 135 450 0 136 133 137 0 +-.0325 -.0225 .002032 0 0 -1 16 1
36 448 0 ?138 30 134 135 0 0 1 30 137 455 0 30 135 19 0 -.0325 -.0225 .002032 0
 0 -1 16 30 453 0 ?24 23 136 137 0 0 1 30 19 460 0 23 137 7 0 +-.0375 .0175 .002
032 0 0 -1 16 23 458 0 ?139 10 30 19 0 0 1 17 139 0 140 111 141 52 142 23 0 107
 +15 140 80 0 111 143 0 17 111 0 140 22 139 49 107 108 0 144 +17 141 0 140 139 2
2 38 35 145 0 142 -17 142 0 146 147 54 38 139 23 0 0 -17 107 0 87 75 51 52 111 1
08 0 0 -17 51 0 87 107 148 49 60 123 0 111 +17 148 0 87 51 57 58 28 112 0 0 -17
 60 0 149 150 144 58 51 123 0 138 -15 149 526 0 36 151 0 17 150 0 149 36 60 25 1
38 136 0 0 -17 144 0 149 60 36 49 22 10 0 0 -17 138 0 26 28 27 58 150 136 0 148
 +15 26 78 0 28 152 0 17 28 0 26 24 138 55 148 112 0 29 +17 27 0 26 138 24 25 31
 120 0 150 -17 31 0 34 48 32 11 27 120 0 153 +16 120 423 0 ?31 103 145 116 0 0 1
 16 145 417 0 ?35 120 101 154 0 0 1 30 116 14 0 120 154 115 0 +-.0375 -.0225 .00
2032 1 0 0 30 154 11 0 145 155 116 0 +-.0375 -.0225 .002032 0 -1 0 30 155 8 0 10
1 156 154 0 +-.0375 .0225 .002032 -1 0 0 16 101 347 0 ?100 145 119 155 0 0 1 30
 156 5 0 119 157 155 0 +.0375 -.0225 .002032 0 1 0 16 119 401 0 ?158 101 112 156
 0 0 1 31 157 142 0 159 160 156 0 +689234308070187e-32 3473299185822415e-33 0 0
 0 1 1 0 0 .014 16 159 120 0 ?161 114 162 157 0 0 1 31 160 143 0 114 163 157 0 +
689234308070187e-32 3473299185822415e-33 .002032 0 0 1 1 0 0 .014 16 114 123 0 ?
164 109 159 160 0 0 1 31 163 180 0 165 166 160 0 +-.0155 .0155 0 0 0 1 1 0 0 .00
16 16 165 158 0 ?167 162 168 163 0 0 1 31 166 181 0 162 169 163 0 +-.0155 .0155
 .002032 0 0 1 1 0 0 .0016 16 162 161 0 ?170 159 165 166 0 0 1 31 169 218 0 171
 172 166 0 +.0155 .0155 0 0 0 1 1 0 0 .0016 16 171 196 0 ?173 168 174 169 0 0 1
 31 172 219 0 168 175 169 0 +.0155 .0155 .002032 0 0 1 1 0 0 .0016 16 168 199 0
 ?176 165 171 172 0 0 1 31 175 256 0 177 178 172 0 +.0155 -.0155 0 0 0 1 1 0 0 .
0016 16 177 234 0 ?179 174 180 175 0 0 1 31 178 257 0 174 181 175 0 +.0155 -.015
5 .002032 0 0 1 1 0 0 .0016 16 174 237 0 ?182 171 177 178 0 0 1 31 181 294 0 183
 184 178 0 +-.0155 -.0155 0 0 0 1 1 0 0 .0016 16 183 272 0 ?185 180 186 181 0 0
 1 31 184 295 0 180 187 181 0 +-.0155 -.0155 .002032 0 0 1 1 0 0 .0016 16 180 27
5 0 ?188 177 183 184 0 0 1 31 187 631 0 189 190 184 0 +-.03 -865619758593247e-32
 .002032 0 0 1 1 0 0 .0016 16 189 612 0 ?191 186 192 187 0 0 1 31 190 632 0 186
 193 187 0 +-.03 -865619758593247e-32 0 0 0 1 1 0 0 .0016 16 186 609 0 ?194 183
 189 190 0 0 1 31 193 669 0 195 196 190 0 +-.03 .015 .002032 0 0 1 1 0 0 .0016 1
6 195 650 0 ?197 192 198 193 0 0 1 31 196 670 0 192 199 193 0 +-.03 .015 0 0 0 1
 1 0 0 .0016 16 192 647 0 ?200 189 195 196 0 0 1 31 199 707 0 201 202 196 0 +-.0
3 -.015 .002032 0 0 1 -1 0 0 .0016 16 201 688 0 ?203 198 204 199 0 0 1 31 202 70
8 0 198 205 199 0 +-.03 -.015 0 0 0 1 -1 0 0 .0016 16 198 685 0 ?206 195 201 202
 0 0 1 31 205 745 0 207 208 202 0 +.03 -.015 .002032 0 0 1 1 0 0 .0016 16 207 72
6 0 ?209 204 210 205 0 0 1 31 208 746 0 204 211 205 0 +.03 -.015 0 0 0 1 1 0 0 .
0016 16 204 723 0 ?212 201 207 208 0 0 1 31 211 783 0 213 214 208 0 +.03 .015 .0
02032 0 0 1 -1 0 0 .0016 16 213 764 0 ?215 210 216 211 0 0 1 31 214 784 0 210 21
7 211 0 +.03 .015 0 0 0 1 -1 0 0 .0016 16 210 761 0 ?218 207 213 214 0 0 1 31 21
7 821 0 219 220 214 0 +.03 -1308316791048352e-33 .002032 0 0 1 -1 0 0 .0016 16 2
19 802 0 ?221 216 222 217 0 0 1 31 220 822 0 216 223 217 0 +.03 -130831679104835
2e-33 0 0 0 1 -1 0 0 .0016 16 216 799 0 ?224 213 219 220 0 0 1 31 223 901 0 225
 226 220 0 +.0325 .005 0 0 0 -1 -1 0 0 .0016 16 225 882 0 ?227 222 228 223 0 0 1
 31 226 902 0 222 229 223 0 +.0325 .005 .002032 0 0 -1 -1 0 0 .0016 16 222 879 0
 ?230 219 225 226 0 0 1 31 229 939 0 231 232 226 0 +.0325 -.005 0 0 0 -1 1 0 0 .
0016 16 231 920 0 ?233 228 234 229 0 0 1 31 232 940 0 228 235 229 0 +.0325 -.005
 .002032 0 0 -1 1 0 0 .0016 16 228 917 0 ?236 225 231 232 0 0 1 31 235 977 0 237
 238 232 0 +-.0325 -.005 0 0 0 -1 -1 0 0 .0016 16 237 958 0 ?239 234 240 235 0 0
 1 31 238 978 0 234 241 235 0 +-.0325 -.005 .002032 0 0 -1 -1 0 0 .0016 16 234 9
55 0 ?242 231 237 238 0 0 1 31 241 1015 0 243 244 238 0 +-.0325 .005 0 0 0 -1 1
 0 0 .0016 16 243 996 0 ?245 240 0 241 0 0 1 31 244 1016 0 240 0 241 0 +-.0325 .
005 .002032 0 0 -1 1 0 0 .0016 16 240 993 0 ?246 237 243 244 0 0 1 17 246 0 247
 246 246 0 248 240 0 0 +15 247 987 0 246 15 249 17 248 0 250 248 248 0 246 240 0
 0 -15 250 1002 0 248 251 252 14 255 251 999 253 ?0 254 250 5 255 -0 0 0 254 21
 15 252 1003 0 245 251 0 17 245 0 252 245 245 0 256 243 0 0 +17 256 0 257 256 25
6 0 245 243 0 0 -15 257 982 0 256 105 258 14 105 263 259 ?260 15 257 5 261 +0 0
 260 15 21 15 258 944 0 262 105 263 17 262 0 258 262 262 0 239 237 0 0 -15 263 9
06 0 264 105 265 17 264 0 263 264 264 0 233 231 0 0 -15 265 868 0 266 105 267 17
 266 0 265 266 266 0 227 225 0 0 -15 267 788 0 224 105 268 17 224 0 267 224 224
 0 269 216 0 0 +15 268 750 0 218 105 270 17 218 0 268 218 218 0 271 210 0 0 +15
 270 712 0 212 105 272 17 212 0 270 212 212 0 273 204 0 0 +15 272 674 0 206 105
 274 17 206 0 272 206 206 0 275 198 0 0 +15 274 636 0 200 105 276 17 200 0 274 2
00 200 0 277 192 0 0 +15 276 598 0 194 105 278 17 194 0 276 194 194 0 279 186 0
 0 +15 278 222 0 179 105 280 17 179 0 278 179 179 0 281 177 0 0 +15 280 146 0 16
7 105 87 17 167 0 280 167 167 0 282 165 0 0 +17 282 0 283 282 282 0 167 165 0 0
 -15 283 168 0 282 284 0 14 284 164 285 ?286 287 288 5 289 +0 0 286 287 21 81 1
 285 1539 290 284 291 0 259 292 293 14 286 202 292 ?294 284 295 5 296 +0 0 294 2
84 21 14 287 126 297 ?284 152 298 5 299 +0 0 284 152 21 15 288 167 0 170 284 283
 51 289 177 0 284 296 299 0 --.0155 .0155 .002032 0 0 -1 .0016 -1 0 0 13 21 29 0
 0 0 0 0 0 9 15 14 15 269 300 ?105 0 247 5 301 -0 0 105 0 21 81 1 300 1542 290 1
5 302 0 297 303 304 50 255 301 2 0 15 299 261 0 +0 0 .002032 0 0 -1 -1 0 0 51 29
9 139 0 287 289 301 0 -689234308070187e-32 3473299185822415e-33 .002032 0 0 -1 .
014 -1 0 0 50 261 65 0 105 301 305 0 +0 0 0 0 0 -1 -1 0 0 50 305 90 0 152 261 30
6 0 +-.0375 -.0225 .002032 0 1 0 0 0 1 14 152 79 303 ?287 143 26 5 305 -0 0 287
 143 21 50 306 91 0 143 305 307 0 +-.0375 -.0225 .002032 1 0 0 0 0 -1 14 143 81
 308 ?152 97 140 5 306 -0 0 152 97 21 50 307 92 0 97 306 309 0 +-.0375 .0225 .00
2032 0 -1 0 0 0 -1 14 97 83 310 ?143 260 94 5 307 -0 0 143 260 21 50 309 93 0 26
0 307 311 0 +.0375 -.0225 .002032 -1 0 0 0 0 1 14 260 85 312 ?97 105 313 5 309 -
0 0 97 105 21 51 311 495 0 84 309 314 0 +.0325 .0175 .002032 0 0 -1 .005 -1 0 0
 14 84 483 315 ?316 317 78 5 311 +0 0 316 317 21 51 314 516 0 316 311 18 0 +.032
5 -.0175 .002032 0 0 -1 .005 -1 0 0 14 316 504 318 ?151 84 319 5 314 +0 0 151 84
 21 51 18 537 0 151 314 6 0 +-.0325 -.0175 .002032 0 0 -1 .005 -1 0 0 14 151 525
 320 ?17 316 149 5 18 +0 0 17 316 21 81 1 320 1549 290 151 321 0 318 322 323 14
 17 546 322 ?324 151 146 5 6 +0 0 324 151 21 81 1 322 1550 290 17 325 0 320 326
 327 14 324 615 326 ?328 17 329 5 330 -0 0 328 17 21 15 146 547 0 147 17 0 17 14
7 0 146 99 142 67 42 129 0 0 -17 99 0 146 54 147 73 69 103 0 0 -17 42 0 34 35 10
0 38 147 129 0 141 +15 34 3 0 158 15 331 17 35 0 34 32 42 33 141 145 0 36 +17 10
0 0 34 42 72 67 96 101 0 147 +17 72 0 34 100 158 70 83 134 0 96 +17 158 0 34 72
 48 43 332 119 0 83 +17 83 0 78 80 79 43 72 134 0 0 -17 48 0 34 158 31 46 153 13
2 0 332 +17 332 0 313 127 45 46 158 119 0 333 -15 313 84 0 90 260 0 17 127 0 313
 90 332 64 333 91 0 88 +17 45 0 313 332 90 43 80 86 0 158 +17 333 0 319 153 66 4
6 127 91 0 0 -15 319 505 0 153 316 0 17 153 0 319 29 333 11 48 132 0 0 -17 66 0
 319 333 29 64 57 92 0 127 -17 29 0 319 66 153 55 24 30 0 0 -17 57 0 87 148 88 5
5 66 92 0 28 +17 88 0 87 57 63 64 90 109 0 0 -17 90 0 313 45 127 61 88 109 0 80
 +17 36 0 149 144 150 33 32 37 0 0 -15 331 115 0 334 15 335 17 334 0 331 334 334
 0 164 114 0 0 -15 335 191 0 336 15 337 17 336 0 335 336 336 0 176 168 0 0 -15 3
37 267 0 338 15 0 17 338 0 337 338 338 0 188 180 0 0 -17 188 0 339 188 188 0 338
 180 0 0 +15 339 281 0 188 317 340 14 317 278 341 ?84 294 339 5 342 +0 0 84 294
 21 15 340 282 0 343 317 0 17 343 0 340 343 343 0 185 183 0 0 -17 185 0 344 185
 185 0 343 183 0 0 +15 344 260 0 185 105 0 81 1 341 1552 290 317 345 0 326 346 3
47 14 294 240 346 ?317 286 348 5 349 +0 0 317 286 21 51 342 291 0 317 330 349 0
 --.0155 -.0155 .002032 0 0 -1 .0016 -1 0 0 51 330 628 0 324 350 342 0 +-.03 -86
5619758593247e-32 0 0 0 1 .0016 1 0 0 51 349 253 0 294 342 296 0 -.0155 -.0155 .
002032 0 0 -1 .0016 -1 0 0 51 296 215 0 286 349 289 0 -.0155 .0155 .002032 0 0 -
1 .0016 -1 0 0 51 350 666 0 328 351 330 0 +-.03 .015 0 0 0 1 .0016 1 0 0 14 328
 653 352 ?353 324 354 5 350 -0 0 353 324 21 51 351 704 0 353 355 350 0 +-.03 -.0
15 0 0 0 1 .0016 1 0 0 14 353 691 356 ?357 328 358 5 351 -0 0 357 328 21 51 355
 742 0 357 359 351 0 +.03 -.015 0 0 0 1 .0016 1 0 0 14 357 729 360 ?361 353 362
 5 355 -0 0 361 353 21 51 359 780 0 361 363 355 0 +.03 .015 0 0 0 1 .0016 1 0 0
 14 361 767 364 ?365 357 366 5 359 -0 0 365 357 21 51 363 818 0 365 367 359 0 +.
03 -1308316791048352e-33 0 0 0 1 .0016 1 0 0 14 365 805 368 ?369 361 370 5 363 -
0 0 369 361 21 51 367 898 0 369 371 363 0 +.0325 .005 .002032 0 0 -1 .0016 -1 0
 0 14 369 885 372 ?373 365 374 5 367 -0 0 373 365 21 51 371 936 0 373 375 367 0
 +.0325 -.005 .002032 0 0 -1 .0016 -1 0 0 14 373 923 376 ?254 369 377 5 371 -0 0
 254 369 21 51 375 974 0 254 255 371 0 +-.0325 -.005 .002032 0 0 -1 .0016 -1 0 0
 14 254 961 378 ?251 373 379 5 375 -0 0 251 373 21 51 255 1012 0 251 0 375 0 +-.
0325 .005 .002032 0 0 -1 .0016 -1 0 0 81 1 378 1561 290 254 380 0 376 0 381 15 3
79 964 0 382 254 383 17 382 0 379 382 382 0 242 234 0 0 -15 383 965 0 239 254 0
 17 239 0 383 239 239 0 262 237 0 0 +17 242 0 249 242 242 0 382 234 0 0 +15 249
 949 0 242 15 384 15 384 911 0 236 15 385 17 236 0 384 236 236 0 386 228 0 0 +15
 385 873 0 230 15 387 17 230 0 385 230 230 0 388 222 0 0 +15 387 793 0 389 15 39
0 17 389 0 387 389 389 0 221 219 0 0 -15 390 755 0 391 15 392 17 391 0 390 391 3
91 0 215 213 0 0 -15 392 717 0 393 15 394 17 393 0 392 393 393 0 209 207 0 0 -15
 394 679 0 395 15 396 17 395 0 394 395 395 0 203 201 0 0 -15 396 641 0 397 15 39
8 17 397 0 396 397 397 0 197 195 0 0 -15 398 603 0 399 15 400 17 399 0 398 399 3
99 0 191 189 0 0 -15 400 229 0 401 15 402 17 401 0 400 401 401 0 182 174 0 0 -15
 402 153 0 403 15 34 17 403 0 402 403 403 0 170 162 0 0 -17 170 0 288 170 170 0
 403 162 0 0 +17 182 0 348 182 182 0 401 174 0 0 +15 348 243 0 182 294 404 15 40
4 244 0 281 294 0 17 281 0 404 281 281 0 179 177 0 0 -17 191 0 405 191 191 0 399
 189 0 0 +15 405 619 0 191 324 0 17 197 0 406 197 197 0 397 195 0 0 +15 406 657
 0 197 328 0 17 203 0 407 203 203 0 395 201 0 0 +15 407 695 0 203 353 0 17 209 0
 408 209 209 0 393 207 0 0 +15 408 733 0 209 357 0 17 215 0 409 215 215 0 391 21
3 0 0 +15 409 771 0 215 361 0 17 221 0 410 221 221 0 389 219 0 0 +15 410 809 0 2
21 365 0 17 388 0 374 388 388 0 230 222 0 0 -15 374 888 0 388 369 411 15 411 889
 0 227 369 0 17 227 0 411 227 227 0 266 225 0 0 +17 386 0 377 386 386 0 236 228
 0 0 -15 377 926 0 386 373 412 15 412 927 0 233 373 0 17 233 0 412 233 233 0 264
 231 0 0 +80 255 1 290 413 414 9000 1 1 1 1 1 1 1 1 0 FFFFTFTFFFFFFF1 81 1 380 1
483 415 254 0 378 416 417 418 81 1 376 1560 290 373 416 0 372 378 419 82 255 1 3
81 1355874620 81 1 416 1482 415 373 0 376 420 380 421 81 1 372 1559 290 369 420
 0 368 376 422 82 1 419 1351942460 81 1 420 1481 415 369 0 372 423 416 424 81 1
 368 1558 290 365 423 0 364 372 425 82 1 422 1347944764 81 1 423 1480 415 365 0
 368 426 420 427 81 1 364 1557 290 361 426 0 360 368 428 82 1 425 1311244602 81
 1 426 1479 415 361 0 364 429 423 430 81 1 360 1556 290 357 429 0 356 364 431 82
 1 428 1307312442 81 1 429 1478 415 357 0 360 432 426 433 81 1 356 1555 290 353
 432 0 352 360 434 82 1 431 1303380282 81 1 432 1477 415 353 0 356 435 429 436 8
1 1 352 1554 290 328 435 0 346 356 437 82 1 434 1299448122 81 1 435 1476 415 328
 0 352 438 432 439 81 1 346 1553 290 294 440 0 341 352 441 82 1 437 1295515962 8
1 1 440 1469 415 294 0 346 442 345 443 82 1 441 1223360822 80 1 415 0 444 8001 0
 0 0 0 3 5 0 0 0 FFFFTFTFFFFFFF2 81 1 442 1468 415 286 0 292 291 440 445 81 1 34
5 1470 415 317 0 341 440 446 447 83 255 3 443 .796078431372549 .823529411764706
 .937254901960784 81 1 446 1471 415 84 0 315 345 448 449 83 3 447 .7960784313725
49 .823529411764706 .937254901960784 81 1 315 1547 290 84 446 0 312 318 450 81 1
 448 1472 415 316 0 318 446 321 451 83 3 449 .796078431372549 .823529411764706 .
937254901960784 81 1 318 1548 290 316 448 0 315 320 452 81 1 321 1473 415 151 0
 320 448 325 453 83 3 451 .796078431372549 .823529411764706 .937254901960784 81
 1 325 1474 415 17 0 322 321 438 454 83 3 453 .796078431372549 .823529411764706
 .937254901960784 81 1 438 1475 415 324 0 326 325 435 455 83 3 454 .796078431372
549 .823529411764706 .937254901960784 81 1 326 1551 290 324 438 0 322 341 456 83
 3 455 .796078431372549 .823529411764706 .937254901960784 82 1 456 1291518266 82
 1 452 1242956087 81 1 312 1546 290 260 457 0 310 315 458 82 1 450 1240990007 81
 1 457 1462 415 260 0 312 459 460 461 81 1 310 1545 290 97 460 0 308 312 462 82
 1 458 1206321463 81 1 460 1463 415 97 0 310 457 463 464 81 1 308 1544 290 143 4
63 0 303 310 465 82 1 462 1206059319 81 1 463 1464 415 143 0 308 460 466 467 81
 1 303 1543 290 152 466 0 300 308 468 82 1 465 1205797175 81 1 466 1465 415 152
 0 303 463 469 470 82 1 468 1205535031 81 1 469 1466 415 287 0 297 466 291 471 8
3 3 470 .796078431372549 .823529411764706 .937254901960784 81 1 297 1541 290 287
 469 0 292 300 472 81 1 291 1467 415 284 0 285 469 442 473 83 3 471 .79607843137
2549 .823529411764706 .937254901960784 83 3 473 .796078431372549 .82352941176470
6 .937254901960784 81 1 292 1540 290 286 442 0 285 297 474 82 1 472 1211171126 8
2 1 474 1219297590 83 3 467 .796078431372549 .823529411764706 .937254901960784 8
3 3 464 .796078431372549 .823529411764706 .937254901960784 81 1 459 1461 415 105
 0 259 302 457 475 83 3 461 .796078431372549 .823529411764706 .937254901960784 8
1 1 259 1538 290 105 459 0 253 285 476 81 1 302 1460 415 15 0 300 0 459 477 83 3
 475 .796078431372549 .823529411764706 .937254901960784 83 3 477 .79607843137254
9 .823529411764706 .937254901960784 81 1 253 1537 290 251 417 0 0 259 478 82 1 4
76 1234370876 81 1 417 1484 415 251 0 253 380 0 479 82 1 478 1359806780 83 3 479
 .796078431372549 .823529411764706 .937254901960784 83 3 445 .796078431372549 .8
23529411764706 .937254901960784 79 255 15 444 SDL/TYSA_COLOUR83 3 439 .796078431
372549 .823529411764706 .937254901960784 83 3 436 .796078431372549 .823529411764
706 .937254901960784 83 3 433 .796078431372549 .823529411764706 .937254901960784
 83 3 430 .796078431372549 .823529411764706 .937254901960784 83 3 427 .796078431
372549 .823529411764706 .937254901960784 83 3 424 .796078431372549 .823529411764
706 .937254901960784 83 3 421 .796078431372549 .823529411764706 .937254901960784
 83 3 418 .796078431372549 .823529411764706 .937254901960784 79 14 414 SWEntUnch
anged15 370 808 0 269 365 410 17 269 0 370 269 269 0 224 216 0 0 -15 366 770 0 2
71 361 409 17 271 0 366 271 271 0 218 210 0 0 -15 362 732 0 273 357 408 17 273 0
 362 273 273 0 212 204 0 0 -15 358 694 0 275 353 407 17 275 0 358 275 275 0 206
 198 0 0 -15 354 656 0 277 328 406 17 277 0 354 277 277 0 200 192 0 0 -82 1 347
 1227424054 17 176 0 295 176 176 0 336 168 0 0 +15 295 205 0 176 286 480 15 480
 206 0 481 286 0 17 481 0 480 481 481 0 173 171 0 0 -17 173 0 482 173 173 0 481
 171 0 0 +15 482 184 0 173 105 344 17 164 0 298 164 164 0 334 114 0 0 +15 298 12
9 0 164 287 483 15 483 130 0 484 287 0 17 484 0 483 484 484 0 161 159 0 0 -17 16
1 0 106 161 161 0 484 159 0 0 +15 106 108 0 161 105 482 17 54 0 146 142 99 52 75
 102 0 139 -17 69 0 94 96 95 67 99 103 0 100 +15 329 618 0 279 324 405 17 279 0
 329 279 279 0 194 186 0 0 -82 1 327 1246888247 82 1 323 1244922167 82 1 304 123
4895164 82 1 293 1215234358 17 22 0 140 141 111 33 144 10 0 35 +19 16 95 0 1 0 9
 5 S74 4 CI16 index_map_offset0 0 1 dCCZ20 14 3 0 0 378 2 417 0 0 0 0 0 0 0 0 0
 0 0 0 0 0 0 0 0 80 2 12 485 486 8004 0 0 0 0 3 5 0 0 0 FFTFFFFFFFFFFF2 3 83 1 1
3 1e3 79 16 486 SDL/TYSA_DENSITY1 0 
