  0
SECTION
  2
HEADER
  9
$ACADVER
  1
AC1009
  9
$DWGCODEPAGE
  3
ansi_1252
  9
$INSBASE
 10
0.0
 20
0.0
 30
0.0
  9
$EXTMIN
 10
0.0
 20
0.0
 30
0.0
  9
$EXTMAX
 10
431.8
 20
279.4
 30
0.0
  9
$LIMMIN
 10
0.0
 20
0.0
  9
$LIMMAX
 10
431.8
 20
279.4
  9
$ORTHOMODE
 70
     0
  9
$REGENMODE
 70
     1
  9
$FILLMODE
 70
     1
  9
$QTEXTMODE
 70
     0
  9
$MIRRTEXT
 70
     1
  9
$DRAGMODE
 70
     2
  9
$LTSCALE
 40
1.0
  9
$OSMODE
 70
    37
  9
$ATTMODE
 70
     1
  9
$TEXTSIZE
 40
3.5
  9
$TRACEWID
 40
1.0
  9
$TEXTSTYLE
  7
STANDARD
  9
$CLAYER
  8
0
  9
$CELTYPE
  6
BYLAYER
  9
$CECOLOR
 62
   256
  9
$DIMSCALE
 40
1.0
  9
$DIMASZ
 40
6.0
  9
$DIMEXO
 40
1.0
  9
$DIMDLI
 40
3.75
  9
$DIMRND
 40
0.0
  9
$DIMDLE
 40
0.0
  9
$DIMEXE
 40
1.0
  9
$DIMTP
 40
0.0
  9
$DIMTM
 40
0.0
  9
$DIMTXT
 40
3.5
  9
$DIMCEN
 40
2.5
  9
$DIMTSZ
 40
0.0
  9
$DIMTOL
 70
     0
  9
$DIMLIM
 70
     0
  9
$DIMTIH
 70
     1
  9
$DIMTOH
 70
     1
  9
$DIMSE1
 70
     0
  9
$DIMSE2
 70
     0
  9
$DIMTAD
 70
     1
  9
$DIMZIN
 70
     0
  9
$DIMBLK
  1

  9
$DIMASO
 70
     1
  9
$DIMSHO
 70
     1
  9
$DIMPOST
  1

  9
$DIMAPOST
  1

  9
$DIMALT
 70
     0
  9
$DIMALTD
 70
     3
  9
$DIMALTF
 40
0.0393700787
  9
$DIMLFAC
 40
1.0
  9
$DIMTOFL
 70
     1
  9
$DIMTVP
 40
0.0
  9
$DIMTIX
 70
     0
  9
$DIMSOXD
 70
     0
  9
$DIMSAH
 70
     0
  9
$DIMBLK1
  1

  9
$DIMBLK2
  1

  9
$DIMSTYLE
  2
ISO-25
  9
$DIMCLRD
 70
     0
  9
$DIMCLRE
 70
     0
  9
$DIMCLRT
 70
     0
  9
$DIMTFAC
 40
1.0
  9
$DIMGAP
 40
1.524
  9
$LUNITS
 70
     2
  9
$LUPREC
 70
     2
  9
$SKETCHINC
 40
1.0
  9
$FILLETRAD
 40
10.0
  9
$AUNITS
 70
     0
  9
$AUPREC
 70
     2
  9
$MENU
  1
.
  9
$ELEVATION
 40
0.0
  9
$PELEVATION
 40
0.0
  9
$THICKNESS
 40
0.0
  9
$LIMCHECK
 70
     0
  9
$CHAMFERA
 40
10.0
  9
$CHAMFERB
 40
10.0
  9
$SKPOLY
 70
     0
  9
$TDCREATE
 40
2456215.950445023
  9
$TDUPDATE
 40
2456215.950470162
  9
$TDINDWG
 40
0.0000000116
  9
$TDUSRTIMER
 40
0.0000000116
  9
$USRTIMER
 70
     1
  9
$ANGBASE
 50
0.0
  9
$ANGDIR
 70
     0
  9
$PDMODE
 70
     0
  9
$PDSIZE
 40
-1.0
  9
$PLINEWID
 40
0.0
  9
$COORDS
 70
     1
  9
$SPLFRAME
 70
     0
  9
$SPLINETYPE
 70
     6
  9
$SPLINESEGS
 70
     8
  9
$ATTDIA
 70
     0
  9
$ATTREQ
 70
     1
  9
$HANDLING
 70
     1
  9
$HANDSEED
  5
2FD
  9
$SURFTAB1
 70
     6
  9
$SURFTAB2
 70
     6
  9
$SURFTYPE
 70
     6
  9
$SURFU
 70
     6
  9
$SURFV
 70
     6
  9
$UCSNAME
  2

  9
$UCSORG
 10
0.0
 20
0.0
 30
0.0
  9
$UCSXDIR
 10
1.0
 20
0.0
 30
0.0
  9
$UCSYDIR
 10
0.0
 20
1.0
 30
0.0
  9
$PUCSNAME
  2

  9
$PUCSORG
 10
0.0
 20
0.0
 30
0.0
  9
$PUCSXDIR
 10
1.0
 20
0.0
 30
0.0
  9
$PUCSYDIR
 10
0.0
 20
1.0
 30
0.0
  9
$USERI1
 70
     0
  9
$USERI2
 70
     0
  9
$USERI3
 70
     0
  9
$USERI4
 70
     0
  9
$USERI5
 70
     0
  9
$USERR1
 40
0.0
  9
$USERR2
 40
0.0
  9
$USERR3
 40
0.0
  9
$USERR4
 40
0.0
  9
$USERR5
 40
0.0
  9
$WORLDVIEW
 70
     1
  9
$SHADEDGE
 70
     3
  9
$SHADEDIF
 70
    70
  9
$TILEMODE
 70
     1
  9
$MAXACTVP
 70
    64
  9
$PLIMCHECK
 70
     0
  9
$PEXTMIN
 10
1.0000000000E+20
 20
1.0000000000E+20
 30
1.0000000000E+20
  9
$PEXTMAX
 10
-1.0000000000E+20
 20
-1.0000000000E+20
 30
-1.0000000000E+20
  9
$PLIMMIN
 10
0.0
 20
0.0
  9
$PLIMMAX
 10
420.0
 20
297.0
  9
$UNITMODE
 70
     0
  9
$VISRETAIN
 70
     1
  9
$PLINEGEN
 70
     0
  9
$PSLTSCALE
 70
     1
  0
ENDSEC
  0
SECTION
  2
TABLES
  0
TABLE
  2
VPORT
 70
     1
  0
VPORT
  2
*ACTIVE
 70
     0
 10
0.0
 20
0.0
 11
1.0
 21
1.0
 12
215.9
 22
139.7
 13
0.0
 23
0.0
 14
10.0
 24
10.0
 15
10.0
 25
10.0
 16
0.0
 26
0.0
 36
1.0
 17
0.0
 27
0.0
 37
0.0
 40
279.4
 41
1.5454545455
 42
50.0
 43
0.0
 44
0.0
 50
0.0
 51
0.0
 71
     0
 72
  2000
 73
     1
 74
     3
 75
     0
 76
     0
 77
     0
 78
     0
  0
ENDTAB
  0
TABLE
  2
LTYPE
 70
     6
  0
LTYPE
  2
CONTINUOUS
 70
     0
  3
Solid line
 72
    65
 73
     0
 40
0.0
  0
LTYPE
  2
HIDDEN
 70
     0
  3
Hidden __ __ __ __ __ __ __ __ __ __ __ __ __ __
 72
    65
 73
     2
 40
1.905
 49
1.27
 49
-0.635
  0
LTYPE
  2
PHANTOM
 70
     0
  3
Phantom ______  __  __  ______  __  __  ______
 72
    65
 73
     6
 40
12.7
 49
6.35
 49
-1.27
 49
1.27
 49
-1.27
 49
1.27
 49
-1.27
  0
LTYPE
  2
CENTER
 70
     0
  3
Center ____ _ ____ _ ____ _ ____ _ ____ _ ____
 72
    65
 73
     4
 40
10.16
 49
6.35
 49
-1.27
 49
1.27
 49
-1.27
  0
LTYPE
  2
CENTERX2
 70
     0
  3
Center (2x) ________  __  ________  __  _____
 72
    65
 73
     4
 40
20.32
 49
12.7
 49
-2.54
 49
2.54
 49
-2.54
  0
LTYPE
  2
DOT2
 70
     0
  3
Dot (.5x) ........................................
 72
    65
 73
     2
 40
0.635
 49
0.0
 49
-0.635
  0
ENDTAB
  0
TABLE
  2
LAYER
 70
     2
  0
LAYER
  2
0
 70
     0
 62
     7
  6
CONTINUOUS
  0
LAYER
  2
FORMAT
 70
     0
 62
     7
  6
CONTINUOUS
  0
ENDTAB
  0
TABLE
  2
STYLE
 70
     1
  0
STYLE
  2
STANDARD
 70
     0
 40
0.0
 41
1.0
 50
0.0
 71
     0
 42
3.5
  3
txt
  4

  0
ENDTAB
  0
TABLE
  2
VIEW
 70
     0
  0
ENDTAB
  0
TABLE
  2
UCS
 70
     0
  0
ENDTAB
  0
TABLE
  2
APPID
 70
     1
  0
APPID
  2
ACAD
 70
     0
  0
ENDTAB
  0
TABLE
  2
DIMSTYLE
 70
     5
  0
DIMSTYLE
  2
ISO-25
 70
     0
  3

  4

  5

  6

  7

 40
1.0
 41
2.5
 42
0.625
 43
3.75
 44
1.25
 45
0.0
 46
0.0
 47
0.0
 48
0.0
140
2.5
141
2.5
142
0.0
143
0.0393700787
144
1.0
145
0.0
146
1.0
147
0.625
 71
     0
 72
     0
 73
     0
 74
     0
 75
     0
 76
     0
 77
     1
 78
     8
170
     0
171
     3
172
     1
173
     0
174
     0
175
     0
176
     0
177
     0
178
     0
  0
DIMSTYLE
  2
SLDDIMSTYLE0
 70
     0
  3

  4

  5

  6
NONE
  7
CLOSED
 40
1.0
 41
6.0
 42
0.0625
 43
0.38
 44
0.0
 45
0.000000001
 46
0.0
 47
0.0
 48
0.0
140
3.5
141
0.0
142
0.0
143
25.4
144
1.0
145
0.0
146
1.0
147
0.875
 71
     0
 72
     0
 73
     1
 74
     1
 75
     0
 76
     0
 77
     0
 78
     4
170
     0
171
     2
172
     1
173
     1
174
     0
175
     0
176
     0
177
     0
178
     0
  0
DIMSTYLE
  2
SLDDIMSTYLE1
 70
     0
  3

  4

  5

  6
CLOSED
  7
CLOSED
 40
1.0
 41
6.0
 42
0.0625
 43
0.38
 44
0.0
 45
0.000000001
 46
0.0
 47
0.0
 48
0.0
140
3.5
141
0.09
142
0.0
143
25.4
144
1.0
145
0.0
146
1.0
147
0.875
 71
     0
 72
     0
 73
     0
 74
     0
 75
     0
 76
     0
 77
     1
 78
     4
170
     0
171
     2
172
     0
173
     1
174
     0
175
     0
176
     0
177
     0
178
     0
  0
DIMSTYLE
  2
SLDDIMSTYLE2
 70
     0
  3

  4

  5

  6
CLOSED
  7
CLOSED
 40
1.0
 41
6.0
 42
0.0625
 43
0.38
 44
0.0
 45
0.000000001
 46
0.0
 47
0.0
 48
0.0
140
3.5
141
0.09
142
0.0
143
25.4
144
1.0
145
0.0
146
1.0
147
0.875
 71
     0
 72
     0
 73
     0
 74
     0
 75
     0
 76
     0
 77
     1
 78
     4
170
     0
171
     2
172
     0
173
     1
174
     0
175
     0
176
     0
177
     0
178
     0
  0
DIMSTYLE
  2
SLDDIMSTYLE3
 70
     0
  3

  4

  5

  6
CLOSED
  7
CLOSED
 40
1.0
 41
6.0
 42
0.0625
 43
0.38
 44
0.0
 45
0.000000001
 46
0.0
 47
0.0
 48
0.0
140
3.5
141
0.09
142
0.0
143
25.4
144
1.0
145
0.0
146
1.0
147
0.875
 71
     0
 72
     0
 73
     1
 74
     1
 75
     0
 76
     0
 77
     0
 78
    12
170
     0
171
     2
172
     1
173
     1
174
     0
175
     0
176
     0
177
     0
178
     0
  0
ENDTAB
  0
ENDSEC
  0
SECTION
  2
BLOCKS
  0
BLOCK
  8
0
  2
$MODEL_SPACE
 70
     0
 10
0.0
 20
0.0
 30
0.0
  3
$MODEL_SPACE
  1

  0
ENDBLK
  5
21
  8
0
  0
BLOCK
 67
     1
  8
0
  2
$PAPER_SPACE
 70
     0
 10
0.0
 20
0.0
 30
0.0
  3
$PAPER_SPACE
  1

  0
ENDBLK
  5
1D
 67
     1
  8
0
  0
BLOCK
  8
0
  2
SW_NOTE_0
 70
     0
 10
0.0
 20
0.0
 30
0.0
  3
SW_NOTE_0
  1

  0
TEXT
  5
B1
  8
0
  6
CONTINUOUS
 62
     0
 10
0.0
 20
1.3686043715
 30
0.0
 40
2.6458333333
  1
NOTES:
 41
0.7
 11
0.0
 21
0.0
 31
0.0
 73
     1
  0
TEXT
  5
B2
  8
0
  6
CONTINUOUS
 62
     0
 10
0.0
 20
-5.6869510988
 30
0.0
 40
2.6458333333
  1
UNLESS OTHERWISE SPECIFIED:
 41
0.6740740741
 11
0.0
 21
-7.0555554703
 31
0.0
 73
     1
  0
TEXT
  5
B3
  8
0
  6
CONTINUOUS
 62
     0
 10
9.9999997765
 20
-12.7425065691
 30
0.0
 40
2.6458333333
  1
CAD:  
 41
0.5833333333
 11
9.9999997765
 21
-14.1111109406
 31
0.0
 73
     1
  0
TEXT
  5
B4
  8
0
  6
CONTINUOUS
 62
     0
 10
20.7793209702
 20
-12.7425065691
 30
0.0
 40
2.6458333333
  1
USE TL400-000108-001.DXF FOR TOOLING 
 41
0.6621621622
 11
20.7793209702
 21
-14.1111109406
 31
0.0
 73
     1
  0
TEXT
  5
B5
  8
0
  6
CONTINUOUS
 62
     0
 10
0.0
 20
-12.7425065691
 30
0.0
 40
2.6458333333
  1
1.
 41
0.7
 11
0.0
 21
-14.1111109406
 31
0.0
 73
     1
  0
TEXT
  5
B6
  8
0
  6
CONTINUOUS
 62
     0
 10
9.9999997765
 20
-16.2702843042
 30
0.0
 40
2.6458333333
  1
AND MANUFACTURE.  THIS DRAWING  WAS 
 41
0.6319444444
 11
9.9999997765
 21
-17.6388886757
 31
0.0
 73
     1
  0
TEXT
  5
B7
  8
0
  6
CONTINUOUS
 62
     0
 10
9.9999997765
 20
-19.7980620394
 30
0.0
 40
2.6458333333
  1
GENERATED FROM A CAD DATABASE. QUERY 
 41
0.6432432432
 11
9.9999997765
 21
-21.1666664109
 31
0.0
 73
     1
  0
TEXT
  5
B8
  8
0
  6
CONTINUOUS
 62
     0
 10
9.9999997765
 20
-23.3258397745
 30
0.0
 40
2.6458333333
  1
CAD FILE FOR BASIC DIMENSIONS.  IF A 
 41
0.6243243243
 11
9.9999997765
 21
-24.694444146
 31
0.0
 73
     1
  0
TEXT
  5
B9
  8
0
  6
CONTINUOUS
 62
     0
 10
9.9999997765
 20
-26.8536175097
 30
0.0
 40
2.6458333333
  1
CONFLICT EXISTS BETWEEN THIS DOCUMENT 
 41
0.6539473684
 11
9.9999997765
 21
-28.2222218812
 31
0.0
 73
     1
  0
TEXT
  5
BA
  8
0
  6
CONTINUOUS
 62
     0
 10
9.9999997765
 20
-30.3813952448
 30
0.0
 40
2.6458333333
  1
AND ANY REFERENCED DOCUMENT, THIS ONE 
 41
0.6447368421
 11
9.9999997765
 21
-31.7499996163
 31
0.0
 73
     1
  0
TEXT
  5
BB
  8
0
  6
CONTINUOUS
 62
     0
 10
9.9999997765
 20
-33.90917298
 30
0.0
 40
2.6458333333
  1
TAKES PRECEDENCE.  
 41
0.6447368421
 11
9.9999997765
 21
-35.2777773514
 31
0.0
 73
     1
  0
TEXT
  5
BC
  8
0
  6
CONTINUOUS
 62
     0
 10
9.9999997765
 20
-40.9647284502
 30
0.0
 40
2.6458333333
  1
DIMENSIONING:  
 41
0.6533333333
 11
9.9999997765
 21
-42.3333328217
 31
0.0
 73
     1
  0
TEXT
  5
BD
  8
0
  6
CONTINUOUS
 62
     0
 10
39.3981486559
 20
-40.9647284502
 30
0.0
 40
2.6458333333
  1
ALL DIMENSIONS ARE IN MM.  
 41
0.6222222222
 11
39.3981486559
 21
-42.3333328217
 31
0.0
 73
     1
  0
TEXT
  5
BE
  8
0
  6
CONTINUOUS
 62
     0
 10
0.0
 20
-40.9647284502
 30
0.0
 40
2.6458333333
  1
2.
 41
0.7
 11
0.0
 21
-42.3333328217
 31
0.0
 73
     1
  0
TEXT
  5
BF
  8
0
  6
CONTINUOUS
 62
     0
 10
9.9999997765
 20
-44.4925061854
 30
0.0
 40
2.6458333333
  1
DIMENSIONING AND TOLERANCING ARE PER 
 41
0.6527027027
 11
9.9999997765
 21
-45.8611105569
 31
0.0
 73
     1
  0
TEXT
  5
C0
  8
0
  6
CONTINUOUS
 62
     0
 10
9.9999997765
 20
-48.0202839205
 30
0.0
 40
2.6458333333
  1
ASME Y14.5-1994.
 41
0.7
 11
9.9999997765
 21
-49.388888292
 31
0.0
 73
     1
  0
TEXT
  5
C1
  8
0
  6
CONTINUOUS
 62
     0
 10
9.9999997765
 20
-55.0758393908
 30
0.0
 40
2.6458333333
  1
TOLERANCES:  
 41
0.6461538462
 11
9.9999997765
 21
-56.4444437623
 31
0.0
 73
     1
  0
TEXT
  5
C2
  8
0
  6
CONTINUOUS
 62
     0
 10
37.4382715672
 20
-55.0758393908
 30
0.0
 40
2.6458333333
  1
UNLESS OTHERWISE STATED, 
 41
0.658
 11
37.4382715672
 21
-56.4444437623
 31
0.0
 73
     1
  0
TEXT
  5
C3
  8
0
  6
CONTINUOUS
 62
     0
 10
0.0
 20
-55.0758393908
 30
0.0
 40
2.6458333333
  1
3.
 41
0.7
 11
0.0
 21
-56.4444437623
 31
0.0
 73
     1
  0
TEXT
  5
C4
  8
0
  6
CONTINUOUS
 62
     0
 10
9.9999997765
 20
-58.603617126
 30
0.0
 40
2.6458333333
  1
FEATURE SIZE AND POSITIONAL TOLERANCES 
 41
0.6551282051
 11
9.9999997765
 21
-59.9722214974
 31
0.0
 73
     1
  0
TEXT
  5
C5
  8
0
  6
CONTINUOUS
 62
     0
 10
9.9999997765
 20
-62.1313948611
 30
0.0
 40
2.6458333333
  1
ARE AS FOLLOWS:
 41
0.6533333333
 11
9.9999997765
 21
-63.4999992326
 31
0.0
 73
     1
  0
TEXT
  5
C6
  8
0
  6
CONTINUOUS
 62
     0
 10
0.0
 20
-69.6808392492
 30
0.0
 40
2.6458333333
  1
     X       
 41
0.3769230769
 11
0.0
 21
-71.0494436207
 31
0.0
 73
     1
  0
TEXT
  5
C7
  8
0
  6
CONTINUOUS
 62
     0
 10
27.5166667998
 20
-69.6187850623
 30
0.0
 40
3.175
  1
± 0.50 MM
 41
0.6222222222
 11
27.5166667998
 21
-71.2611103081
 31
0.0
 73
     1
  0
TEXT
  5
C8
  8
0
  6
CONTINUOUS
 62
     0
 10
0.0
 20
-73.9141725314
 30
0.0
 40
2.6458333333
  1
     X.X     
 41
0.4307692308
 11
0.0
 21
-75.2827769029
 31
0.0
 73
     1
  0
TEXT
  5
C9
  8
0
  6
CONTINUOUS
 62
     0
 10
27.5166667998
 20
-73.8521183445
 30
0.0
 40
3.175
  1
± 0.50 MM 
 41
0.595
 11
27.5166667998
 21
-75.4944435903
 31
0.0
 73
     1
  0
TEXT
  5
CA
  8
0
  6
CONTINUOUS
 62
     0
 10
0.0
 20
-78.1475058136
 30
0.0
 40
2.6458333333
  1
     X.XX    
 41
0.4576923077
 11
0.0
 21
-79.5161101851
 31
0.0
 73
     1
  0
TEXT
  5
CB
  8
0
  6
CONTINUOUS
 62
     0
 10
27.5166667998
 20
-78.0854516267
 30
0.0
 40
3.175
  1
± 0.50 MM
 41
0.6222222222
 11
27.5166667998
 21
-79.7277768725
 31
0.0
 73
     1
  0
TEXT
  5
CC
  8
0
  6
CONTINUOUS
 62
     0
 10
0.0
 20
-82.3808390958
 30
0.0
 40
2.6458333333
  1
     ANGLES  
 41
0.5115384615
 11
0.0
 21
-83.7494434672
 31
0.0
 73
     1
  0
TEXT
  5
CD
  8
0
  6
CONTINUOUS
 62
     0
 10
27.5166667998
 20
-82.3187849089
 30
0.0
 40
3.175
  1
± 2°
 41
0.7
 11
27.5166667998
 21
-83.9611101546
 31
0.0
 73
     1
  0
TEXT
  5
CE
  8
0
  6
CONTINUOUS
 62
     0
 10
0.0
 20
-86.6141723779
 30
0.0
 40
2.6458333333
  1
     ALL BEND POSITIONS: 
 41
0.588
 11
0.0
 21
-87.9827767494
 31
0.0
 73
     1
  0
TEXT
  5
CF
  8
0
  6
CONTINUOUS
 62
     0
 10
52.9166646302
 20
-86.552118191
 30
0.0
 40
3.175
  1
±
 41
0.7
 11
52.9166646302
 21
-88.1944434368
 31
0.0
 73
     1
  0
TEXT
  5
D0
  8
0
  6
CONTINUOUS
 62
     0
 10
55.4566644132
 20
-86.6141723779
 30
0.0
 40
2.6458333333
  1
 0.50 MM  
 41
0.56
 11
55.4566644132
 21
-87.9827767494
 31
0.0
 73
     1
  0
TEXT
  5
D1
  8
0
  6
CONTINUOUS
 62
     0
 10
9.9999997765
 20
-94.5869500244
 30
0.0
 40
2.6458333333
  1
MATERIAL: 
 41
0.7
 11
9.9999997765
 21
-95.9555543959
 31
0.0
 73
     1
  0
TEXT
  5
D2
  8
0
  6
CONTINUOUS
 62
     0
 10
30.3827170283
 20
-94.5869500244
 30
0.0
 40
2.6458333333
  1
 ALUMINUM, 5052H32, 2MM THICK.
 41
0.6533333333
 11
30.3827170283
 21
-95.9555543959
 31
0.0
 73
     1
  0
TEXT
  5
D3
  8
0
  6
CONTINUOUS
 62
     0
 10
0.0
 20
-94.5869500244
 30
0.0
 40
2.6458333333
  1
4.
 41
0.7
 11
0.0
 21
-95.9555543959
 31
0.0
 73
     1
  0
TEXT
  5
D4
  8
0
  6
CONTINUOUS
 62
     0
 10
9.9999997765
 20
-101.6425054947
 30
0.0
 40
2.6458333333
  1
FINISH: 
 41
0.7
 11
9.9999997765
 21
-103.0111098662
 31
0.0
 73
     1
  0
TEXT
  5
D5
  8
0
  6
CONTINUOUS
 62
     0
 10
23.7191356719
 20
-101.6425054947
 30
0.0
 40
2.6458333333
  1
 ANODIZE PER MIL-A-8625 TYPE II B.  DYE 
 41
0.62125
 11
23.7191356719
 21
-103.0111098662
 31
0.0
 73
     1
  0
TEXT
  5
D6
  8
0
  6
CONTINUOUS
 62
     0
 10
0.0
 20
-101.6425054947
 30
0.0
 40
2.6458333333
  1
5.
 41
0.7
 11
0.0
 21
-103.0111098662
 31
0.0
 73
     1
  0
TEXT
  5
D7
  8
0
  6
CONTINUOUS
 62
     0
 10
9.9999997765
 20
-105.1702832299
 30
0.0
 40
2.6458333333
  1
BLACK AND SEAL DYE LAYER AFTER ANODIZING. 
 41
0.6416666667
 11
9.9999997765
 21
-106.5388876013
 31
0.0
 73
     1
  0
TEXT
  5
D8
  8
0
  6
CONTINUOUS
 62
     0
 10
9.9999997765
 20
-112.2258387002
 30
0.0
 40
2.6458333333
  1
PART CLEANINESS: 
 41
0.6588235294
 11
9.9999997765
 21
-113.5944430716
 31
0.0
 73
     1
  0
TEXT
  5
D9
  8
0
  6
CONTINUOUS
 62
     0
 10
45.4737674445
 20
-112.2258387002
 30
0.0
 40
2.6458333333
  1
 REMOVE ALL BURRS & 
 41
0.6125
 11
45.4737674445
 21
-113.5944430716
 31
0.0
 73
     1
  0
TEXT
  5
DA
  8
0
  6
CONTINUOUS
 62
     0
 10
0.0
 20
-112.2258387002
 30
0.0
 40
2.6458333333
  1
6.
 41
0.7
 11
0.0
 21
-113.5944430716
 31
0.0
 73
     1
  0
TEXT
  5
DB
  8
0
  6
CONTINUOUS
 62
     0
 10
9.9999997765
 20
-115.7536164353
 30
0.0
 40
2.6458333333
  1
SHARP CORNERS. CLEAN OFF ALL OILS, DIRT, 
 41
0.6402439024
 11
9.9999997765
 21
-117.1222208068
 31
0.0
 73
     1
  0
TEXT
  5
DC
  8
0
  6
CONTINUOUS
 62
     0
 10
9.9999997765
 20
-119.2813941704
 30
0.0
 40
2.6458333333
  1
OR OTHER CONTAMINANTS
 41
0.6666666667
 11
9.9999997765
 21
-120.6499985419
 31
0.0
 73
     1
  0
TEXT
  5
DD
  8
0
  6
CONTINUOUS
 62
     0
 10
9.9999997765
 20
-126.3369496407
 30
0.0
 40
2.6458333333
  1
INSPECTION DIMENSIONS: 
 41
0.6695652174
 11
9.9999997765
 21
-127.7055540122
 31
0.0
 73
     1
  0
TEXT
  5
DE
  8
0
  6
CONTINUOUS
 62
     0
 10
57.0370387286
 20
-126.3369496407
 30
0.0
 40
2.6458333333
  1
 DIMENSIONS IN 
 41
0.63
 11
57.0370387286
 21
-127.7055540122
 31
0.0
 73
     1
  0
TEXT
  5
DF
  8
0
  6
CONTINUOUS
 62
     0
 10
0.0
 20
-126.3369496407
 30
0.0
 40
2.6458333333
  1
7.
 41
0.7
 11
0.0
 21
-127.7055540122
 31
0.0
 73
     1
  0
TEXT
  5
E0
  8
0
  6
CONTINUOUS
 62
     0
 10
9.9999997765
 20
-129.8647273759
 30
0.0
 40
2.6458333333
  1
OVALS SHALL BE INSPECTED AT INCOMING 
 41
0.6432432432
 11
9.9999997765
 21
-131.2333317474
 31
0.0
 73
     1
  0
TEXT
  5
E1
  8
0
  6
CONTINUOUS
 62
     0
 10
9.9999997765
 20
-133.392505111
 30
0.0
 40
2.6458333333
  1
INSPECTION.  
 41
0.6461538462
 11
9.9999997765
 21
-134.7611094825
 31
0.0
 73
     1
  0
TEXT
  5
E2
  8
0
  6
CONTINUOUS
 62
     0
 10
9.9999997765
 20
-140.4480605813
 30
0.0
 40
2.6458333333
  1
RoHS COMPLIANCE:  
 41
0.6416666667
 11
9.9999997765
 21
-141.8166649528
 31
0.0
 73
     1
  0
TEXT
  5
E3
  8
0
  6
CONTINUOUS
 62
     0
 10
47.4336426705
 20
-140.4480605813
 30
0.0
 40
2.6458333333
  1
THIS  COMPONENT SHALL 
 41
0.6363636364
 11
47.4336426705
 21
-141.8166649528
 31
0.0
 73
     1
  0
TEXT
  5
E4
  8
0
  6
CONTINUOUS
 62
     0
 10
0.0
 20
-140.4480605813
 30
0.0
 40
2.6458333333
  1
8.
 41
0.7
 11
0.0
 21
-141.8166649528
 31
0.0
 73
     1
  0
TEXT
  5
E5
  8
0
  6
CONTINUOUS
 62
     0
 10
9.9999997765
 20
-143.9758383165
 30
0.0
 40
2.6458333333
  1
COMPLY WITH THE EU 2002/95/EC (RoHS) AND EU 
 41
0.6363636364
 11
9.9999997765
 21
-145.3444426879
 31
0.0
 73
     1
  0
TEXT
  5
E6
  8
0
  6
CONTINUOUS
 62
     0
 10
9.9999997765
 20
-147.5036160516
 30
0.0
 40
2.6458333333
  1
2002/96/EC (WEEE) DIRECTIVES
 41
0.675
 11
9.9999997765
 21
-148.8722204231
 31
0.0
 73
     1
  0
TEXT
  5
E7
  8
0
  6
CONTINUOUS
 62
     0
 10
9.9999997765
 20
-154.5591715219
 30
0.0
 40
2.6458333333
  1
CONTROLLED DRAWING: 
 41
0.665
 11
9.9999997765
 21
-155.9277758934
 31
0.0
 73
     1
  0
TEXT
  5
E8
  8
0
  6
CONTINUOUS
 62
     0
 10
54.8811722547
 20
-154.5591715219
 30
0.0
 40
2.6458333333
  1
 NO CHANGES TO THIS 
 41
0.6125
 11
54.8811722547
 21
-155.9277758934
 31
0.0
 73
     1
  0
TEXT
  5
E9
  8
0
  6
CONTINUOUS
 62
     0
 10
0.0
 20
-154.5591715219
 30
0.0
 40
2.6458333333
  1
9.
 41
0.7
 11
0.0
 21
-155.9277758934
 31
0.0
 73
     1
  0
TEXT
  5
EA
  8
0
  6
CONTINUOUS
 62
     0
 10
9.9999997765
 20
-158.086949257
 30
0.0
 40
2.6458333333
  1
DRAWING ALLOWED WITHOUT PRIOR APPROVAL 
 41
0.6551282051
 11
9.9999997765
 21
-159.4555536285
 31
0.0
 73
     1
  0
TEXT
  5
EB
  8
0
  6
CONTINUOUS
 62
     0
 10
9.9999997765
 20
-161.6147269922
 30
0.0
 40
2.6458333333
  1
FROM TAM LABS, LLC.
 41
0.6447368421
 11
9.9999997765
 21
-162.9833313636
 31
0.0
 73
     1
  0
ENDBLK
  5
B0
  8
0
  0
BLOCK
  8
0
  2
SW_NOTE_1
 70
     0
 10
0.0
 20
0.0
 30
0.0
  3
SW_NOTE_1
  1

  0
TEXT
  5
F2
  8
0
  6
CONTINUOUS
 62
     0
 10
0.0
 20
0.8211626229
 30
0.0
 40
1.5875
  1
REFER TO NOTES FOR 
 41
0.6263157895
 11
0.0
 21
0.0
 31
0.0
 73
     1
  0
TEXT
  5
F3
  8
0
  6
CONTINUOUS
 62
     0
 10
0.0
 20
-1.2955040182
 30
0.0
 40
1.5875
  1
TOLERANCE INFORMATION.
 41
0.7
 11
0.0
 21
-2.1166666411
 31
0.0
 73
     1
  0
ENDBLK
  5
F1
  8
0
  0
BLOCK
  8
0
  2
SW_NOTE_2
 70
     0
 10
0.0
 20
0.0
 30
0.0
  3
SW_NOTE_2
  1

  0
TEXT
  5
10A
  8
0
  6
CONTINUOUS
 62
     0
 10
0.0
 20
0.8211626229
 30
0.0
 40
1.5875
  1
COPYRIGHT ©
 41
0.7
 11
0.0
 21
0.0
 31
0.0
 73
     1
  0
TEXT
  5
10B
  8
0
  6
CONTINUOUS
 62
     0
 10
16.151342541
 20
0.8211626229
 30
0.0
 40
1.5875
  1
TAM LABS LLC
 41
0.6416666667
 11
16.151342541
 21
0.0
 31
0.0
 73
     1
  0
ENDBLK
  5
109
  8
0
  0
BLOCK
  8
0
  2
SW_NOTE_3
 70
     0
 10
0.0
 20
0.0
 30
0.0
  3
SW_NOTE_3
  1

  0
TEXT
  5
110
  8
0
  6
CONTINUOUS
 62
     0
 10
0.0
 20
0.6843021857
 30
0.0
 40
1.3229166667
  1
The CAD and 3D data files, drawings, designs, specifications and engineering information in this 
 41
0.6494845361
 11
0.0
 21
0.0
 31
0.0
 73
     1
  0
TEXT
  5
111
  8
0
  6
CONTINUOUS
 62
     0
 10
0.0
 20
-1.0795866818
 30
0.0
 40
1.3229166667
  1
drawing is the exclusive proprietary property of Tam Labs, LLC and are not to be disseminated 
 41
0.6404255319
 11
0.0
 21
-1.7638888676
 31
0.0
 73
     1
  0
TEXT
  5
112
  8
0
  6
CONTINUOUS
 62
     0
 10
0.0
 20
-2.8434755494
 30
0.0
 40
1.3229166667
  1
without prior written permission from Tam Labs, LLC.  It is disclosed with the understanding that 
 41
0.6428571429
 11
0.0
 21
-3.5277777351
 31
0.0
 73
     1
  0
TEXT
  5
113
  8
0
  6
CONTINUOUS
 62
     0
 10
0.0
 20
-4.607364417
 30
0.0
 40
1.3229166667
  1
acceptance or review by the recipient constitutes an undertaking by the recipient: 1) to hold this 
 41
0.6434343434
 11
0.0
 21
-5.2916666027
 31
0.0
 73
     1
  0
TEXT
  5
114
  8
0
  6
CONTINUOUS
 62
     0
 10
0.0
 20
-6.3712532845
 30
0.0
 40
1.3229166667
  1
information in strict confidence and 2) not to disclose, copy or use the information in whole or part 
 41
0.6382352941
 11
0.0
 21
-7.0555554703
 31
0.0
 73
     1
  0
TEXT
  5
115
  8
0
  6
CONTINUOUS
 62
     0
 10
0.0
 20
-8.1351421521
 30
0.0
 40
1.3229166667
  1
for any purpose other than which disclosed.  
 41
0.6377777778
 11
0.0
 21
-8.8194443379
 31
0.0
 73
     1
  0
ENDBLK
  5
10F
  8
0
  0
BLOCK
  8
0
  2
_NONE
 70
     0
 10
0.0
 20
0.0
 30
0.0
  3
_NONE
  1

  0
ENDBLK
  5
15D
  8
0
  0
BLOCK
  8
0
  2
_CLOSED
 70
     0
 10
0.0
 20
0.0
 30
0.0
  3
_CLOSED
  1

  0
LINE
  5
161
  8
0
  6
BYBLOCK
 62
     0
 10
-1.0
 20
0.166667
 30
0.0
 11
0.0
 21
0.0
 31
0.0
  0
LINE
  5
162
  8
0
  6
BYBLOCK
 62
     0
 10
0.0
 20
0.0
 30
0.0
 11
-1.0
 21
-0.166667
 31
0.0
  0
LINE
  5
163
  8
0
  6
BYBLOCK
 62
     0
 10
-1.0
 20
0.166667
 30
0.0
 11
-1.0
 21
-0.166667
 31
0.0
  0
LINE
  5
164
  8
0
  6
BYBLOCK
 62
     0
 10
0.0
 20
0.0
 30
0.0
 11
-1.0
 21
0.0
 31
0.0
  0
ENDBLK
  5
160
  8
0
  0
BLOCK
  8
0
  2
_D
 70
     0
 10
0.0
 20
0.0
 30
0.0
  3
_D
  1

  0
INSERT
  5
168
  8
0
  6
CONTINUOUS
 62
     7
  2
_CLOSED
 10
218.4225153339
 20
139.3282823546
 30
-0.9
 41
6.0
 42
6.0
 50
225.2468218521
  0
LINE
  5
169
  8
0
  6
CONTINUOUS
 62
     7
 10
218.4225153339
 20
139.3282823546
 30
0.0
 11
232.1831334898
 21
153.2079716558
 31
0.0
  0
LINE
  5
16A
  8
0
  6
CONTINUOUS
 62
     7
 10
216.1695421603
 20
137.0558141196
 30
0.0
 11
218.4225153339
 21
139.3282823546
 31
0.0
  0
LINE
  5
16B
  8
0
  6
CONTINUOUS
 62
     7
 10
232.1831334898
 20
153.2079716558
 30
0.0
 11
273.1011569509
 21
153.2079716558
 31
0.0
  0
TEXT
  5
16C
  8
0
  6
CONTINUOUS
 62
     7
 10
233.7706334898
 20
155.0184089346
 30
-0.9
 40
3.5
  1
%%c
 41
0.7
 11
233.7706334898
 21
153.2079716558
 31
-0.9
 73
     1
  0
TEXT
  5
16D
  8
0
  6
CONTINUOUS
 62
     7
 10
239.0490708882
 20
155.0718811112
 30
-0.9
 40
3.5
  1
3.20
 41
0.7
 11
239.0490708882
 21
153.2614438324
 31
-0.9
 73
     1
  0
TEXT
  5
16E
  8
0
  6
CONTINUOUS
 62
     7
 10
250.9442105899
 20
155.0718811112
 30
-0.9
 40
3.5
  1
 5 PLACES
 41
0.6222222222
 11
250.9442105899
 21
153.2614438324
 31
-0.9
 73
     1
  0
ENDBLK
  5
167
  8
0
  0
BLOCK
  8
0
  2
_D_1
 70
     0
 10
0.0
 20
0.0
 30
0.0
  3
_D_1
  1

  0
INSERT
  5
174
  8
0
  6
CONTINUOUS
 62
     7
  2
_CLOSED
 10
224.5460287471
 20
123.0624002618
 30
-0.9
 41
6.0
 42
6.0
 50
0.0
  0
INSERT
  5
175
  8
0
  6
CONTINUOUS
 62
     7
  2
_CLOSED
 10
180.0460287471
 20
123.0624002618
 30
-0.9
 41
6.0
 42
6.0
 50
180.0
  0
LINE
  5
176
  8
0
  6
CONTINUOUS
 62
     7
 10
224.5460287471
 20
134.9420482371
 30
0.0
 11
224.5460287471
 21
122.0624002618
 31
0.0
  0
LINE
  5
177
  8
0
  6
CONTINUOUS
 62
     7
 10
180.0460287471
 20
134.9420482371
 30
0.0
 11
180.0460287471
 21
122.0624002618
 31
0.0
  0
LINE
  5
178
  8
0
  6
CONTINUOUS
 62
     7
 10
224.5460287471
 20
123.0624002618
 30
0.0
 11
180.0460287471
 21
123.0624002618
 31
0.0
  0
TEXT
  5
179
  8
0
  6
CONTINUOUS
 62
     7
 10
193.6862329603
 20
124.872837366
 30
-0.9
 40
3.5
  1
44.500
 50
0.0
 41
0.7
 11
193.6862329603
 21
123.0624000871
 31
-0.9
 73
     1
  0
ENDBLK
  5
173
  8
0
  0
BLOCK
  8
0
  2
_D_2
 70
     0
 10
0.0
 20
0.0
 30
0.0
  3
_D_2
  1

  0
INSERT
  5
17F
  8
0
  6
CONTINUOUS
 62
     7
  2
_CLOSED
 10
170.0460287471
 20
130.9420482371
 30
-0.9
 41
6.0
 42
6.0
 50
270.0
  0
INSERT
  5
180
  8
0
  6
CONTINUOUS
 62
     7
  2
_CLOSED
 10
170.0460287471
 20
175.4420482371
 30
-0.9
 41
6.0
 42
6.0
 50
90.0
  0
LINE
  5
181
  8
0
  6
CONTINUOUS
 62
     7
 10
184.0460287471
 20
130.9420482371
 30
0.0
 11
169.0460287471
 21
130.9420482371
 31
0.0
  0
LINE
  5
182
  8
0
  6
CONTINUOUS
 62
     7
 10
199.0460287471
 20
175.4420482371
 30
0.0
 11
169.0460287471
 21
175.4420482371
 31
0.0
  0
LINE
  5
183
  8
0
  6
CONTINUOUS
 62
     7
 10
170.0460287471
 20
130.9420482371
 30
0.0
 11
170.0460287471
 21
175.4420482371
 31
0.0
  0
TEXT
  5
184
  8
0
  6
CONTINUOUS
 62
     7
 10
168.2355916429
 20
142.7649354998
 30
-0.9
 40
3.5
  1
44.50
 50
90.0
 41
0.7
 11
170.0460289217
 21
142.7649354998
 31
-0.9
 73
     1
  0
ENDBLK
  5
17E
  8
0
  0
BLOCK
  8
0
  2
_D_3
 70
     0
 10
0.0
 20
0.0
 30
0.0
  3
_D_3
  1

  0
INSERT
  5
189
  8
0
  6
CONTINUOUS
 62
     7
  2
_CLOSED
 10
195.0460287471
 20
178.1591978541
 30
-0.9
 41
6.0
 42
6.0
 50
180.0
  0
INSERT
  5
18A
  8
0
  6
CONTINUOUS
 62
     7
  2
_CLOSED
 10
209.5460287471
 20
178.1591978541
 30
-0.9
 41
6.0
 42
6.0
 50
0.0
  0
LINE
  5
18B
  8
0
  6
CONTINUOUS
 62
     7
 10
195.0460287471
 20
171.4420482371
 30
0.0
 11
195.0460287471
 21
179.1591978541
 31
0.0
  0
LINE
  5
18C
  8
0
  6
CONTINUOUS
 62
     7
 10
209.5460287471
 20
171.4420482371
 30
0.0
 11
209.5460287471
 21
179.1591978541
 31
0.0
  0
LINE
  5
18D
  8
0
  6
CONTINUOUS
 62
     7
 10
195.0460287471
 20
178.1591978541
 30
0.0
 11
209.5460287471
 21
178.1591978541
 31
0.0
  0
LINE
  5
18E
  8
0
  6
CONTINUOUS
 62
     7
 10
209.5460287471
 20
178.1591978541
 30
0.0
 11
227.3156824302
 21
178.1591978541
 31
0.0
  0
TEXT
  5
18F
  8
0
  6
CONTINUOUS
 62
     7
 10
212.8344322335
 20
179.9696349583
 30
-0.9
 40
3.5
  1
14.50
 50
0.0
 41
0.7
 11
212.8344322335
 21
178.1591976795
 31
-0.9
 73
     1
  0
ENDBLK
  5
188
  8
0
  0
BLOCK
  8
0
  2
_D_4
 70
     0
 10
0.0
 20
0.0
 30
0.0
  3
_D_4
  1

  0
INSERT
  5
1C4
  8
0
  6
CONTINUOUS
 62
     7
  2
_CLOSED
 10
170.0460287471
 20
210.4435306544
 30
-22.4
 41
6.0
 42
6.0
 50
90.0
  0
INSERT
  5
1C5
  8
0
  6
CONTINUOUS
 62
     7
  2
_CLOSED
 10
170.0460287471
 20
212.4435306544
 30
-22.4
 41
6.0
 42
6.0
 50
270.0
  0
LINE
  5
1C6
  8
0
  6
CONTINUOUS
 62
     7
 10
184.0460287471
 20
210.4435306544
 30
0.0
 11
169.0460287471
 21
210.4435306544
 31
0.0
  0
LINE
  5
1C7
  8
0
  6
CONTINUOUS
 62
     7
 10
184.0460287471
 20
212.4435306544
 30
0.0
 11
169.0460287471
 21
212.4435306544
 31
0.0
  0
LINE
  5
1C8
  8
0
  6
CONTINUOUS
 62
     7
 10
164.6161676113
 20
220.8274123341
 30
0.0
 11
170.0460287471
 21
220.8274123341
 31
0.0
  0
LINE
  5
1C9
  8
0
  6
CONTINUOUS
 62
     7
 10
170.0460287471
 20
220.8274123341
 30
0.0
 11
170.0460287471
 21
212.4435306544
 31
0.0
  0
LINE
  5
1CA
  8
0
  6
CONTINUOUS
 62
     7
 10
170.0460287471
 20
210.4435306544
 30
0.0
 11
170.0460287471
 21
198.4435306544
 31
0.0
  0
LINE
  5
1CB
  8
0
  6
CONTINUOUS
 62
     7
 10
170.0460287471
 20
210.4435306544
 30
0.0
 11
170.0460287471
 21
212.4435306544
 31
0.0
  0
TEXT
  5
1CC
  8
0
  6
CONTINUOUS
 62
     7
 10
164.6161676113
 20
222.6378494383
 30
-22.4
 40
3.5
  1
2
 41
0.7
 11
164.6161676113
 21
220.8274121595
 31
-22.4
 73
     1
  0
ENDBLK
  5
1C3
  8
0
  0
BLOCK
  8
0
  2
SW_GTOL_0
 70
     0
 10
0.0
 20
0.0
 30
0.0
  3
SW_GTOL_0
  1

  0
LINE
  5
1D0
  8
0
  6
CONTINUOUS
 62
     0
 10
17.7125351616
 20
7.0
 30
0.0
 11
17.7125351616
 21
0.0
 31
0.0
  0
LINE
  5
1D1
  8
0
  6
CONTINUOUS
 62
     0
 10
17.7125351616
 20
0.0
 30
0.0
 11
39.984202034
 21
0.0
 31
0.0
  0
LINE
  5
1D2
  8
0
  6
CONTINUOUS
 62
     0
 10
39.984202034
 20
7.0
 30
0.0
 11
17.7125351616
 21
7.0
 31
0.0
  0
LINE
  5
1D3
  8
0
  6
CONTINUOUS
 62
     0
 10
17.7125351616
 20
7.0
 30
0.0
 11
17.7125351616
 21
0.0
 31
0.0
  0
LINE
  5
1D4
  8
0
  6
CONTINUOUS
 62
     0
 10
17.7125351616
 20
0.0
 30
0.0
 11
27.4330851616
 21
0.0
 31
0.0
  0
LINE
  5
1D5
  8
0
  6
CONTINUOUS
 62
     0
 10
27.4330851616
 20
7.0
 30
0.0
 11
17.7125351616
 21
7.0
 31
0.0
  0
LINE
  5
1D6
  8
0
  6
CONTINUOUS
 62
     0
 10
27.4330851616
 20
7.0
 30
0.0
 11
27.4330851616
 21
0.0
 31
0.0
  0
LINE
  5
1D7
  8
0
  6
CONTINUOUS
 62
     0
 10
39.984202034
 20
7.0
 30
0.0
 11
39.984202034
 21
0.0
 31
0.0
  0
LINE
  5
1D8
  8
0
  6
CONTINUOUS
 62
     0
 10
39.984202034
 20
7.0
 30
0.0
 11
39.984202034
 21
0.0
 31
0.0
  0
LINE
  5
1D9
  8
0
  6
CONTINUOUS
 62
     0
 10
39.984202034
 20
7.0
 30
0.0
 11
39.984202034
 21
0.0
 31
0.0
  0
LINE
  5
1DA
  8
0
  6
CONTINUOUS
 62
     0
 10
39.984202034
 20
7.0
 30
0.0
 11
39.984202034
 21
0.0
 31
0.0
  0
LINE
  5
1DB
  8
0
  6
CONTINUOUS
 62
     0
 10
39.984202034
 20
7.0
 30
0.0
 11
39.984202034
 21
0.0
 31
0.0
  0
INSERT
  5
1E3
  8
0
  6
CONTINUOUS
 62
     0
  2
SW_SYMBOL_GTOL_FLAT
 10
18.4125351616
 20
1.7252401417
 30
0.0
 41
0.0038018578
 42
0.0038018578
 43
0.0038018578
  0
TEXT
  5
1E4
  8
0
  6
CONTINUOUS
 62
     0
 10
29.1829490673
 20
2.5323121087
 30
0.0
 40
3.5
  1
0.12
 41
0.7
 11
29.1829490673
 21
0.7218748298
 31
0.0
 73
     1
  0
LINE
  5
1E5
  8
0
  6
CONTINUOUS
 62
     0
 10
17.7125351616
 20
0.0
 30
0.0
 11
0.0
 21
0.0
 31
0.0
  0
ENDBLK
  5
1CF
  8
0
  0
BLOCK
  8
0
  2
SW_SYMBOL_GTOL_FLAT
 70
     0
 10
0.0
 20
0.0
 30
0.0
  3
SW_SYMBOL_GTOL_FLAT
  1

  0
LINE
  5
1DF
  8
0
  6
CONTINUOUS
 62
     0
 10
0.0
 20
0.0
 30
0.0
 11
577.3
 21
1000.0
 31
0.0
  0
LINE
  5
1E0
  8
0
  6
CONTINUOUS
 62
     0
 10
577.3
 20
1000.0
 30
0.0
 11
2077.3
 21
1000.0
 31
0.0
  0
LINE
  5
1E1
  8
0
  6
CONTINUOUS
 62
     0
 10
2077.3
 20
1000.0
 30
0.0
 11
1500.0
 21
0.0
 31
0.0
  0
LINE
  5
1E2
  8
0
  6
CONTINUOUS
 62
     0
 10
1500.0
 20
0.0
 30
0.0
 11
0.0
 21
0.0
 31
0.0
  0
ENDBLK
  5
1DE
  8
0
  0
BLOCK
  8
0
  2
SW_NOTE_4
 70
     0
 10
0.0
 20
0.0
 30
0.0
  3
SW_NOTE_4
  1

  0
TEXT
  5
232
  8
0
  6
CONTINUOUS
 62
     0
 10
0.0
 20
1.0948834972
 30
0.0
 40
2.1166666667
  1
1:1 SCALE 
 41
0.63
 11
0.0
 21
0.0
 31
0.0
 73
     1
  0
TEXT
  5
233
  8
0
  6
CONTINUOUS
 62
     0
 10
-8.388272021
 20
-1.7273386909
 30
0.0
 40
2.1166666667
  1
FOR DXF GENERATION
 41
0.6611111111
 11
-8.388272021
 21
-2.8222221881
 31
0.0
 73
     1
  0
ENDBLK
  5
231
  8
0
  0
ENDSEC
  0
SECTION
  2
ENTITIES
  0
LINE
  5
46
  8
0
  6
CONTINUOUS
 62
     7
 10
12.7
 20
266.7
 30
0.0
 11
419.1
 21
266.7
 31
0.0
  0
LINE
  5
47
  8
0
  6
CONTINUOUS
 62
     7
 10
12.7
 20
266.7
 30
0.0
 11
12.7
 21
12.7
 31
0.0
  0
LINE
  5
48
  8
0
  6
CONTINUOUS
 62
     7
 10
419.1
 20
12.7
 30
0.0
 11
200.2008454433
 21
12.7
 31
0.0
  0
LINE
  5
49
  8
0
  6
CONTINUOUS
 62
     7
 10
419.1
 20
12.7
 30
0.0
 11
419.1
 21
266.7
 31
0.0
  0
LINE
  5
4A
  8
0
  6
CONTINUOUS
 62
     7
 10
324.7939548863
 20
34.925
 30
0.0
 11
324.7939548863
 21
12.7
 31
0.0
  0
LINE
  5
4B
  8
0
  6
CONTINUOUS
 62
     7
 10
419.1
 20
12.7
 30
0.0
 11
244.7
 21
12.7
 31
0.0
  0
LINE
  5
4C
  8
0
  6
CONTINUOUS
 62
     7
 10
419.1
 20
12.7
 30
0.0
 11
419.1
 21
9.525
 31
0.0
  0
LINE
  5
4D
  8
0
  6
CONTINUOUS
 62
     7
 10
419.1
 20
9.525
 30
0.0
 11
215.9
 21
9.525
 31
0.0
  0
LINE
  5
4E
  8
0
  6
CONTINUOUS
 62
     7
 10
419.1
 20
31.75
 30
0.0
 11
296.7115942223
 21
31.75
 31
0.0
  0
LINE
  5
4F
  8
0
  6
CONTINUOUS
 62
     7
 10
303.6965942223
 20
22.225
 30
0.0
 11
303.6965942223
 21
12.7
 31
0.0
  0
LINE
  5
50
  8
0
  6
CONTINUOUS
 62
     7
 10
419.1
 20
12.7
 30
0.0
 11
368.3
 21
12.7
 31
0.0
  0
LINE
  5
51
  8
0
  6
CONTINUOUS
 62
     7
 10
419.1
 20
12.7
 30
0.0
 11
419.1
 21
38.1
 31
0.0
  0
LINE
  5
52
  8
0
  6
CONTINUOUS
 62
     7
 10
343.5062509278
 20
22.225
 30
0.0
 11
343.5062509278
 21
12.7
 31
0.0
  0
LINE
  5
53
  8
0
  6
CONTINUOUS
 62
     7
 10
339.725
 20
12.7
 30
0.0
 11
415.9567907574
 21
12.7
 31
0.0
  0
LINE
  5
54
  8
0
  6
CONTINUOUS
 62
     7
 10
380.365
 20
22.225
 30
0.0
 11
380.365
 21
12.7
 31
0.0
  0
LINE
  5
55
  8
0
  6
CONTINUOUS
 62
     7
 10
412.115
 20
22.225
 30
0.0
 11
412.115
 21
12.7
 31
0.0
  0
LINE
  5
56
  8
0
  6
CONTINUOUS
 62
     7
 10
368.3
 20
12.7
 30
0.0
 11
330.2
 21
12.7
 31
0.0
  0
LINE
  5
57
  8
0
  6
CONTINUOUS
 62
     7
 10
380.365
 20
15.875
 30
0.0
 11
324.7939548863
 21
15.875
 31
0.0
  0
LINE
  5
58
  8
0
  6
CONTINUOUS
 62
     7
 10
296.7115942223
 20
34.925
 30
0.0
 11
296.7115942223
 21
12.7
 31
0.0
  0
LINE
  5
59
  8
0
  6
CONTINUOUS
 62
     7
 10
215.9
 20
34.925
 30
0.0
 11
215.9
 21
12.7
 31
0.0
  0
LINE
  5
5A
  8
0
  6
CONTINUOUS
 62
     7
 10
296.7115942223
 20
31.75
 30
0.0
 11
215.9
 21
31.75
 31
0.0
  0
LINE
  5
5B
  8
0
  6
CONTINUOUS
 62
     7
 10
296.7115942223
 20
19.05
 30
0.0
 11
303.6965942223
 21
19.05
 31
0.0
  0
LINE
  5
5C
  8
0
  6
CONTINUOUS
 62
     7
 10
10.16
 20
241.3
 30
0.0
 11
12.7
 21
241.3
 31
0.0
  0
LINE
  5
5D
  8
0
  6
CONTINUOUS
 62
     7
 10
419.1
 20
22.225
 30
0.0
 11
296.7115942223
 21
22.225
 31
0.0
  0
LINE
  5
5E
  8
0
  6
CONTINUOUS
 62
     7
 10
317.5303375599
 20
12.7
 30
0.0
 11
339.7553375599
 21
12.7
 31
0.0
  0
LINE
  5
5F
  8
0
  6
CONTINUOUS
 62
     7
 10
215.9
 20
12.7
 30
0.0
 11
215.9
 21
9.525
 31
0.0
  0
LINE
  5
60
  8
0
  6
CONTINUOUS
 62
     7
 10
215.9
 20
34.925
 30
0.0
 11
193.675
 21
34.925
 31
0.0
  0
LINE
  5
61
  8
0
  6
CONTINUOUS
 62
     7
 10
254.0
 20
12.7
 30
0.0
 11
254.0
 21
9.525
 31
0.0
  0
LINE
  5
62
  8
0
  6
CONTINUOUS
 62
     7
 10
419.1
 20
266.7
 30
0.0
 11
227.1617197736
 21
266.7
 31
0.0
  0
LINE
  5
63
  8
0
  6
CONTINUOUS
 62
     7
 10
419.1
 20
34.925
 30
0.0
 11
215.9
 21
34.925
 31
0.0
  0
LINE
  5
64
  8
0
  6
CONTINUOUS
 62
     7
 10
330.2
 20
12.7
 30
0.0
 11
244.7
 21
12.7
 31
0.0
  0
LINE
  5
65
  8
0
  6
CONTINUOUS
 62
     7
 10
419.1
 20
266.7
 30
0.0
 11
419.1
 21
263.525
 31
0.0
  0
LINE
  5
66
  8
0
  6
CONTINUOUS
 62
     7
 10
419.1
 20
263.525
 30
0.0
 11
215.9
 21
263.525
 31
0.0
  0
LINE
  5
67
  8
0
  6
CONTINUOUS
 62
     7
 10
215.9
 20
266.7
 30
0.0
 11
215.9
 21
257.175
 31
0.0
  0
LINE
  5
68
  8
0
  6
CONTINUOUS
 62
     7
 10
215.9
 20
263.525
 30
0.0
 11
419.1
 21
263.525
 31
0.0
  0
LINE
  5
69
  8
0
  6
CONTINUOUS
 62
     7
 10
244.7
 20
12.7
 30
0.0
 11
330.2
 21
12.7
 31
0.0
  0
LINE
  5
6A
  8
0
  6
CONTINUOUS
 62
     7
 10
274.32
 20
12.7
 30
0.0
 11
317.529353287
 21
12.7
 31
0.0
  0
LINE
  5
6B
  8
0
  6
CONTINUOUS
 62
     7
 10
215.9
 20
260.35
 30
0.0
 11
419.1
 21
260.35
 31
0.0
  0
LINE
  5
6C
  8
0
  6
CONTINUOUS
 62
     7
 10
330.2
 20
12.7
 30
0.0
 11
244.7
 21
12.7
 31
0.0
  0
LINE
  5
6D
  8
0
  6
CONTINUOUS
 62
     7
 10
200.2008454433
 20
12.7
 30
0.0
 11
12.7
 21
12.7
 31
0.0
  0
LINE
  5
6E
  8
0
  6
CONTINUOUS
 62
     7
 10
419.1
 20
263.525
 30
0.0
 11
419.1
 21
260.35
 31
0.0
  0
LINE
  5
6F
  8
0
  6
CONTINUOUS
 62
     7
 10
419.1
 20
260.35
 30
0.0
 11
215.9
 21
260.35
 31
0.0
  0
LINE
  5
70
  8
0
  6
CONTINUOUS
 62
     7
 10
419.1
 20
260.35
 30
0.0
 11
419.1
 21
257.175
 31
0.0
  0
LINE
  5
71
  8
0
  6
CONTINUOUS
 62
     7
 10
215.9
 20
34.925
 30
0.0
 11
215.9
 21
12.7
 31
0.0
  0
LINE
  5
72
  8
0
  6
CONTINUOUS
 62
     7
 10
215.9
 20
12.7
 30
0.0
 11
193.675
 21
12.7
 31
0.0
  0
LINE
  5
73
  8
0
  6
CONTINUOUS
 62
     7
 10
193.675
 20
34.925
 30
0.0
 11
193.675
 21
12.7
 31
0.0
  0
LINE
  5
74
  8
0
  6
CONTINUOUS
 62
     7
 10
215.9
 20
12.7
 30
0.0
 11
215.9
 21
10.16
 31
0.0
  0
LINE
  5
75
  8
0
  6
CONTINUOUS
 62
     7
 10
266.7
 20
269.24
 30
0.0
 11
266.7
 21
266.7
 31
0.0
  0
LINE
  5
76
  8
0
  6
CONTINUOUS
 62
     7
 10
251.05
 20
12.7
 30
0.0
 11
244.7
 21
12.7
 31
0.0
  0
LINE
  5
77
  8
0
  6
CONTINUOUS
 62
     7
 10
419.1
 20
257.175
 30
0.0
 11
419.1
 21
254.0
 31
0.0
  0
LINE
  5
78
  8
0
  6
CONTINUOUS
 62
     7
 10
292.1
 20
269.24
 30
0.0
 11
292.1
 21
266.7
 31
0.0
  0
LINE
  5
79
  8
0
  6
CONTINUOUS
 62
     7
 10
317.5
 20
269.24
 30
0.0
 11
317.5
 21
266.7
 31
0.0
  0
LINE
  5
7A
  8
0
  6
CONTINUOUS
 62
     7
 10
324.7939548863
 20
19.05
 30
0.0
 11
419.1
 21
19.05
 31
0.0
  0
LINE
  5
7B
  8
0
  6
CONTINUOUS
 62
     7
 10
342.9
 20
269.24
 30
0.0
 11
342.9
 21
266.7
 31
0.0
  0
LINE
  5
7C
  8
0
  6
CONTINUOUS
 62
     7
 10
368.3
 20
269.24
 30
0.0
 11
368.3
 21
266.7
 31
0.0
  0
LINE
  5
7D
  8
0
  6
CONTINUOUS
 62
     7
 10
10.16
 20
215.9
 30
0.0
 11
12.7
 21
215.9
 31
0.0
  0
LINE
  5
7E
  8
0
  6
CONTINUOUS
 62
     7
 10
10.16
 20
190.5
 30
0.0
 11
12.7
 21
190.5
 31
0.0
  0
LINE
  5
7F
  8
0
  6
CONTINUOUS
 62
     7
 10
10.16
 20
165.1
 30
0.0
 11
12.7
 21
165.1
 31
0.0
  0
LINE
  5
80
  8
0
  6
CONTINUOUS
 62
     7
 10
10.16
 20
139.7
 30
0.0
 11
12.7
 21
139.7
 31
0.0
  0
LINE
  5
81
  8
0
  6
CONTINUOUS
 62
     7
 10
10.16
 20
114.3
 30
0.0
 11
12.7
 21
114.3
 31
0.0
  0
LINE
  5
82
  8
0
  6
CONTINUOUS
 62
     7
 10
222.25
 20
263.525
 30
0.0
 11
222.25
 21
257.175
 31
0.0
  0
LINE
  5
83
  8
0
  6
CONTINUOUS
 62
     7
 10
215.9
 20
260.35
 30
0.0
 11
419.1
 21
260.35
 31
0.0
  0
LINE
  5
84
  8
0
  6
CONTINUOUS
 62
     7
 10
215.9
 20
257.175
 30
0.0
 11
419.1
 21
257.175
 31
0.0
  0
LINE
  5
85
  8
0
  6
CONTINUOUS
 62
     7
 10
419.1
 20
260.35
 30
0.0
 11
419.1
 21
257.175
 31
0.0
  0
LINE
  5
86
  8
0
  6
CONTINUOUS
 62
     7
 10
394.0860717338
 20
263.525
 30
0.0
 11
394.0860717338
 21
257.175
 31
0.0
  0
LINE
  5
87
  8
0
  6
CONTINUOUS
 62
     7
 10
190.5
 20
12.7
 30
0.0
 11
190.5
 21
10.16
 31
0.0
  0
LINE
  5
88
  8
0
  6
CONTINUOUS
 62
     7
 10
12.7
 20
266.7
 30
0.0
 11
12.7
 21
269.24
 31
0.0
  0
LINE
  5
89
  8
0
  6
CONTINUOUS
 62
     7
 10
38.1
 20
12.7
 30
0.0
 11
38.1
 21
10.16
 31
0.0
  0
LINE
  5
8A
  8
0
  6
CONTINUOUS
 62
     7
 10
88.9
 20
12.7
 30
0.0
 11
88.9
 21
10.16
 31
0.0
  0
LINE
  5
8B
  8
0
  6
CONTINUOUS
 62
     7
 10
139.7
 20
12.7
 30
0.0
 11
139.7
 21
10.16
 31
0.0
  0
LINE
  5
8C
  8
0
  6
CONTINUOUS
 62
     7
 10
165.1
 20
12.7
 30
0.0
 11
165.1
 21
10.16
 31
0.0
  0
LINE
  5
8D
  8
0
  6
CONTINUOUS
 62
     7
 10
63.5
 20
12.7
 30
0.0
 11
63.5
 21
10.16
 31
0.0
  0
LINE
  5
8E
  8
0
  6
CONTINUOUS
 62
     7
 10
114.3
 20
12.7
 30
0.0
 11
114.3
 21
10.16
 31
0.0
  0
LINE
  5
8F
  8
0
  6
CONTINUOUS
 62
     7
 10
10.16
 20
88.9
 30
0.0
 11
12.7
 21
88.9
 31
0.0
  0
LINE
  5
90
  8
0
  6
CONTINUOUS
 62
     7
 10
38.1
 20
269.24
 30
0.0
 11
38.1
 21
266.7
 31
0.0
  0
LINE
  5
91
  8
0
  6
CONTINUOUS
 62
     7
 10
10.16
 20
38.1
 30
0.0
 11
12.7
 21
38.1
 31
0.0
  0
LINE
  5
92
  8
0
  6
CONTINUOUS
 62
     7
 10
88.9
 20
269.24
 30
0.0
 11
88.9
 21
266.7
 31
0.0
  0
LINE
  5
93
  8
0
  6
CONTINUOUS
 62
     7
 10
10.16
 20
12.7
 30
0.0
 11
27.0838350908
 21
12.7
 31
0.0
  0
LINE
  5
94
  8
0
  6
CONTINUOUS
 62
     7
 10
10.16
 20
63.5
 30
0.0
 11
12.7
 21
63.5
 31
0.0
  0
LINE
  5
95
  8
0
  6
CONTINUOUS
 62
     7
 10
114.3
 20
269.24
 30
0.0
 11
114.3
 21
266.7
 31
0.0
  0
LINE
  5
96
  8
0
  6
CONTINUOUS
 62
     7
 10
63.5
 20
269.24
 30
0.0
 11
63.5
 21
266.7
 31
0.0
  0
LINE
  5
97
  8
0
  6
CONTINUOUS
 62
     7
 10
165.1
 20
269.24
 30
0.0
 11
165.1
 21
266.7
 31
0.0
  0
LINE
  5
98
  8
0
  6
CONTINUOUS
 62
     7
 10
139.7
 20
269.24
 30
0.0
 11
139.7
 21
266.7
 31
0.0
  0
LINE
  5
99
  8
0
  6
CONTINUOUS
 62
     7
 10
393.7
 20
269.24
 30
0.0
 11
393.7
 21
266.7
 31
0.0
  0
LINE
  5
9A
  8
0
  6
CONTINUOUS
 62
     7
 10
419.1
 20
266.7
 30
0.0
 11
419.1
 21
269.24
 31
0.0
  0
LINE
  5
9B
  8
0
  6
CONTINUOUS
 62
     7
 10
190.5
 20
269.24
 30
0.0
 11
190.5
 21
266.7
 31
0.0
  0
LINE
  5
9C
  8
0
  6
CONTINUOUS
 62
     7
 10
215.9
 20
269.24
 30
0.0
 11
215.9
 21
266.7
 31
0.0
  0
LINE
  5
9D
  8
0
  6
CONTINUOUS
 62
     7
 10
241.3
 20
269.24
 30
0.0
 11
241.3
 21
266.7
 31
0.0
  0
LINE
  5
9E
  8
0
  6
CONTINUOUS
 62
     7
 10
12.7
 20
266.7
 30
0.0
 11
10.16
 21
266.7
 31
0.0
  0
LINE
  5
9F
  8
0
  6
CONTINUOUS
 62
     7
 10
419.1
 20
266.7
 30
0.0
 11
421.64
 21
266.7
 31
0.0
  0
LINE
  5
A0
  8
0
  6
CONTINUOUS
 62
     7
 10
419.1
 20
241.3
 30
0.0
 11
421.64
 21
241.3
 31
0.0
  0
LINE
  5
A1
  8
0
  6
CONTINUOUS
 62
     7
 10
419.1
 20
215.9
 30
0.0
 11
421.64
 21
215.9
 31
0.0
  0
LINE
  5
A2
  8
0
  6
CONTINUOUS
 62
     7
 10
419.1
 20
190.5
 30
0.0
 11
421.64
 21
190.5
 31
0.0
  0
LINE
  5
A3
  8
0
  6
CONTINUOUS
 62
     7
 10
419.1
 20
165.1
 30
0.0
 11
421.64
 21
165.1
 31
0.0
  0
LINE
  5
A4
  8
0
  6
CONTINUOUS
 62
     7
 10
419.1
 20
139.7
 30
0.0
 11
421.64
 21
139.7
 31
0.0
  0
LINE
  5
A5
  8
0
  6
CONTINUOUS
 62
     7
 10
419.1
 20
114.3
 30
0.0
 11
421.64
 21
114.3
 31
0.0
  0
LINE
  5
A6
  8
0
  6
CONTINUOUS
 62
     7
 10
419.1
 20
88.9
 30
0.0
 11
421.64
 21
88.9
 31
0.0
  0
LINE
  5
A7
  8
0
  6
CONTINUOUS
 62
     7
 10
419.1
 20
63.5
 30
0.0
 11
421.64
 21
63.5
 31
0.0
  0
LINE
  5
A8
  8
0
  6
CONTINUOUS
 62
     7
 10
419.1
 20
38.1
 30
0.0
 11
421.64
 21
38.1
 31
0.0
  0
LINE
  5
A9
  8
0
  6
CONTINUOUS
 62
     7
 10
12.7
 20
12.7
 30
0.0
 11
12.7
 21
10.16
 31
0.0
  0
LINE
  5
AA
  8
0
  6
CONTINUOUS
 62
     7
 10
215.9
 20
266.7
 30
0.0
 11
215.9
 21
273.05
 31
0.0
  0
LINE
  5
AB
  8
0
  6
CONTINUOUS
 62
     7
 10
12.7
 20
139.7
 30
0.0
 11
6.35
 21
139.7
 31
0.0
  0
LINE
  5
AC
  8
0
  6
CONTINUOUS
 62
     7
 10
419.1
 20
139.7
 30
0.0
 11
425.45
 21
139.7
 31
0.0
  0
LINE
  5
AD
  8
0
  6
CONTINUOUS
 62
     7
 10
215.9
 20
12.7
 30
0.0
 11
215.9
 21
6.35
 31
0.0
  0
INSERT
  5
EC
  8
0
  6
CONTINUOUS
 62
     7
  2
SW_NOTE_0
 10
14.6530276213
 20
260.9825646262
 30
0.0
  0
TEXT
  5
ED
  8
0
  6
CONTINUOUS
 62
     7
 10
404.2639077288
 20
10.7869413242
 30
0.0
 40
1.5875
  1
SHEET 1 OF 1
 41
0.6125
 11
404.2639077288
 21
9.9657787013
 31
0.0
 73
     1
  0
TEXT
  5
EE
  8
0
  6
CONTINUOUS
 62
     7
 10
297.449897652
 20
20.1821066522
 30
0.0
 40
1.5875
  1
SIZE:
 41
0.7
 11
297.449897652
 21
19.3609440293
 31
0.0
 73
     1
  0
INSERT
  5
F4
  8
0
  6
CONTINUOUS
 62
     7
  2
SW_NOTE_1
 10
297.505371152
 20
29.3546551259
 30
0.0
  0
TEXT
  5
F5
  8
0
  6
CONTINUOUS
 62
     7
 10
325.8188479247
 20
33.0533662784
 30
0.0
 40
1.5875
  1
TITLE:
 41
0.7
 11
325.8188479247
 21
32.2322036555
 31
0.0
 73
     1
  0
TEXT
  5
F6
  8
0
  6
CONTINUOUS
 62
     7
 10
267.5094220682
 20
10.7476292335
 30
0.0
 40
1.5875
  1
TL400-000108-001 - Plate, T, Metal, OpenBeam 1515
 41
0.6571428571
 11
267.5094220682
 21
9.9264666106
 31
0.0
 73
     1
  0
TEXT
  5
F7
  8
0
  6
CONTINUOUS
 62
     7
 10
382.1564751324
 20
19.9818662973
 30
0.0
 40
1.5875
  1
PART NUMBER:                        REV 
 41
0.4725
 11
382.1564751324
 21
19.1607036744
 31
0.0
 73
     1
  0
TEXT
  5
F8
  8
0
  6
CONTINUOUS
 62
     7
 10
326.0927077224
 20
13.7132403362
 30
0.0
 40
1.5875
  1
DATE CREATED:
 41
0.7
 11
326.0927077224
 21
12.8920777133
 31
0.0
 73
     1
  0
TEXT
  5
F9
  8
0
  6
CONTINUOUS
 62
     7
 10
326.0927077224
 20
16.8524088529
 30
0.0
 40
1.5875
  1
DRAWN BY:                            
 41
0.4256756757
 11
326.0927077224
 21
16.03124623
 31
0.0
 73
     1
  0
TEXT
  5
FA
  8
0
  6
CONTINUOUS
 62
     7
 10
382.1564751324
 20
15.2884758505
 30
0.0
 40
2.6458333333
  1
TL-400-000108
 41
0.7
 11
382.1564751324
 21
13.919871479
 31
0.0
 73
     1
  0
TEXT
  5
FB
  8
0
  6
CONTINUOUS
 62
     7
 10
344.7162807199
 20
20.0938974363
 30
0.0
 40
2.1166666667
  1
TERENCE T.S. TAM
 41
0.65625
 11
344.7162807199
 21
18.9990139391
 31
0.0
 73
     1
  0
TEXT
  5
FC
  8
0
  6
CONTINUOUS
 62
     7
 10
325.4422489146
 20
20.1821066522
 30
0.0
 40
1.5875
  1
 ENGINEER: 
 41
0.6363636364
 11
325.4422489146
 21
19.3609440293
 31
0.0
 73
     1
  0
TEXT
  5
FD
  8
0
  6
CONTINUOUS
 62
     7
 10
325.4545125293
 20
28.2949725266
 30
0.0
 40
2.6458333333
  1
Joining Plate, T, Metal, OpenBeam 15 Series
 41
0.6511627907
 11
325.4545125293
 21
26.9263681551
 31
0.0
 73
     1
  0
TEXT
  5
FE
  8
0
  6
CONTINUOUS
 62
     7
 10
297.5323388865
 20
33.0533662784
 30
0.0
 40
1.5875
  1
TOLERANCES:
 41
0.7
 11
297.5323388865
 21
32.2322036555
 31
0.0
 73
     1
  0
TEXT
  5
FF
  8
0
  6
CONTINUOUS
 62
     7
 10
216.5051402585
 20
10.7593884907
 30
0.0
 40
1.5875
  1
CAD: SOLIDWORKS   SCALE:            FILE NAME:            
 41
0.525
 11
216.5051402585
 21
9.9382258678
 31
0.0
 73
     1
  0
TEXT
  5
100
  8
0
  6
CONTINUOUS
 62
     7
 10
248.6374743408
 20
10.7299903332
 30
0.0
 40
1.5875
  1
1:1
 41
0.7
 11
248.6374743408
 21
9.9088277103
 31
0.0
 73
     1
  0
TEXT
  5
101
  8
0
  6
CONTINUOUS
 62
     7
 10
311.8994414662
 20
264.7034730828
 30
0.0
 40
1.5875
  1
REVISIONS
 41
0.7
 11
311.8994414662
 21
263.8823104599
 31
0.0
 73
     1
  0
TEXT
  5
102
  8
0
  6
CONTINUOUS
 62
     7
 10
413.5737401063
 20
15.2884758505
 30
0.0
 40
2.6458333333
  1
01
 41
0.7
 11
413.5737401063
 21
13.919871479
 31
0.0
 73
     1
  0
TEXT
  5
103
  8
0
  6
CONTINUOUS
 62
     7
 10
298.3181927221
 20
14.8339607913
 30
0.0
 40
4.2333333333
  1
B
 41
0.7
 11
298.3181927221
 21
12.6441937969
 31
0.0
 73
     1
  0
TEXT
  5
104
  8
0
  6
CONTINUOUS
 62
     7
 10
216.4317342849
 20
258.3283244123
 30
0.0
 40
1.8520833333
  1
01
 41
0.7
 11
216.4317342849
 21
257.3703013523
 31
0.0
 73
     1
  0
TEXT
  5
105
  8
0
  6
CONTINUOUS
 62
     7
 10
394.9144239962
 20
261.5852560252
 30
0.0
 40
1.5875
  1
DATE
 41
0.7
 11
394.9144239962
 21
260.7640934023
 31
0.0
 73
     1
  0
TEXT
  5
106
  8
0
  6
CONTINUOUS
 62
     7
 10
216.8703812719
 20
261.4952163456
 30
0.0
 40
1.5875
  1
REV     DESCRIPTION OF CHANGE                                                                                                                           
 41
0.4006578947
 11
216.8703812719
 21
260.6740537228
 31
0.0
 73
     1
  0
INSERT
  5
10C
  8
0
  6
CONTINUOUS
 62
     7
  2
SW_NOTE_2
 10
240.324778126
 20
32.2322036555
 30
0.0
  0
INSERT
  5
116
  8
0
  6
CONTINUOUS
 62
     7
  2
SW_NOTE_3
 10
217.9964731776
 20
28.6308961488
 30
0.0
  0
TEXT
  5
117
  8
0
  6
CONTINUOUS
 62
     7
 10
194.5492383068
 20
15.2679429097
 30
0.0
 40
1.5875
  1
www.TamLabs.com
 41
0.7
 11
194.5492383068
 21
14.4467802868
 31
0.0
 73
     1
  0
TEXT
  5
118
  8
0
  6
CONTINUOUS
 62
     7
 10
24.6929745349
 20
267.740127602
 30
0.0
 40
1.5875
  1
A
 41
0.7
 11
24.6929745349
 21
266.9189649792
 31
0.0
 73
     1
  0
TEXT
  5
119
  8
0
  6
CONTINUOUS
 62
     7
 10
50.094444453
 20
267.740127602
 30
0.0
 40
1.5875
  1
B
 41
0.7
 11
50.094444453
 21
266.9189649792
 31
0.0
 73
     1
  0
TEXT
  5
11A
  8
0
  6
CONTINUOUS
 62
     7
 10
75.435648138
 20
267.7161625903
 30
0.0
 40
1.5875
  1
C
 41
0.7
 11
75.435648138
 21
266.8949999674
 31
0.0
 73
     1
  0
TEXT
  5
11B
  8
0
  6
CONTINUOUS
 62
     7
 10
151.7532407098
 20
267.9244959236
 30
0.0
 40
1.5875
  1
F
 41
0.7
 11
151.7532407098
 21
267.1033333007
 31
0.0
 73
     1
  0
TEXT
  5
11C
  8
0
  6
CONTINUOUS
 62
     7
 10
100.835648138
 20
267.8203292569
 30
0.0
 40
1.5875
  1
D
 41
0.7
 11
100.835648138
 21
266.999166634
 31
0.0
 73
     1
  0
TEXT
  5
11D
  8
0
  6
CONTINUOUS
 62
     7
 10
126.294444453
 20
267.7161625903
 30
0.0
 40
1.5875
  1
E
 41
0.7
 11
126.294444453
 21
266.8949999674
 31
0.0
 73
     1
  0
TEXT
  5
11E
  8
0
  6
CONTINUOUS
 62
     7
 10
278.6929745349
 20
267.7161625903
 30
0.0
 40
1.5875
  1
K
 41
0.7
 11
278.6929745349
 21
266.8949999674
 31
0.0
 73
     1
  0
TEXT
  5
11F
  8
0
  6
CONTINUOUS
 62
     7
 10
253.4693634217
 20
267.8203292569
 30
0.0
 40
1.5875
  1
J
 41
0.7
 11
253.4693634217
 21
266.999166634
 31
0.0
 73
     1
  0
TEXT
  5
120
  8
0
  6
CONTINUOUS
 62
     7
 10
304.2105671067
 20
267.9244959236
 30
0.0
 40
1.5875
  1
L
 41
0.7
 11
304.2105671067
 21
267.1033333007
 31
0.0
 73
     1
  0
TEXT
  5
121
  8
0
  6
CONTINUOUS
 62
     7
 10
228.3045485943
 20
267.7161625903
 30
0.0
 40
1.5875
  1
I
 41
0.7
 11
228.3045485943
 21
266.8949999674
 31
0.0
 73
     1
  0
TEXT
  5
122
  8
0
  6
CONTINUOUS
 62
     7
 10
202.4341782199
 20
267.7682459236
 30
0.0
 40
1.5875
  1
H
 41
0.7
 11
202.4341782199
 21
266.9470833007
 31
0.0
 73
     1
  0
TEXT
  5
123
  8
0
  6
CONTINUOUS
 62
     7
 10
176.9753819049
 20
267.7682459236
 30
0.0
 40
1.5875
  1
G
 41
0.7
 11
176.9753819049
 21
266.9470833007
 31
0.0
 73
     1
  0
TEXT
  5
124
  8
0
  6
CONTINUOUS
 62
     7
 10
405.6929745349
 20
267.8203292569
 30
0.0
 40
1.5875
  1
P
 41
0.7
 11
405.6929745349
 21
266.999166634
 31
0.0
 73
     1
  0
TEXT
  5
125
  8
0
  6
CONTINUOUS
 62
     7
 10
380.1753819049
 20
267.7161625903
 30
0.0
 40
1.5875
  1
O
 41
0.7
 11
380.1753819049
 21
266.8949999674
 31
0.0
 73
     1
  0
TEXT
  5
126
  8
0
  6
CONTINUOUS
 62
     7
 10
354.8341782199
 20
267.7682459236
 30
0.0
 40
1.5875
  1
N
 41
0.7
 11
354.8341782199
 21
266.9470833007
 31
0.0
 73
     1
  0
TEXT
  5
127
  8
0
  6
CONTINUOUS
 62
     7
 10
329.3165856482
 20
267.7682459236
 30
0.0
 40
1.5875
  1
M
 41
0.7
 11
329.3165856482
 21
266.9470833007
 31
0.0
 73
     1
  0
TEXT
  5
128
  8
0
  6
CONTINUOUS
 62
     7
 10
100.835648138
 20
10.6453292569
 30
0.0
 40
1.5875
  1
D
 41
0.7
 11
100.835648138
 21
9.824166634
 31
0.0
 73
     1
  0
TEXT
  5
129
  8
0
  6
CONTINUOUS
 62
     7
 10
75.435648138
 20
10.5411625903
 30
0.0
 40
1.5875
  1
C
 41
0.7
 11
75.435648138
 21
9.7199999674
 31
0.0
 73
     1
  0
TEXT
  5
12A
  8
0
  6
CONTINUOUS
 62
     7
 10
50.094444453
 20
10.5932459236
 30
0.0
 40
1.5875
  1
B
 41
0.7
 11
50.094444453
 21
9.7720833007
 31
0.0
 73
     1
  0
TEXT
  5
12B
  8
0
  6
CONTINUOUS
 62
     7
 10
24.6929745349
 20
10.5932459236
 30
0.0
 40
1.5875
  1
A
 41
0.7
 11
24.6929745349
 21
9.7720833007
 31
0.0
 73
     1
  0
TEXT
  5
12C
  8
0
  6
CONTINUOUS
 62
     7
 10
202.4341782199
 20
10.5932459236
 30
0.0
 40
1.5875
  1
H
 41
0.7
 11
202.4341782199
 21
9.7720833007
 31
0.0
 73
     1
  0
TEXT
  5
12D
  8
0
  6
CONTINUOUS
 62
     7
 10
176.9753819049
 20
10.5932459236
 30
0.0
 40
1.5875
  1
G
 41
0.7
 11
176.9753819049
 21
9.7720833007
 31
0.0
 73
     1
  0
TEXT
  5
12E
  8
0
  6
CONTINUOUS
 62
     7
 10
151.7532407098
 20
10.7494959236
 30
0.0
 40
1.5875
  1
F
 41
0.7
 11
151.7532407098
 21
9.9283333007
 31
0.0
 73
     1
  0
TEXT
  5
12F
  8
0
  6
CONTINUOUS
 62
     7
 10
126.294444453
 20
10.5411625903
 30
0.0
 40
1.5875
  1
E
 41
0.7
 11
126.294444453
 21
9.7199999674
 31
0.0
 73
     1
  0
TEXT
  5
130
  8
0
  6
CONTINUOUS
 62
     7
 10
10.8405671067
 20
254.2669959236
 30
0.0
 40
1.5875
  1
1
 41
0.7
 11
10.8405671067
 21
253.4458333007
 31
0.0
 73
     1
  0
TEXT
  5
131
  8
0
  6
CONTINUOUS
 62
     7
 10
10.8405671067
 20
228.8669959236
 30
0.0
 40
1.5875
  1
2
 41
0.7
 11
10.8405671067
 21
228.0458333007
 31
0.0
 73
     1
  0
TEXT
  5
132
  8
0
  6
CONTINUOUS
 62
     7
 10
10.8405671067
 20
203.4669959236
 30
0.0
 40
1.5875
  1
3
 41
0.7
 11
10.8405671067
 21
202.6458333007
 31
0.0
 73
     1
  0
TEXT
  5
133
  8
0
  6
CONTINUOUS
 62
     7
 10
10.8405671067
 20
178.0669959236
 30
0.0
 40
1.5875
  1
4
 41
0.7
 11
10.8405671067
 21
177.2458333007
 31
0.0
 73
     1
  0
TEXT
  5
134
  8
0
  6
CONTINUOUS
 62
     7
 10
10.8405671067
 20
76.5417662619
 30
0.0
 40
1.5875
  1
8
 41
0.7
 11
10.8405671067
 21
75.720603639
 31
0.0
 73
     1
  0
TEXT
  5
135
  8
0
  6
CONTINUOUS
 62
     7
 10
10.8405671067
 20
101.8669959236
 30
0.0
 40
1.5875
  1
7
 41
0.7
 11
10.8405671067
 21
101.0458333007
 31
0.0
 73
     1
  0
TEXT
  5
136
  8
0
  6
CONTINUOUS
 62
     7
 10
10.8405671067
 20
127.7878292569
 30
0.0
 40
1.5875
  1
6
 41
0.7
 11
10.8405671067
 21
126.966666634
 31
0.0
 73
     1
  0
TEXT
  5
137
  8
0
  6
CONTINUOUS
 62
     7
 10
10.8405671067
 20
153.1878292569
 30
0.0
 40
1.5875
  1
5
 41
0.7
 11
10.8405671067
 21
152.366666634
 31
0.0
 73
     1
  0
TEXT
  5
138
  8
0
  6
CONTINUOUS
 62
     7
 10
10.8405671067
 20
51.0669959236
 30
0.0
 40
1.5875
  1
9
 41
0.7
 11
10.8405671067
 21
50.2458333007
 31
0.0
 73
     1
  0
TEXT
  5
139
  8
0
  6
CONTINUOUS
 62
     7
 10
10.2511342134
 20
26.1878292569
 30
0.0
 40
1.5875
  1
10
 41
0.7
 11
10.2511342134
 21
25.366666634
 31
0.0
 73
     1
  0
TEXT
  5
13A
  8
0
  6
CONTINUOUS
 62
     7
 10
420.4155671067
 20
254.2669959236
 30
0.0
 40
1.5875
  1
1
 41
0.7
 11
420.4155671067
 21
253.4458333007
 31
0.0
 73
     1
  0
TEXT
  5
13B
  8
0
  6
CONTINUOUS
 62
     7
 10
420.4155671067
 20
228.8669959236
 30
0.0
 40
1.5875
  1
2
 41
0.7
 11
420.4155671067
 21
228.0458333007
 31
0.0
 73
     1
  0
TEXT
  5
13C
  8
0
  6
CONTINUOUS
 62
     7
 10
420.4155671067
 20
203.4669959236
 30
0.0
 40
1.5875
  1
3
 41
0.7
 11
420.4155671067
 21
202.6458333007
 31
0.0
 73
     1
  0
TEXT
  5
13D
  8
0
  6
CONTINUOUS
 62
     7
 10
420.4155671067
 20
178.0669959236
 30
0.0
 40
1.5875
  1
4
 41
0.7
 11
420.4155671067
 21
177.2458333007
 31
0.0
 73
     1
  0
TEXT
  5
13E
  8
0
  6
CONTINUOUS
 62
     7
 10
420.4155671067
 20
153.1878292569
 30
0.0
 40
1.5875
  1
5
 41
0.7
 11
420.4155671067
 21
152.366666634
 31
0.0
 73
     1
  0
TEXT
  5
13F
  8
0
  6
CONTINUOUS
 62
     7
 10
420.4155671067
 20
127.7878292569
 30
0.0
 40
1.5875
  1
6
 41
0.7
 11
420.4155671067
 21
126.966666634
 31
0.0
 73
     1
  0
TEXT
  5
140
  8
0
  6
CONTINUOUS
 62
     7
 10
420.4155671067
 20
101.8669959236
 30
0.0
 40
1.5875
  1
7
 41
0.7
 11
420.4155671067
 21
101.0458333007
 31
0.0
 73
     1
  0
TEXT
  5
141
  8
0
  6
CONTINUOUS
 62
     7
 10
420.4155671067
 20
76.4669959236
 30
0.0
 40
1.5875
  1
8
 41
0.7
 11
420.4155671067
 21
75.6458333007
 31
0.0
 73
     1
  0
TEXT
  5
142
  8
0
  6
CONTINUOUS
 62
     7
 10
420.4155671067
 20
51.0669959236
 30
0.0
 40
1.5875
  1
9
 41
0.7
 11
420.4155671067
 21
50.2458333007
 31
0.0
 73
     1
  0
TEXT
  5
143
  8
0
  6
CONTINUOUS
 62
     7
 10
419.8261342134
 20
26.1878292569
 30
0.0
 40
1.5875
  1
10
 41
0.7
 11
419.8261342134
 21
25.366666634
 31
0.0
 73
     1
  0
CIRCLE
  5
144
  8
0
  6
CONTINUOUS
 62
     7
 10
187.2960287471
 20
138.1920482371
 30
0.0
 40
1.600000000000023
  0
CIRCLE
  5
145
  8
0
  6
CONTINUOUS
 62
     7
 10
202.2960287471
 20
153.1920482371
 30
0.0
 40
1.600000000000023
  0
CIRCLE
  5
146
  8
0
  6
CONTINUOUS
 62
     7
 10
202.2960287471
 20
138.1920482371
 30
0.0
 40
1.600000000000023
  0
ARC
  5
147
  8
0
  6
CONTINUOUS
 62
     7
 10
204.5460287471
 20
170.4420482371
 30
0.0
 40
5.0
 50
0.0
 51
90.0
  0
LINE
  5
148
  8
0
  6
CONTINUOUS
 62
     7
 10
209.5460287471
 20
150.4420482371
 30
0.0
 11
209.5460287471
 21
170.4420482371
 31
0.0
  0
ARC
  5
149
  8
0
  6
CONTINUOUS
 62
     7
 10
214.5460287471
 20
150.4420482371
 30
0.0
 40
5.0
 50
180.0
 51
270.0
  0
LINE
  5
14A
  8
0
  6
CONTINUOUS
 62
     7
 10
219.5460287471
 20
145.4420482371
 30
0.0
 11
214.5460287471
 21
145.4420482371
 31
0.0
  0
ARC
  5
14B
  8
0
  6
CONTINUOUS
 62
     7
 10
219.5460287471
 20
140.4420482371
 30
0.0
 40
5.000000000000028
 50
0.0
 51
90.0
  0
LINE
  5
14C
  8
0
  6
CONTINUOUS
 62
     7
 10
224.5460287471
 20
135.9420482371
 30
0.0
 11
224.5460287471
 21
140.4420482371
 31
0.0
  0
ARC
  5
14D
  8
0
  6
CONTINUOUS
 62
     7
 10
219.5460287471
 20
135.9420482371
 30
0.0
 40
5.0
 50
270.0
 51
0.0
  0
LINE
  5
14E
  8
0
  6
CONTINUOUS
 62
     7
 10
185.0460287471
 20
130.9420482371
 30
0.0
 11
219.5460287471
 21
130.9420482371
 31
0.0
  0
ARC
  5
14F
  8
0
  6
CONTINUOUS
 62
     7
 10
185.0460287471
 20
135.9420482371
 30
0.0
 40
5.000000000000028
 50
180.0
 51
270.0
  0
LINE
  5
150
  8
0
  6
CONTINUOUS
 62
     7
 10
180.0460287471
 20
140.4420482371
 30
0.0
 11
180.0460287471
 21
135.9420482371
 31
0.0
  0
ARC
  5
151
  8
0
  6
CONTINUOUS
 62
     7
 10
185.0460287471
 20
140.4420482371
 30
0.0
 40
5.000000000000028
 50
90.0
 51
180.0
  0
LINE
  5
152
  8
0
  6
CONTINUOUS
 62
     7
 10
190.0460287471
 20
145.4420482371
 30
0.0
 11
185.0460287471
 21
145.4420482371
 31
0.0
  0
ARC
  5
153
  8
0
  6
CONTINUOUS
 62
     7
 10
190.0460287471
 20
150.4420482371
 30
0.0
 40
5.0
 50
270.0
 51
0.0
  0
LINE
  5
154
  8
0
  6
CONTINUOUS
 62
     7
 10
195.0460287471
 20
170.4420482371
 30
0.0
 11
195.0460287471
 21
150.4420482371
 31
0.0
  0
ARC
  5
155
  8
0
  6
CONTINUOUS
 62
     7
 10
200.0460287471
 20
170.4420482371
 30
0.0
 40
5.0
 50
90.0
 51
180.0
  0
LINE
  5
156
  8
0
  6
CONTINUOUS
 62
     7
 10
204.5460287471
 20
175.4420482371
 30
0.0
 11
200.0460287471
 21
175.4420482371
 31
0.0
  0
CIRCLE
  5
157
  8
0
  6
CONTINUOUS
 62
     7
 10
217.2960287471
 20
138.1920482371
 30
0.0
 40
1.599999999999966
  0
CIRCLE
  5
158
  8
0
  6
CONTINUOUS
 62
     7
 10
202.2960287471
 20
168.1920482371
 30
0.0
 40
1.599999999999994
  0
DIMENSION
  5
159
  8
0
  6
CONTINUOUS
 62
     7
  2
_D
 10
216.1695421603
 20
137.0558141196
 30
0.0
 11
253.4358952204
 21
156.0128328269
 31
0.0
 70
   163
  1
<> 5 PLACES
  3
SLDDIMSTYLE0
 15
218.4225153339
 25
139.3282823546
 35
0.0
 40
0.0
  0
DIMENSION
  5
16F
  8
0
  6
CONTINUOUS
 62
     7
  2
_D_1
 10
180.0460287471
 20
123.0624002618
 30
0.0
 11
202.2199137718
 21
123.0624002618
 31
0.0
 70
   160
  1
<>
  3
SLDDIMSTYLE1
 13
224.5460287471
 23
135.9420482371
 33
0.0
 14
180.0460287471
 24
135.9420482371
 34
0.0
  0
DIMENSION
  5
17A
  8
0
  6
CONTINUOUS
 62
     7
  2
_D_2
 10
170.0460287471
 20
175.4420482371
 30
0.0
 11
170.0460287471
 21
150.0055605982
 31
0.0
 70
   160
  1
<>
  3
SLDDIMSTYLE2
 13
185.0460287471
 23
130.9420482371
 33
0.0
 14
200.0460287471
 24
175.4420482371
 34
0.0
 50
90.0
  0
DIMENSION
  5
185
  8
0
  6
CONTINUOUS
 62
     7
  2
_D_3
 10
209.5460287471
 20
178.1591978541
 30
0.0
 11
220.0750573318
 21
178.1591978541
 31
0.0
 70
   160
  1
<>
  3
SLDDIMSTYLE2
 13
195.0460287471
 23
170.4420482371
 33
0.0
 14
209.5460287471
 24
170.4420482371
 34
0.0
  0
LINE
  5
190
  8
0
  6
CONTINUOUS
 62
     7
 10
293.8971650256
 20
145.4420482371
 30
0.0
 11
295.8971650256
 21
145.4420482371
 31
0.0
  0
LINE
  5
191
  8
0
  6
CONTINUOUS
 62
     7
 10
295.8971650256
 20
145.4420482371
 30
0.0
 11
295.8971650256
 21
140.4420482371
 31
0.0
  0
LINE
  5
192
  8
0
  6
CONTINUOUS
 62
     7
 10
295.8971650256
 20
140.4420482371
 30
0.0
 11
293.8971650256
 21
140.4420482371
 31
0.0
  0
LINE
  5
193
  8
0
  6
CONTINUOUS
 62
     7
 10
293.8971650256
 20
140.4420482371
 30
0.0
 11
293.8971650256
 21
145.4420482371
 31
0.0
  0
LINE
  5
194
  8
0
  6
CONTINUOUS
 62
     7
 10
293.8971650256
 20
135.9420482371
 30
0.0
 11
295.8971650256
 21
135.9420482371
 31
0.0
  0
LINE
  5
195
  8
0
  6
CONTINUOUS
 62
     7
 10
293.8971650256
 20
135.9420482371
 30
0.0
 11
293.8971650256
 21
140.4420482371
 31
0.0
  0
LINE
  5
196
  8
0
  6
CONTINUOUS
 62
     7
 10
295.8971650256
 20
135.9420482371
 30
0.0
 11
295.8971650256
 21
140.4420482371
 31
0.0
  0
LINE
  5
197
  8
0
  6
CONTINUOUS
 62
     7
 10
295.8971650256
 20
130.9420482371
 30
0.0
 11
293.8971650256
 21
130.9420482371
 31
0.0
  0
LINE
  5
198
  8
0
  6
CONTINUOUS
 62
     7
 10
293.8971650256
 20
130.9420482371
 30
0.0
 11
293.8971650256
 21
135.9420482371
 31
0.0
  0
LINE
  5
199
  8
0
  6
CONTINUOUS
 62
     7
 10
295.8971650256
 20
135.9420482371
 30
0.0
 11
295.8971650256
 21
130.9420482371
 31
0.0
  0
LINE
  5
19A
  8
0
  6
CONTINUOUS
 62
     7
 10
293.8971650256
 20
150.4420482371
 30
0.0
 11
295.8971650256
 21
150.4420482371
 31
0.0
  0
LINE
  5
19B
  8
0
  6
CONTINUOUS
 62
     7
 10
293.8971650256
 20
145.4420482371
 30
0.0
 11
293.8971650256
 21
150.4420482371
 31
0.0
  0
LINE
  5
19C
  8
0
  6
CONTINUOUS
 62
     7
 10
295.8971650256
 20
150.4420482371
 30
0.0
 11
295.8971650256
 21
145.4420482371
 31
0.0
  0
LINE
  5
19D
  8
0
  6
CONTINUOUS
 62
     7
 10
295.8971650256
 20
170.4420482371
 30
0.0
 11
293.8971650256
 21
170.4420482371
 31
0.0
  0
LINE
  5
19E
  8
0
  6
CONTINUOUS
 62
     7
 10
293.8971650256
 20
150.4420482371
 30
0.0
 11
293.8971650256
 21
170.4420482371
 31
0.0
  0
LINE
  5
19F
  8
0
  6
CONTINUOUS
 62
     7
 10
295.8971650256
 20
150.4420482371
 30
0.0
 11
295.8971650256
 21
170.4420482371
 31
0.0
  0
LINE
  5
1A0
  8
0
  6
CONTINUOUS
 62
     7
 10
293.8971650256
 20
175.4420482371
 30
0.0
 11
295.8971650256
 21
175.4420482371
 31
0.0
  0
LINE
  5
1A1
  8
0
  6
CONTINUOUS
 62
     7
 10
293.8971650256
 20
170.4420482371
 30
0.0
 11
293.8971650256
 21
175.4420482371
 31
0.0
  0
LINE
  5
1A2
  8
0
  6
CONTINUOUS
 62
     7
 10
295.8971650256
 20
175.4420482371
 30
0.0
 11
295.8971650256
 21
170.4420482371
 31
0.0
  0
LINE
  5
1A3
  8
0
  6
CONTINUOUS
 62
     7
 10
204.5460287471
 20
210.4435306544
 30
0.0
 11
204.5460287471
 21
212.4435306544
 31
0.0
  0
LINE
  5
1A4
  8
0
  6
CONTINUOUS
 62
     7
 10
204.5460287471
 20
212.4435306544
 30
0.0
 11
209.5460287471
 21
212.4435306544
 31
0.0
  0
LINE
  5
1A5
  8
0
  6
CONTINUOUS
 62
     7
 10
209.5460287471
 20
212.4435306544
 30
0.0
 11
209.5460287471
 21
210.4435306544
 31
0.0
  0
LINE
  5
1A6
  8
0
  6
CONTINUOUS
 62
     7
 10
209.5460287471
 20
210.4435306544
 30
0.0
 11
204.5460287471
 21
210.4435306544
 31
0.0
  0
LINE
  5
1A7
  8
0
  6
CONTINUOUS
 62
     7
 10
204.5460287471
 20
210.4435306544
 30
0.0
 11
200.0460287471
 21
210.4435306544
 31
0.0
  0
LINE
  5
1A8
  8
0
  6
CONTINUOUS
 62
     7
 10
200.0460287471
 20
212.4435306544
 30
0.0
 11
200.0460287471
 21
210.4435306544
 31
0.0
  0
LINE
  5
1A9
  8
0
  6
CONTINUOUS
 62
     7
 10
204.5460287471
 20
212.4435306544
 30
0.0
 11
200.0460287471
 21
212.4435306544
 31
0.0
  0
LINE
  5
1AA
  8
0
  6
CONTINUOUS
 62
     7
 10
195.0460287471
 20
210.4435306544
 30
0.0
 11
195.0460287471
 21
212.4435306544
 31
0.0
  0
LINE
  5
1AB
  8
0
  6
CONTINUOUS
 62
     7
 10
200.0460287471
 20
210.4435306544
 30
0.0
 11
195.0460287471
 21
210.4435306544
 31
0.0
  0
LINE
  5
1AC
  8
0
  6
CONTINUOUS
 62
     7
 10
195.0460287471
 20
212.4435306544
 30
0.0
 11
200.0460287471
 21
212.4435306544
 31
0.0
  0
LINE
  5
1AD
  8
0
  6
CONTINUOUS
 62
     7
 10
190.0460287471
 20
210.4435306544
 30
0.0
 11
190.0460287471
 21
212.4435306544
 31
0.0
  0
LINE
  5
1AE
  8
0
  6
CONTINUOUS
 62
     7
 10
195.0460287471
 20
210.4435306544
 30
0.0
 11
190.0460287471
 21
210.4435306544
 31
0.0
  0
LINE
  5
1AF
  8
0
  6
CONTINUOUS
 62
     7
 10
190.0460287471
 20
212.4435306544
 30
0.0
 11
195.0460287471
 21
212.4435306544
 31
0.0
  0
LINE
  5
1B0
  8
0
  6
CONTINUOUS
 62
     7
 10
214.5460287471
 20
212.4435306544
 30
0.0
 11
214.5460287471
 21
210.4435306544
 31
0.0
  0
LINE
  5
1B1
  8
0
  6
CONTINUOUS
 62
     7
 10
214.5460287471
 20
210.4435306544
 30
0.0
 11
209.5460287471
 21
210.4435306544
 31
0.0
  0
LINE
  5
1B2
  8
0
  6
CONTINUOUS
 62
     7
 10
209.5460287471
 20
212.4435306544
 30
0.0
 11
214.5460287471
 21
212.4435306544
 31
0.0
  0
LINE
  5
1B3
  8
0
  6
CONTINUOUS
 62
     7
 10
219.5460287471
 20
210.4435306544
 30
0.0
 11
219.5460287471
 21
212.4435306544
 31
0.0
  0
LINE
  5
1B4
  8
0
  6
CONTINUOUS
 62
     7
 10
224.5460287471
 20
212.4435306544
 30
0.0
 11
224.5460287471
 21
210.4435306544
 31
0.0
  0
LINE
  5
1B5
  8
0
  6
CONTINUOUS
 62
     7
 10
224.5460287471
 20
210.4435306544
 30
0.0
 11
219.5460287471
 21
210.4435306544
 31
0.0
  0
LINE
  5
1B6
  8
0
  6
CONTINUOUS
 62
     7
 10
219.5460287471
 20
212.4435306544
 30
0.0
 11
224.5460287471
 21
212.4435306544
 31
0.0
  0
LINE
  5
1B7
  8
0
  6
CONTINUOUS
 62
     7
 10
180.0460287471
 20
210.4435306544
 30
0.0
 11
180.0460287471
 21
212.4435306544
 31
0.0
  0
LINE
  5
1B8
  8
0
  6
CONTINUOUS
 62
     7
 10
185.0460287471
 20
212.4435306544
 30
0.0
 11
185.0460287471
 21
210.4435306544
 31
0.0
  0
LINE
  5
1B9
  8
0
  6
CONTINUOUS
 62
     7
 10
185.0460287471
 20
210.4435306544
 30
0.0
 11
180.0460287471
 21
210.4435306544
 31
0.0
  0
LINE
  5
1BA
  8
0
  6
CONTINUOUS
 62
     7
 10
180.0460287471
 20
212.4435306544
 30
0.0
 11
185.0460287471
 21
212.4435306544
 31
0.0
  0
LINE
  5
1BB
  8
0
  6
CONTINUOUS
 62
     7
 10
190.0460287471
 20
210.4435306544
 30
0.0
 11
185.0460287471
 21
210.4435306544
 31
0.0
  0
LINE
  5
1BC
  8
0
  6
CONTINUOUS
 62
     7
 10
190.0460287471
 20
212.4435306544
 30
0.0
 11
185.0460287471
 21
212.4435306544
 31
0.0
  0
LINE
  5
1BD
  8
0
  6
CONTINUOUS
 62
     7
 10
219.5460287471
 20
210.4435306544
 30
0.0
 11
214.5460287471
 21
210.4435306544
 31
0.0
  0
LINE
  5
1BE
  8
0
  6
CONTINUOUS
 62
     7
 10
219.5460287471
 20
212.4435306544
 30
0.0
 11
214.5460287471
 21
212.4435306544
 31
0.0
  0
DIMENSION
  5
1BF
  8
0
  6
CONTINUOUS
 62
     7
  2
_D_4
 10
170.0460287471
 20
212.4435306544
 30
0.0
 11
170.0460287471
 21
223.6055373297
 31
0.0
 70
   160
  1
<>
  3
SLDDIMSTYLE3
 13
185.0460287471
 23
210.4435306544
 33
0.0
 14
185.0460287471
 24
212.4435306544
 34
0.0
 50
90.0
  0
INSERT
  5
1E6
  8
0
  6
CONTINUOUS
 62
     7
  2
SW_GTOL_0
 10
220.5460287471
 20
210.4435306544
 30
0.0
  0
LINE
  5
1E7
  8
0
  6
CONTINUOUS
 62
     7
 10
373.1073914147
 20
247.0282163253
 30
0.0
 11
371.6931778523
 21
246.2118082135
 31
0.0
  0
LINE
  5
1E8
  8
0
  6
CONTINUOUS
 62
     7
 10
390.4813537486
 20
201.4206824893
 30
0.0
 11
391.895567311
 21
202.2370906011
 31
0.0
  0
LINE
  5
1E9
  8
0
  6
CONTINUOUS
 62
     7
 10
362.5007896969
 20
228.6550528074
 30
0.0
 11
361.0865761345
 21
227.8386446956
 31
0.0
  0
POLYLINE
  5
1EA
  8
0
  6
CONTINUOUS
 62
     7
 66
     1
 10
0.0
 20
0.0
 30
0.0
  0
VERTEX
  5
235
  8
0
  6
CONTINUOUS
 62
     7
 10
364.0459923739
 20
221.4058509206
 30
0.0
  0
VERTEX
  5
236
  8
0
  6
CONTINUOUS
 62
     7
 10
364.0614227976
 20
221.1819060059
 30
0.0
  0
VERTEX
  5
237
  8
0
  6
CONTINUOUS
 62
     7
 10
364.1072931672
 20
220.9462541367
 30
0.0
  0
VERTEX
  5
238
  8
0
  6
CONTINUOUS
 62
     7
 10
364.1823522584
 20
220.7053232816
 30
0.0
  0
VERTEX
  5
239
  8
0
  6
CONTINUOUS
 62
     7
 10
364.284552655
 20
220.4656854064
 30
0.0
  0
VERTEX
  5
23A
  8
0
  6
CONTINUOUS
 62
     7
 10
364.4111065965
 20
220.2338772074
 30
0.0
  0
VERTEX
  5
23B
  8
0
  6
CONTINUOUS
 62
     7
 10
364.5585620213
 20
220.0162218082
 30
0.0
  0
VERTEX
  5
23C
  8
0
  6
CONTINUOUS
 62
     7
 10
364.7228967298
 20
219.8186562806
 30
0.0
  0
VERTEX
  5
23D
  8
0
  6
CONTINUOUS
 62
     7
 10
364.8996280995
 20
219.6465696972
 30
0.0
  0
VERTEX
  5
23E
  8
0
  6
CONTINUOUS
 62
     7
 10
365.0839353595
 20
219.5046561315
 30
0.0
  0
VERTEX
  5
23F
  8
0
  6
CONTINUOUS
 62
     7
 10
365.270791088
 20
219.3967866155
 30
0.0
  0
VERTEX
  5
240
  8
0
  6
CONTINUOUS
 62
     7
 10
365.455098348
 20
219.3259035484
 30
0.0
  0
VERTEX
  5
241
  8
0
  6
CONTINUOUS
 62
     7
 10
365.6318297178
 20
219.2939404355
 30
0.0
  0
VERTEX
  5
242
  8
0
  6
CONTINUOUS
 62
     7
 10
365.7961644263
 20
219.3017691473
 30
0.0
  0
VERTEX
  5
243
  8
0
  6
CONTINUOUS
 62
     7
 10
365.9436198511
 20
219.3491761369
 30
0.0
  0
VERTEX
  5
244
  8
0
  6
CONTINUOUS
 62
     7
 10
366.0701737926
 20
219.4348682652
 30
0.0
  0
VERTEX
  5
245
  8
0
  6
CONTINUOUS
 62
     7
 10
366.1723741891
 20
219.5565080743
 30
0.0
  0
VERTEX
  5
246
  8
0
  6
CONTINUOUS
 62
     7
 10
366.2474332804
 20
219.7107775472
 30
0.0
  0
VERTEX
  5
247
  8
0
  6
CONTINUOUS
 62
     7
 10
366.2933036499
 20
219.8934686151
 30
0.0
  0
VERTEX
  5
248
  8
0
  6
CONTINUOUS
 62
     7
 10
366.3087340737
 20
220.0995979417
 30
0.0
  0
VERTEX
  5
249
  8
0
  6
CONTINUOUS
 62
     7
 10
366.2933036499
 20
220.3235428563
 30
0.0
  0
VERTEX
  5
24A
  8
0
  6
CONTINUOUS
 62
     7
 10
366.2474332804
 20
220.5591947255
 30
0.0
  0
VERTEX
  5
24B
  8
0
  6
CONTINUOUS
 62
     7
 10
366.1723741891
 20
220.8001255806
 30
0.0
  0
VERTEX
  5
24C
  8
0
  6
CONTINUOUS
 62
     7
 10
366.0701737926
 20
221.0397634559
 30
0.0
  0
VERTEX
  5
24D
  8
0
  6
CONTINUOUS
 62
     7
 10
365.9436198511
 20
221.2715716548
 30
0.0
  0
VERTEX
  5
24E
  8
0
  6
CONTINUOUS
 62
     7
 10
365.7961644263
 20
221.489227054
 30
0.0
  0
VERTEX
  5
24F
  8
0
  6
CONTINUOUS
 62
     7
 10
365.6318297178
 20
221.6867925816
 30
0.0
  0
VERTEX
  5
250
  8
0
  6
CONTINUOUS
 62
     7
 10
365.455098348
 20
221.858879165
 30
0.0
  0
VERTEX
  5
251
  8
0
  6
CONTINUOUS
 62
     7
 10
365.270791088
 20
222.0007927308
 30
0.0
  0
VERTEX
  5
252
  8
0
  6
CONTINUOUS
 62
     7
 10
365.0839353595
 20
222.1086622468
 30
0.0
  0
VERTEX
  5
253
  8
0
  6
CONTINUOUS
 62
     7
 10
364.8996280995
 20
222.1795453139
 30
0.0
  0
VERTEX
  5
254
  8
0
  6
CONTINUOUS
 62
     7
 10
364.7228967298
 20
222.2115084267
 30
0.0
  0
VERTEX
  5
255
  8
0
  6
CONTINUOUS
 62
     7
 10
364.5585620213
 20
222.2036797149
 30
0.0
  0
VERTEX
  5
256
  8
0
  6
CONTINUOUS
 62
     7
 10
364.4111065965
 20
222.1562727253
 30
0.0
  0
VERTEX
  5
257
  8
0
  6
CONTINUOUS
 62
     7
 10
364.284552655
 20
222.070580597
 30
0.0
  0
VERTEX
  5
258
  8
0
  6
CONTINUOUS
 62
     7
 10
364.1823522584
 20
221.948940788
 30
0.0
  0
VERTEX
  5
259
  8
0
  6
CONTINUOUS
 62
     7
 10
364.1072931672
 20
221.794671315
 30
0.0
  0
VERTEX
  5
25A
  8
0
  6
CONTINUOUS
 62
     7
 10
364.0614227976
 20
221.6119802471
 30
0.0
  0
VERTEX
  5
25B
  8
0
  6
CONTINUOUS
 62
     7
 10
364.0459923739
 20
221.4058509206
 30
0.0
  0
SEQEND
  5
2FC
  8
0
  6
CONTINUOUS
 62
     7
  0
POLYLINE
  5
1EB
  8
0
  6
CONTINUOUS
 62
     7
 66
     1
 10
0.0
 20
0.0
 30
0.0
  0
VERTEX
  5
25C
  8
0
  6
CONTINUOUS
 62
     7
 10
376.9153357915
 20
226.2246492813
 30
0.0
  0
VERTEX
  5
25D
  8
0
  6
CONTINUOUS
 62
     7
 10
376.8999053677
 20
226.4485941959
 30
0.0
  0
VERTEX
  5
25E
  8
0
  6
CONTINUOUS
 62
     7
 10
376.8540349982
 20
226.6842460651
 30
0.0
  0
VERTEX
  5
25F
  8
0
  6
CONTINUOUS
 62
     7
 10
376.7789759069
 20
226.9251769202
 30
0.0
  0
VERTEX
  5
260
  8
0
  6
CONTINUOUS
 62
     7
 10
376.6767755104
 20
227.1648147955
 30
0.0
  0
VERTEX
  5
261
  8
0
  6
CONTINUOUS
 62
     7
 10
376.5502215689
 20
227.3966229944
 30
0.0
  0
VERTEX
  5
262
  8
0
  6
CONTINUOUS
 62
     7
 10
376.4027661441
 20
227.6142783936
 30
0.0
  0
VERTEX
  5
263
  8
0
  6
CONTINUOUS
 62
     7
 10
376.2384314356
 20
227.8118439212
 30
0.0
  0
VERTEX
  5
264
  8
0
  6
CONTINUOUS
 62
     7
 10
376.0617000658
 20
227.9839305046
 30
0.0
  0
VERTEX
  5
265
  8
0
  6
CONTINUOUS
 62
     7
 10
375.8773928058
 20
228.1258440704
 30
0.0
  0
VERTEX
  5
266
  8
0
  6
CONTINUOUS
 62
     7
 10
375.6905370773
 20
228.2337135864
 30
0.0
  0
VERTEX
  5
267
  8
0
  6
CONTINUOUS
 62
     7
 10
375.5062298173
 20
228.3045966535
 30
0.0
  0
VERTEX
  5
268
  8
0
  6
CONTINUOUS
 62
     7
 10
375.3294984476
 20
228.3365597663
 30
0.0
  0
VERTEX
  5
269
  8
0
  6
CONTINUOUS
 62
     7
 10
375.1651637391
 20
228.3287310545
 30
0.0
  0
VERTEX
  5
26A
  8
0
  6
CONTINUOUS
 62
     7
 10
375.0177083143
 20
228.2813240649
 30
0.0
  0
VERTEX
  5
26B
  8
0
  6
CONTINUOUS
 62
     7
 10
374.8911543728
 20
228.1956319367
 30
0.0
  0
VERTEX
  5
26C
  8
0
  6
CONTINUOUS
 62
     7
 10
374.7889539762
 20
228.0739921276
 30
0.0
  0
VERTEX
  5
26D
  8
0
  6
CONTINUOUS
 62
     7
 10
374.713894885
 20
227.9197226546
 30
0.0
  0
VERTEX
  5
26E
  8
0
  6
CONTINUOUS
 62
     7
 10
374.6680245154
 20
227.7370315868
 30
0.0
  0
VERTEX
  5
26F
  8
0
  6
CONTINUOUS
 62
     7
 10
374.6525940917
 20
227.5309022602
 30
0.0
  0
VERTEX
  5
270
  8
0
  6
CONTINUOUS
 62
     7
 10
374.6680245154
 20
227.3069573456
 30
0.0
  0
VERTEX
  5
271
  8
0
  6
CONTINUOUS
 62
     7
 10
374.713894885
 20
227.0713054763
 30
0.0
  0
VERTEX
  5
272
  8
0
  6
CONTINUOUS
 62
     7
 10
374.7889539762
 20
226.8303746213
 30
0.0
  0
VERTEX
  5
273
  8
0
  6
CONTINUOUS
 62
     7
 10
374.8911543728
 20
226.590736746
 30
0.0
  0
VERTEX
  5
274
  8
0
  6
CONTINUOUS
 62
     7
 10
375.0177083143
 20
226.358928547
 30
0.0
  0
VERTEX
  5
275
  8
0
  6
CONTINUOUS
 62
     7
 10
375.1651637391
 20
226.1412731478
 30
0.0
  0
VERTEX
  5
276
  8
0
  6
CONTINUOUS
 62
     7
 10
375.3294984476
 20
225.9437076202
 30
0.0
  0
VERTEX
  5
277
  8
0
  6
CONTINUOUS
 62
     7
 10
375.5062298173
 20
225.7716210369
 30
0.0
  0
VERTEX
  5
278
  8
0
  6
CONTINUOUS
 62
     7
 10
375.6905370773
 20
225.6297074711
 30
0.0
  0
VERTEX
  5
279
  8
0
  6
CONTINUOUS
 62
     7
 10
375.8773928058
 20
225.5218379551
 30
0.0
  0
VERTEX
  5
27A
  8
0
  6
CONTINUOUS
 62
     7
 10
376.0617000658
 20
225.450954888
 30
0.0
  0
VERTEX
  5
27B
  8
0
  6
CONTINUOUS
 62
     7
 10
376.2384314356
 20
225.4189917752
 30
0.0
  0
VERTEX
  5
27C
  8
0
  6
CONTINUOUS
 62
     7
 10
376.4027661441
 20
225.4268204869
 30
0.0
  0
VERTEX
  5
27D
  8
0
  6
CONTINUOUS
 62
     7
 10
376.5502215689
 20
225.4742274765
 30
0.0
  0
VERTEX
  5
27E
  8
0
  6
CONTINUOUS
 62
     7
 10
376.6767755104
 20
225.5599196048
 30
0.0
  0
VERTEX
  5
27F
  8
0
  6
CONTINUOUS
 62
     7
 10
376.7789759069
 20
225.6815594139
 30
0.0
  0
VERTEX
  5
280
  8
0
  6
CONTINUOUS
 62
     7
 10
376.8540349982
 20
225.8358288869
 30
0.0
  0
VERTEX
  5
281
  8
0
  6
CONTINUOUS
 62
     7
 10
376.8999053677
 20
226.0185199547
 30
0.0
  0
VERTEX
  5
282
  8
0
  6
CONTINUOUS
 62
     7
 10
376.9153357915
 20
226.2246492813
 30
0.0
  0
SEQEND
  5
2FB
  8
0
  6
CONTINUOUS
 62
     7
  0
POLYLINE
  5
1EC
  8
0
  6
CONTINUOUS
 62
     7
 66
     1
 10
0.0
 20
0.0
 30
0.0
  0
VERTEX
  5
283
  8
0
  6
CONTINUOUS
 62
     7
 10
376.9153357915
 20
213.976537103
 30
0.0
  0
VERTEX
  5
284
  8
0
  6
CONTINUOUS
 62
     7
 10
376.8999053677
 20
214.2004820176
 30
0.0
  0
VERTEX
  5
285
  8
0
  6
CONTINUOUS
 62
     7
 10
376.8540349982
 20
214.4361338868
 30
0.0
  0
VERTEX
  5
286
  8
0
  6
CONTINUOUS
 62
     7
 10
376.7789759069
 20
214.6770647419
 30
0.0
  0
VERTEX
  5
287
  8
0
  6
CONTINUOUS
 62
     7
 10
376.6767755104
 20
214.9167026172
 30
0.0
  0
VERTEX
  5
288
  8
0
  6
CONTINUOUS
 62
     7
 10
376.5502215689
 20
215.1485108161
 30
0.0
  0
VERTEX
  5
289
  8
0
  6
CONTINUOUS
 62
     7
 10
376.4027661441
 20
215.3661662154
 30
0.0
  0
VERTEX
  5
28A
  8
0
  6
CONTINUOUS
 62
     7
 10
376.2384314356
 20
215.5637317429
 30
0.0
  0
VERTEX
  5
28B
  8
0
  6
CONTINUOUS
 62
     7
 10
376.0617000658
 20
215.7358183263
 30
0.0
  0
VERTEX
  5
28C
  8
0
  6
CONTINUOUS
 62
     7
 10
375.8773928058
 20
215.8777318921
 30
0.0
  0
VERTEX
  5
28D
  8
0
  6
CONTINUOUS
 62
     7
 10
375.6905370773
 20
215.9856014081
 30
0.0
  0
VERTEX
  5
28E
  8
0
  6
CONTINUOUS
 62
     7
 10
375.5062298173
 20
216.0564844752
 30
0.0
  0
VERTEX
  5
28F
  8
0
  6
CONTINUOUS
 62
     7
 10
375.3294984476
 20
216.088447588
 30
0.0
  0
VERTEX
  5
290
  8
0
  6
CONTINUOUS
 62
     7
 10
375.1651637391
 20
216.0806188762
 30
0.0
  0
VERTEX
  5
291
  8
0
  6
CONTINUOUS
 62
     7
 10
375.0177083143
 20
216.0332118866
 30
0.0
  0
VERTEX
  5
292
  8
0
  6
CONTINUOUS
 62
     7
 10
374.8911543728
 20
215.9475197584
 30
0.0
  0
VERTEX
  5
293
  8
0
  6
CONTINUOUS
 62
     7
 10
374.7889539762
 20
215.8258799493
 30
0.0
  0
VERTEX
  5
294
  8
0
  6
CONTINUOUS
 62
     7
 10
374.713894885
 20
215.6716104763
 30
0.0
  0
VERTEX
  5
295
  8
0
  6
CONTINUOUS
 62
     7
 10
374.6680245154
 20
215.4889194085
 30
0.0
  0
VERTEX
  5
296
  8
0
  6
CONTINUOUS
 62
     7
 10
374.6525940917
 20
215.2827900819
 30
0.0
  0
VERTEX
  5
297
  8
0
  6
CONTINUOUS
 62
     7
 10
374.6680245154
 20
215.0588451673
 30
0.0
  0
VERTEX
  5
298
  8
0
  6
CONTINUOUS
 62
     7
 10
374.713894885
 20
214.8231932981
 30
0.0
  0
VERTEX
  5
299
  8
0
  6
CONTINUOUS
 62
     7
 10
374.7889539762
 20
214.582262443
 30
0.0
  0
VERTEX
  5
29A
  8
0
  6
CONTINUOUS
 62
     7
 10
374.8911543728
 20
214.3426245677
 30
0.0
  0
VERTEX
  5
29B
  8
0
  6
CONTINUOUS
 62
     7
 10
375.0177083143
 20
214.1108163687
 30
0.0
  0
VERTEX
  5
29C
  8
0
  6
CONTINUOUS
 62
     7
 10
375.1651637391
 20
213.8931609695
 30
0.0
  0
VERTEX
  5
29D
  8
0
  6
CONTINUOUS
 62
     7
 10
375.3294984476
 20
213.6955954419
 30
0.0
  0
VERTEX
  5
29E
  8
0
  6
CONTINUOUS
 62
     7
 10
375.5062298173
 20
213.5235088586
 30
0.0
  0
VERTEX
  5
29F
  8
0
  6
CONTINUOUS
 62
     7
 10
375.6905370773
 20
213.3815952928
 30
0.0
  0
VERTEX
  5
2A0
  8
0
  6
CONTINUOUS
 62
     7
 10
375.8773928058
 20
213.2737257768
 30
0.0
  0
VERTEX
  5
2A1
  8
0
  6
CONTINUOUS
 62
     7
 10
376.0617000658
 20
213.2028427097
 30
0.0
  0
VERTEX
  5
2A2
  8
0
  6
CONTINUOUS
 62
     7
 10
376.2384314356
 20
213.1708795969
 30
0.0
  0
VERTEX
  5
2A3
  8
0
  6
CONTINUOUS
 62
     7
 10
376.4027661441
 20
213.1787083087
 30
0.0
  0
VERTEX
  5
2A4
  8
0
  6
CONTINUOUS
 62
     7
 10
376.5502215689
 20
213.2261152982
 30
0.0
  0
VERTEX
  5
2A5
  8
0
  6
CONTINUOUS
 62
     7
 10
376.6767755104
 20
213.3118074265
 30
0.0
  0
VERTEX
  5
2A6
  8
0
  6
CONTINUOUS
 62
     7
 10
376.7789759069
 20
213.4334472356
 30
0.0
  0
VERTEX
  5
2A7
  8
0
  6
CONTINUOUS
 62
     7
 10
376.8540349982
 20
213.5877167086
 30
0.0
  0
VERTEX
  5
2A8
  8
0
  6
CONTINUOUS
 62
     7
 10
376.8999053677
 20
213.7704077764
 30
0.0
  0
VERTEX
  5
2A9
  8
0
  6
CONTINUOUS
 62
     7
 10
376.9153357915
 20
213.976537103
 30
0.0
  0
SEQEND
  5
2FA
  8
0
  6
CONTINUOUS
 62
     7
  0
ARC
  5
1ED
  8
0
  6
CONTINUOUS
 62
     7
 10
373.2344085983
 20
237.6543211091
 30
0.0
 40
7.684024037860409
 50
2.6054784857
 51
57.39452166
  0
LINE
  5
1EE
  8
0
  6
CONTINUOUS
 62
     7
 10
380.9104891052
 20
221.6728091327
 30
0.0
 11
380.9104891052
 21
238.0036253704
 31
0.0
  0
ARC
  5
1EF
  8
0
  6
CONTINUOUS
 62
     7
 10
388.586569612
 20
222.022113394
 30
0.0
 40
7.684024037860228
 50
182.6054784857
 51
237.39452166
  0
LINE
  5
1F0
  8
0
  6
CONTINUOUS
 62
     7
 10
387.981556917
 20
213.5080645141
 30
0.0
 11
384.4460230111
 21
215.5490847937
 31
0.0
  0
ARC
  5
1F1
  8
0
  6
CONTINUOUS
 62
     7
 10
383.8410103161
 20
207.0350359139
 30
0.0
 40
7.6840240378604
 50
2.6054784857
 51
57.39452166
  0
LINE
  5
1F2
  8
0
  6
CONTINUOUS
 62
     7
 10
391.517090823
 20
203.7099065217
 30
0.0
 11
391.517090823
 21
207.3843401752
 31
0.0
  0
ARC
  5
1F3
  8
0
  6
CONTINUOUS
 62
     7
 10
389.3617189858
 20
203.3602705372
 30
0.0
 40
2.183545987142445
 50
230.7967147643
 51
9.2140369905
  0
LINE
  5
1F4
  8
0
  6
CONTINUOUS
 62
     7
 10
363.5863729661
 20
215.7512626707
 30
0.0
 11
387.981556917
 21
201.6682227418
 31
0.0
  0
ARC
  5
1F5
  8
0
  6
CONTINUOUS
 62
     7
 10
367.726919567
 20
222.224291271
 30
0.0
 40
7.684024037860108
 50
182.6054784857
 51
237.39452166
  0
LINE
  5
1F6
  8
0
  6
CONTINUOUS
 62
     7
 10
360.0508390602
 20
225.5494206632
 30
0.0
 11
360.0508390602
 21
221.8749870097
 31
0.0
  0
ARC
  5
1F7
  8
0
  6
CONTINUOUS
 62
     7
 10
362.2062108973
 20
225.8990566477
 30
0.0
 40
2.183545987142357
 50
50.7967147643
 51
189.2140369905
  0
LINE
  5
1F8
  8
0
  6
CONTINUOUS
 62
     7
 10
367.121906872
 20
225.5500841635
 30
0.0
 11
363.5863729661
 21
227.5911044431
 31
0.0
  0
ARC
  5
1F9
  8
0
  6
CONTINUOUS
 62
     7
 10
368.5020689408
 20
227.2421319589
 30
0.0
 40
2.183545987142421
 50
230.7967147643
 51
9.2140369905
  0
LINE
  5
1FA
  8
0
  6
CONTINUOUS
 62
     7
 10
370.657440778
 20
243.9225841811
 30
0.0
 11
370.657440778
 21
227.5917679434
 31
0.0
  0
ARC
  5
1FB
  8
0
  6
CONTINUOUS
 62
     7
 10
372.8128126151
 20
244.2722201656
 30
0.0
 40
2.183545987142423
 50
50.7967147643
 51
189.2140369905
  0
LINE
  5
1FC
  8
0
  6
CONTINUOUS
 62
     7
 10
377.3749551992
 20
244.1273497094
 30
0.0
 11
374.1929746839
 21
245.964267961
 31
0.0
  0
POLYLINE
  5
1FD
  8
0
  6
CONTINUOUS
 62
     7
 66
     1
 10
0.0
 20
0.0
 30
0.0
  0
VERTEX
  5
2AA
  8
0
  6
CONTINUOUS
 62
     7
 10
387.5219375093
 20
207.8534762643
 30
0.0
  0
VERTEX
  5
2AB
  8
0
  6
CONTINUOUS
 62
     7
 10
387.5065070855
 20
208.077421179
 30
0.0
  0
VERTEX
  5
2AC
  8
0
  6
CONTINUOUS
 62
     7
 10
387.460636716
 20
208.3130730482
 30
0.0
  0
VERTEX
  5
2AD
  8
0
  6
CONTINUOUS
 62
     7
 10
387.3855776247
 20
208.5540039032
 30
0.0
  0
VERTEX
  5
2AE
  8
0
  6
CONTINUOUS
 62
     7
 10
387.2833772282
 20
208.7936417785
 30
0.0
  0
VERTEX
  5
2AF
  8
0
  6
CONTINUOUS
 62
     7
 10
387.1568232867
 20
209.0254499775
 30
0.0
  0
VERTEX
  5
2B0
  8
0
  6
CONTINUOUS
 62
     7
 10
387.0093678619
 20
209.2431053767
 30
0.0
  0
VERTEX
  5
2B1
  8
0
  6
CONTINUOUS
 62
     7
 10
386.8450331534
 20
209.4406709043
 30
0.0
  0
VERTEX
  5
2B2
  8
0
  6
CONTINUOUS
 62
     7
 10
386.6683017836
 20
209.6127574877
 30
0.0
  0
VERTEX
  5
2B3
  8
0
  6
CONTINUOUS
 62
     7
 10
386.4839945236
 20
209.7546710534
 30
0.0
  0
VERTEX
  5
2B4
  8
0
  6
CONTINUOUS
 62
     7
 10
386.2971387951
 20
209.8625405694
 30
0.0
  0
VERTEX
  5
2B5
  8
0
  6
CONTINUOUS
 62
     7
 10
386.1128315351
 20
209.9334236365
 30
0.0
  0
VERTEX
  5
2B6
  8
0
  6
CONTINUOUS
 62
     7
 10
385.9361001654
 20
209.9653867493
 30
0.0
  0
VERTEX
  5
2B7
  8
0
  6
CONTINUOUS
 62
     7
 10
385.7717654569
 20
209.9575580376
 30
0.0
  0
VERTEX
  5
2B8
  8
0
  6
CONTINUOUS
 62
     7
 10
385.6243100321
 20
209.910151048
 30
0.0
  0
VERTEX
  5
2B9
  8
0
  6
CONTINUOUS
 62
     7
 10
385.4977560906
 20
209.8244589197
 30
0.0
  0
VERTEX
  5
2BA
  8
0
  6
CONTINUOUS
 62
     7
 10
385.395555694
 20
209.7028191106
 30
0.0
  0
VERTEX
  5
2BB
  8
0
  6
CONTINUOUS
 62
     7
 10
385.3204966028
 20
209.5485496376
 30
0.0
  0
VERTEX
  5
2BC
  8
0
  6
CONTINUOUS
 62
     7
 10
385.2746262332
 20
209.3658585698
 30
0.0
  0
VERTEX
  5
2BD
  8
0
  6
CONTINUOUS
 62
     7
 10
385.2591958095
 20
209.1597292432
 30
0.0
  0
VERTEX
  5
2BE
  8
0
  6
CONTINUOUS
 62
     7
 10
385.2746262332
 20
208.9357843286
 30
0.0
  0
VERTEX
  5
2BF
  8
0
  6
CONTINUOUS
 62
     7
 10
385.3204966028
 20
208.7001324594
 30
0.0
  0
VERTEX
  5
2C0
  8
0
  6
CONTINUOUS
 62
     7
 10
385.395555694
 20
208.4592016043
 30
0.0
  0
VERTEX
  5
2C1
  8
0
  6
CONTINUOUS
 62
     7
 10
385.4977560906
 20
208.219563729
 30
0.0
  0
VERTEX
  5
2C2
  8
0
  6
CONTINUOUS
 62
     7
 10
385.6243100321
 20
207.9877555301
 30
0.0
  0
VERTEX
  5
2C3
  8
0
  6
CONTINUOUS
 62
     7
 10
385.7717654569
 20
207.7701001309
 30
0.0
  0
VERTEX
  5
2C4
  8
0
  6
CONTINUOUS
 62
     7
 10
385.9361001654
 20
207.5725346033
 30
0.0
  0
VERTEX
  5
2C5
  8
0
  6
CONTINUOUS
 62
     7
 10
386.1128315351
 20
207.4004480199
 30
0.0
  0
VERTEX
  5
2C6
  8
0
  6
CONTINUOUS
 62
     7
 10
386.2971387951
 20
207.2585344541
 30
0.0
  0
VERTEX
  5
2C7
  8
0
  6
CONTINUOUS
 62
     7
 10
386.4839945236
 20
207.1506649381
 30
0.0
  0
VERTEX
  5
2C8
  8
0
  6
CONTINUOUS
 62
     7
 10
386.6683017836
 20
207.079781871
 30
0.0
  0
VERTEX
  5
2C9
  8
0
  6
CONTINUOUS
 62
     7
 10
386.8450331534
 20
207.0478187582
 30
0.0
  0
VERTEX
  5
2CA
  8
0
  6
CONTINUOUS
 62
     7
 10
387.0093678619
 20
207.05564747
 30
0.0
  0
VERTEX
  5
2CB
  8
0
  6
CONTINUOUS
 62
     7
 10
387.1568232867
 20
207.1030544596
 30
0.0
  0
VERTEX
  5
2CC
  8
0
  6
CONTINUOUS
 62
     7
 10
387.2833772282
 20
207.1887465878
 30
0.0
  0
VERTEX
  5
2CD
  8
0
  6
CONTINUOUS
 62
     7
 10
387.3855776247
 20
207.3103863969
 30
0.0
  0
VERTEX
  5
2CE
  8
0
  6
CONTINUOUS
 62
     7
 10
387.460636716
 20
207.4646558699
 30
0.0
  0
VERTEX
  5
2CF
  8
0
  6
CONTINUOUS
 62
     7
 10
387.5065070855
 20
207.6473469377
 30
0.0
  0
VERTEX
  5
2D0
  8
0
  6
CONTINUOUS
 62
     7
 10
387.5219375093
 20
207.8534762643
 30
0.0
  0
SEQEND
  5
2F9
  8
0
  6
CONTINUOUS
 62
     7
  0
POLYLINE
  5
1FE
  8
0
  6
CONTINUOUS
 62
     7
 66
     1
 10
0.0
 20
0.0
 30
0.0
  0
VERTEX
  5
2D1
  8
0
  6
CONTINUOUS
 62
     7
 10
376.9153357915
 20
238.4727614596
 30
0.0
  0
VERTEX
  5
2D2
  8
0
  6
CONTINUOUS
 62
     7
 10
376.8999053677
 20
238.6967063742
 30
0.0
  0
VERTEX
  5
2D3
  8
0
  6
CONTINUOUS
 62
     7
 10
376.8540349982
 20
238.9323582434
 30
0.0
  0
VERTEX
  5
2D4
  8
0
  6
CONTINUOUS
 62
     7
 10
376.7789759069
 20
239.1732890985
 30
0.0
  0
VERTEX
  5
2D5
  8
0
  6
CONTINUOUS
 62
     7
 10
376.6767755104
 20
239.4129269738
 30
0.0
  0
VERTEX
  5
2D6
  8
0
  6
CONTINUOUS
 62
     7
 10
376.5502215689
 20
239.6447351727
 30
0.0
  0
VERTEX
  5
2D7
  8
0
  6
CONTINUOUS
 62
     7
 10
376.4027661441
 20
239.8623905719
 30
0.0
  0
VERTEX
  5
2D8
  8
0
  6
CONTINUOUS
 62
     7
 10
376.2384314356
 20
240.0599560995
 30
0.0
  0
VERTEX
  5
2D9
  8
0
  6
CONTINUOUS
 62
     7
 10
376.0617000658
 20
240.2320426829
 30
0.0
  0
VERTEX
  5
2DA
  8
0
  6
CONTINUOUS
 62
     7
 10
375.8773928058
 20
240.3739562487
 30
0.0
  0
VERTEX
  5
2DB
  8
0
  6
CONTINUOUS
 62
     7
 10
375.6905370773
 20
240.4818257647
 30
0.0
  0
VERTEX
  5
2DC
  8
0
  6
CONTINUOUS
 62
     7
 10
375.5062298173
 20
240.5527088318
 30
0.0
  0
VERTEX
  5
2DD
  8
0
  6
CONTINUOUS
 62
     7
 10
375.3294984476
 20
240.5846719446
 30
0.0
  0
VERTEX
  5
2DE
  8
0
  6
CONTINUOUS
 62
     7
 10
375.1651637391
 20
240.5768432328
 30
0.0
  0
VERTEX
  5
2DF
  8
0
  6
CONTINUOUS
 62
     7
 10
375.0177083143
 20
240.5294362432
 30
0.0
  0
VERTEX
  5
2E0
  8
0
  6
CONTINUOUS
 62
     7
 10
374.8911543728
 20
240.443744115
 30
0.0
  0
VERTEX
  5
2E1
  8
0
  6
CONTINUOUS
 62
     7
 10
374.7889539762
 20
240.3221043059
 30
0.0
  0
VERTEX
  5
2E2
  8
0
  6
CONTINUOUS
 62
     7
 10
374.713894885
 20
240.1678348329
 30
0.0
  0
VERTEX
  5
2E3
  8
0
  6
CONTINUOUS
 62
     7
 10
374.6680245154
 20
239.9851437651
 30
0.0
  0
VERTEX
  5
2E4
  8
0
  6
CONTINUOUS
 62
     7
 10
374.6525940917
 20
239.7790144385
 30
0.0
  0
VERTEX
  5
2E5
  8
0
  6
CONTINUOUS
 62
     7
 10
374.6680245154
 20
239.5550695238
 30
0.0
  0
VERTEX
  5
2E6
  8
0
  6
CONTINUOUS
 62
     7
 10
374.713894885
 20
239.3194176546
 30
0.0
  0
VERTEX
  5
2E7
  8
0
  6
CONTINUOUS
 62
     7
 10
374.7889539762
 20
239.0784867996
 30
0.0
  0
VERTEX
  5
2E8
  8
0
  6
CONTINUOUS
 62
     7
 10
374.8911543728
 20
238.8388489243
 30
0.0
  0
VERTEX
  5
2E9
  8
0
  6
CONTINUOUS
 62
     7
 10
375.0177083143
 20
238.6070407253
 30
0.0
  0
VERTEX
  5
2EA
  8
0
  6
CONTINUOUS
 62
     7
 10
375.1651637391
 20
238.3893853261
 30
0.0
  0
VERTEX
  5
2EB
  8
0
  6
CONTINUOUS
 62
     7
 10
375.3294984476
 20
238.1918197985
 30
0.0
  0
VERTEX
  5
2EC
  8
0
  6
CONTINUOUS
 62
     7
 10
375.5062298173
 20
238.0197332151
 30
0.0
  0
VERTEX
  5
2ED
  8
0
  6
CONTINUOUS
 62
     7
 10
375.6905370773
 20
237.8778196494
 30
0.0
  0
VERTEX
  5
2EE
  8
0
  6
CONTINUOUS
 62
     7
 10
375.8773928058
 20
237.7699501334
 30
0.0
  0
VERTEX
  5
2EF
  8
0
  6
CONTINUOUS
 62
     7
 10
376.0617000658
 20
237.6990670663
 30
0.0
  0
VERTEX
  5
2F0
  8
0
  6
CONTINUOUS
 62
     7
 10
376.2384314356
 20
237.6671039534
 30
0.0
  0
VERTEX
  5
2F1
  8
0
  6
CONTINUOUS
 62
     7
 10
376.4027661441
 20
237.6749326652
 30
0.0
  0
VERTEX
  5
2F2
  8
0
  6
CONTINUOUS
 62
     7
 10
376.5502215689
 20
237.7223396548
 30
0.0
  0
VERTEX
  5
2F3
  8
0
  6
CONTINUOUS
 62
     7
 10
376.6767755104
 20
237.8080317831
 30
0.0
  0
VERTEX
  5
2F4
  8
0
  6
CONTINUOUS
 62
     7
 10
376.7789759069
 20
237.9296715922
 30
0.0
  0
VERTEX
  5
2F5
  8
0
  6
CONTINUOUS
 62
     7
 10
376.8540349982
 20
238.0839410651
 30
0.0
  0
VERTEX
  5
2F6
  8
0
  6
CONTINUOUS
 62
     7
 10
376.8999053677
 20
238.266632133
 30
0.0
  0
VERTEX
  5
2F7
  8
0
  6
CONTINUOUS
 62
     7
 10
376.9153357915
 20
238.4727614596
 30
0.0
  0
SEQEND
  5
2F8
  8
0
  6
CONTINUOUS
 62
     7
  0
LINE
  5
1FF
  8
0
  6
CONTINUOUS
 62
     7
 10
377.3749551992
 20
244.1273497094
 30
0.0
 11
378.7891687616
 21
244.9437578212
 31
0.0
  0
LINE
  5
200
  8
0
  6
CONTINUOUS
 62
     7
 10
382.3247026675
 20
238.8200334822
 30
0.0
 11
380.9104891052
 21
238.0036253704
 31
0.0
  0
ARC
  5
201
  8
0
  6
CONTINUOUS
 62
     7
 10
374.6486221607
 20
238.4707292209
 30
0.0
 40
7.684024037860385
 50
2.6054784857
 51
57.39452166
  0
LINE
  5
202
  8
0
  6
CONTINUOUS
 62
     7
 10
380.9104891052
 20
221.6728091327
 30
0.0
 11
382.3247026675
 21
222.4892172445
 31
0.0
  0
LINE
  5
203
  8
0
  6
CONTINUOUS
 62
     7
 10
382.3247026675
 20
222.4892172445
 30
0.0
 11
382.3247026675
 21
238.8200334822
 31
0.0
  0
LINE
  5
204
  8
0
  6
CONTINUOUS
 62
     7
 10
375.6071882463
 20
246.7806760728
 30
0.0
 11
374.1929746839
 21
245.964267961
 31
0.0
  0
LINE
  5
205
  8
0
  6
CONTINUOUS
 62
     7
 10
378.7891687616
 20
244.9437578212
 30
0.0
 11
375.6071882463
 21
246.7806760728
 31
0.0
  0
ARC
  5
206
  8
0
  6
CONTINUOUS
 62
     7
 10
374.142587972
 20
244.7362694272
 30
0.0
 40
2.514886179509121
 50
54.3824225248
 51
114.3071190461
  0
ARC
  5
207
  8
0
  6
CONTINUOUS
 62
     7
 10
378.6755490065
 20
240.7951638981
 30
0.0
 40
2.631077407893653
 50
193.4681875069
 51
226.5264359604
  0
LINE
  5
208
  8
0
  6
CONTINUOUS
 62
     7
 10
387.981556917
 20
213.5080645141
 30
0.0
 11
389.3957704794
 21
214.324472626
 31
0.0
  0
LINE
  5
209
  8
0
  6
CONTINUOUS
 62
     7
 10
392.9313043853
 20
208.200748287
 30
0.0
 11
391.517090823
 21
207.3843401752
 31
0.0
  0
ARC
  5
20A
  8
0
  6
CONTINUOUS
 62
     7
 10
385.2552238785
 20
207.8514440257
 30
0.0
 40
7.684024037860064
 50
2.6054784857
 51
57.39452166
  0
LINE
  5
20B
  8
0
  6
CONTINUOUS
 62
     7
 10
391.517090823
 20
203.7099065217
 30
0.0
 11
392.9313043853
 21
204.5263146335
 31
0.0
  0
LINE
  5
20C
  8
0
  6
CONTINUOUS
 62
     7
 10
392.9313043853
 20
204.5263146335
 30
0.0
 11
392.9313043853
 21
208.200748287
 31
0.0
  0
LINE
  5
20D
  8
0
  6
CONTINUOUS
 62
     7
 10
385.8602365735
 20
216.3654929055
 30
0.0
 11
384.4460230111
 21
215.5490847937
 31
0.0
  0
LINE
  5
20E
  8
0
  6
CONTINUOUS
 62
     7
 10
389.3957704794
 20
214.324472626
 30
0.0
 11
385.8602365735
 21
216.3654929055
 31
0.0
  0
ARC
  5
20F
  8
0
  6
CONTINUOUS
 62
     7
 10
390.0007831744
 20
222.8385215058
 30
0.0
 40
7.684024037860283
 50
182.6054784857
 51
237.39452166
  0
ARC
  5
210
  8
0
  6
CONTINUOUS
 62
     7
 10
390.4950743874
 20
204.2496465402
 30
0.0
 40
2.451889442240401
 50
304.8331983864
 51
6.478982007
  0
ARC
  5
211
  8
0
  6
CONTINUOUS
 62
     7
 10
389.2821507243
 20
210.1758787029
 30
0.0
 40
2.631077407893464
 50
193.4681875069
 51
226.5264359604
  0
ARC
  5
212
  8
0
  6
CONTINUOUS
 62
     7
 10
378.6755490065
 20
228.5470517199
 30
0.0
 40
2.631077407893203
 50
193.4681875069
 51
226.5264359604
  0
LINE
  5
213
  8
0
  6
CONTINUOUS
 62
     7
 10
367.121906872
 20
225.5500841635
 30
0.0
 11
368.5361204344
 21
226.3664922754
 31
0.0
  0
ARC
  5
214
  8
0
  6
CONTINUOUS
 62
     7
 10
370.1812810147
 20
228.9503418796
 30
0.0
 40
3.063140890087719
 50
237.5147211389
 51
270.8505523301
  0
ARC
  5
215
  8
0
  6
CONTINUOUS
 62
     7
 10
378.6755490065
 20
216.2989395416
 30
0.0
 40
2.631077407893227
 50
193.4681875069
 51
226.5264359604
  0
LINE
  5
216
  8
0
  6
CONTINUOUS
 62
     7
 10
365.0005865285
 20
228.4075125549
 30
0.0
 11
363.5863729661
 21
227.5911044431
 31
0.0
  0
LINE
  5
217
  8
0
  6
CONTINUOUS
 62
     7
 10
368.5361204344
 20
226.3664922754
 30
0.0
 11
365.0005865285
 21
228.4075125549
 31
0.0
  0
ARC
  5
218
  8
0
  6
CONTINUOUS
 62
     7
 10
363.5359862542
 20
226.3631059093
 30
0.0
 40
2.514886179509043
 50
54.3824225248
 51
114.3071190461
  0
ARC
  5
219
  8
0
  6
CONTINUOUS
 62
     7
 10
368.0689472887
 20
222.4220003802
 30
0.0
 40
2.631077407892991
 50
193.4681875069
 51
226.5264359604
  0
CIRCLE
  5
21A
  8
0
  6
CONTINUOUS
 62
     7
 10
353.6246187028
 20
82.4526737736
 30
0.0
 40
1.599999999999966
  0
CIRCLE
  5
21B
  8
0
  6
CONTINUOUS
 62
     7
 10
368.6246187028
 20
97.4526737736
 30
0.0
 40
1.600000000000023
  0
CIRCLE
  5
21C
  8
0
  6
CONTINUOUS
 62
     7
 10
368.6246187028
 20
82.4526737736
 30
0.0
 40
1.600000000000023
  0
ARC
  5
21D
  8
0
  6
CONTINUOUS
 62
     7
 10
370.8746187028
 20
114.7026737736
 30
0.0
 40
5.0
 50
0.0
 51
90.0
  0
LINE
  5
21E
  8
0
  6
CONTINUOUS
 62
     7
 10
375.8746187028
 20
94.7026737736
 30
0.0
 11
375.8746187028
 21
114.7026737736
 31
0.0
  0
ARC
  5
21F
  8
0
  6
CONTINUOUS
 62
     7
 10
380.8746187028
 20
94.7026737736
 30
0.0
 40
5.0
 50
180.0
 51
270.0
  0
LINE
  5
220
  8
0
  6
CONTINUOUS
 62
     7
 10
385.8746187028
 20
89.7026737736
 30
0.0
 11
380.8746187028
 21
89.7026737736
 31
0.0
  0
ARC
  5
221
  8
0
  6
CONTINUOUS
 62
     7
 10
385.8746187028
 20
84.7026737736
 30
0.0
 40
5.000000000000014
 50
0.0
 51
90.0
  0
LINE
  5
222
  8
0
  6
CONTINUOUS
 62
     7
 10
390.8746187028
 20
80.2026737736
 30
0.0
 11
390.8746187028
 21
84.7026737736
 31
0.0
  0
ARC
  5
223
  8
0
  6
CONTINUOUS
 62
     7
 10
385.8746187028
 20
80.2026737736
 30
0.0
 40
5.0
 50
270.0
 51
0.0
  0
LINE
  5
224
  8
0
  6
CONTINUOUS
 62
     7
 10
351.3746187028
 20
75.2026737736
 30
0.0
 11
385.8746187028
 21
75.2026737736
 31
0.0
  0
ARC
  5
225
  8
0
  6
CONTINUOUS
 62
     7
 10
351.3746187028
 20
80.2026737736
 30
0.0
 40
5.0
 50
180.0
 51
270.0
  0
LINE
  5
226
  8
0
  6
CONTINUOUS
 62
     7
 10
346.3746187028
 20
84.7026737736
 30
0.0
 11
346.3746187028
 21
80.2026737736
 31
0.0
  0
ARC
  5
227
  8
0
  6
CONTINUOUS
 62
     7
 10
351.3746187028
 20
84.7026737736
 30
0.0
 40
5.000000000000014
 50
90.0
 51
180.0
  0
LINE
  5
228
  8
0
  6
CONTINUOUS
 62
     7
 10
356.3746187028
 20
89.7026737736
 30
0.0
 11
351.3746187028
 21
89.7026737736
 31
0.0
  0
ARC
  5
229
  8
0
  6
CONTINUOUS
 62
     7
 10
356.3746187028
 20
94.7026737736
 30
0.0
 40
5.000000000000057
 50
270.0
 51
0.0
  0
LINE
  5
22A
  8
0
  6
CONTINUOUS
 62
     7
 10
361.3746187028
 20
114.7026737736
 30
0.0
 11
361.3746187028
 21
94.7026737736
 31
0.0
  0
ARC
  5
22B
  8
0
  6
CONTINUOUS
 62
     7
 10
366.3746187028
 20
114.7026737736
 30
0.0
 40
5.0
 50
90.0
 51
180.0
  0
LINE
  5
22C
  8
0
  6
CONTINUOUS
 62
     7
 10
370.8746187028
 20
119.7026737736
 30
0.0
 11
366.3746187028
 21
119.7026737736
 31
0.0
  0
CIRCLE
  5
22D
  8
0
  6
CONTINUOUS
 62
     7
 10
383.6246187028
 20
82.4526737736
 30
0.0
 40
1.600000000000023
  0
CIRCLE
  5
22E
  8
0
  6
CONTINUOUS
 62
     7
 10
368.6246187028
 20
112.4526737736
 30
0.0
 40
1.600000000000023
  0
INSERT
  5
234
  8
0
  6
CONTINUOUS
 62
     7
  2
SW_NOTE_4
 10
361.8197792047
 20
68.9839698228
 30
0.0
  0
ENDSEC
  0
EOF
