**ABCDEFGHIJKLMNOPQRSTUVWXYZabcdefghijklmnopqrstuvwxyz**************************
**PARASOLID !"#$%&'()*+,-./:;<=>?@[\]^_`{|}~0123456789**************************
**PART1;
MC=AMD64;
MC_MODEL=AMD64 Family 16 Model 2 Stepping 3, AuthenticAMD;
MC_ID=unknown;
OS=Windows_NT;
OS_RELEASE=unknown;
FRU=Parasolid Version 24.0, build 201, 10-11-2011;
APPL=SolidWorks 2012-2011312;
SITE=;
USER=unknown;
FORMAT=text;
GUISE=transmit;
KEY=TL400-000104-003 - Plate, Servo Mount, OpenBeam 1515;
FILE=TL400-000104-003 - Plate, Servo Mount, OpenBeam 1515.x_t;
DATE=Tue May 08 00:41:40 2012;
**PART2;
SCH=SCH_2400201_20000;
USFLD_SIZE=0;
**PART3;
**END_OF_HEADER*****************************************************************
T51 : TRANSMIT FILE created by modeller version 240020123 SCH_2400201_20000_1300
6186 0 12 27 CCCCCCCCCCCCCCCCCCCCCCCA16 index_map_offset0 0 1 dA9 index_map82 0
 A17 node_id_index_map82 0 A20 schema_embedding_map82 0 Z1 2162 2 3 0 0 0 0 1e3
 1e-8 0 4 0 1 0 1 1 5 6 7 8 9 10 11 0 0 0 0 81 255 2 2 1852 12 1 0 0 0 0 13 0 70
 11 CI9 list_type0 0 1 uI10 notransmit0 0 1 lCCCDCCDI12 finger_index0 0 1 dI12 f
inger_block1012 0 CZ3 0 4 T1 0 0 3 20 1 14 14 13 255 5 94 0 1 0 15 0 0 16 0 51 2
55 6 755 0 17 18 0 0 +-.02 .0175 0 0 0 -1 5e-4 -1 0 0 31 255 7 664 0 10 19 0 0 -
-.02 .0175 0 0 0 -1 -1 0 0 5e-4 29 255 8 1655 0 11 20 0 -.0016 -.015 .002032 19
 255 9 28 0 1 16 0 21 V16 255 10 653 0 ?22 0 23 7 0 0 1 18 255 11 1653 0 24 0 25
 8 ?1 17 255 24 0 26 27 28 11 29 30 0 31 +18 25 1630 0 32 11 33 20 ?1 17 32 0 34
 35 36 25 37 38 0 39 -18 33 1209 0 40 25 41 42 ?1 29 20 1632 0 25 42 8 -.0016 -.
0175 0 29 42 1211 0 33 43 20 .0266 .012 .002032 29 43 1188 0 41 44 42 .0266 .013
 0 18 41 1186 0 45 33 46 43 ?1 29 44 1081 0 46 47 43 .0234 .003 .002032 18 46 10
79 0 48 41 49 44 ?1 29 47 1058 0 49 50 44 .0234 .002 0 18 49 1056 0 51 46 52 47
 ?1 29 50 951 0 52 53 47 -.0234 .012 .002032 18 52 949 0 54 49 55 50 ?1 29 53 92
8 0 55 56 50 -.0234 .013 0 18 55 926 0 57 52 58 53 ?1 29 56 821 0 58 59 53 -.026
6 .003 .002032 18 58 819 0 60 55 61 56 ?1 29 59 798 0 61 62 56 -.0266 .002 0 18
 61 796 0 63 58 64 59 ?1 29 62 614 0 64 65 59 -.0205 -.0025 0 18 64 612 0 66 61
 67 62 ?1 29 65 611 0 67 68 62 -.0205 .0175 0 18 67 609 0 22 64 69 65 ?1 29 68 6
08 0 69 70 65 -.0205 -.0025 .002032 18 69 606 0 71 67 72 68 ?1 29 70 605 0 72 73
 68 -.0205 .0175 .002032 18 72 603 0 74 69 75 70 ?1 29 73 592 0 75 76 70 .02 -.0
03 0 18 75 590 0 77 72 78 73 ?1 29 76 589 0 78 79 73 -.02 -.003 0 18 78 587 0 80
 75 81 76 ?1 29 79 586 0 81 82 76 .02 -.003 .002032 18 81 584 0 83 78 84 79 ?1 2
9 82 583 0 84 85 79 -.02 -.003 .002032 18 84 581 0 86 81 87 82 ?1 29 85 570 0 87
 88 82 .0205 .0175 0 18 87 568 0 89 84 90 85 ?1 29 88 567 0 90 91 85 .0205 -.002
5 0 18 90 565 0 92 87 93 88 ?1 29 91 564 0 93 94 88 .0205 .0175 .002032 18 93 56
2 0 95 90 96 91 ?1 29 94 561 0 96 97 91 .0205 -.0025 .002032 18 96 559 0 98 93 9
9 94 ?1 29 97 548 0 99 100 94 -.02 .018 0 18 99 546 0 101 96 102 97 ?1 29 100 54
5 0 102 103 97 .02 .018 0 18 102 543 0 104 99 105 100 ?1 29 103 542 0 105 106 10
0 -.02 .018 .002032 18 105 540 0 107 102 108 103 ?1 29 106 539 0 108 109 103 .02
 .018 .002032 18 108 537 0 110 105 111 106 ?1 29 109 222 0 111 112 106 -.025 .02
25 .002032 18 111 220 0 113 108 114 109 ?1 29 112 219 0 114 115 109 .025 .0225 .
002032 18 114 217 0 116 111 117 112 ?1 29 115 216 0 117 118 112 .03 .0175 .00203
2 18 117 214 0 119 114 120 115 ?1 29 118 213 0 120 121 115 .03 -.0175 .002032 18
 120 211 0 122 117 123 118 ?1 29 121 200 0 123 124 118 -.03 -.0175 .002032 18 12
3 198 0 125 120 126 121 ?1 29 124 197 0 126 127 121 -.03 .0175 .002032 18 126 19
5 0 128 123 129 124 ?1 29 127 174 0 129 130 124 -.025 .0225 0 18 129 172 0 131 1
26 132 127 ?1 29 130 171 0 132 133 127 .025 .0225 0 18 132 169 0 134 129 135 130
 ?1 29 133 168 0 135 136 130 -.03 -.0175 0 18 135 166 0 137 132 138 133 ?1 29 13
6 165 0 138 139 133 -.03 .0175 0 18 138 163 0 140 135 141 136 ?1 29 139 162 0 14
1 142 136 .03 .0175 0 18 141 160 0 143 138 144 139 ?1 29 142 159 0 144 145 139 .
03 -.0175 0 18 144 157 0 146 141 147 142 ?1 29 145 146 0 147 148 142 .025 -.0225
 .002032 18 147 144 0 149 144 150 145 ?1 29 148 143 0 150 151 145 -.025 -.0225 .
002032 18 150 141 0 152 147 153 148 ?1 29 151 140 0 153 154 148 .025 -.0225 0 18
 153 138 0 155 150 156 151 ?1 29 154 137 0 156 157 151 -.025 -.0225 0 18 156 135
 0 158 153 159 154 ?1 29 157 915 0 160 161 154 -.0234 .003 .002032 18 160 868 0
 162 163 164 157 ?1 29 161 916 0 164 165 157 -.0234 .002 .002032 18 164 870 0 16
6 160 167 161 ?1 29 165 917 0 167 168 161 -.0266 .002 .002032 18 167 872 0 169 1
64 170 165 ?1 29 168 919 0 159 171 165 -.0234 .003 0 18 159 865 0 172 156 173 16
8 ?1 29 171 920 0 173 174 168 -.0234 .002 0 18 173 867 0 175 159 163 171 ?1 29 1
74 922 0 163 176 171 -.0266 .003 0 18 163 871 0 177 173 160 174 ?1 29 176 1045 0
 178 179 174 -.0266 .012 .002032 18 178 998 0 180 181 182 176 ?1 29 179 1046 0 1
82 183 176 -.0266 .013 .002032 18 182 1000 0 184 178 185 179 ?1 29 183 1047 0 18
5 186 179 -.0234 .013 .002032 18 185 1002 0 187 182 188 183 ?1 29 186 1049 0 170
 189 183 -.0266 .012 0 18 170 995 0 190 167 191 186 ?1 29 189 1050 0 191 192 186
 -.0266 .013 0 18 191 997 0 193 170 181 189 ?1 29 192 1052 0 181 194 189 -.0234
 .012 0 18 181 1001 0 195 191 178 192 ?1 29 194 1175 0 196 197 192 .0266 .003 .0
02032 18 196 1128 0 198 199 200 194 ?1 29 197 1176 0 200 201 194 .0266 .002 .002
032 18 200 1130 0 202 196 203 197 ?1 29 201 1177 0 203 204 197 .0234 .002 .00203
2 18 203 1132 0 205 200 206 201 ?1 29 204 1179 0 188 207 201 .0266 .003 0 18 188
 1125 0 208 185 209 204 ?1 29 207 1180 0 209 210 204 .0266 .002 0 18 209 1127 0
 211 188 199 207 ?1 29 210 1182 0 199 212 207 .0234 .003 0 18 199 1131 0 213 209
 196 210 ?1 29 212 1305 0 214 215 210 .0234 .012 .002032 18 214 1258 0 216 217 2
18 212 ?1 29 215 1306 0 218 219 212 .0234 .013 .002032 18 218 1260 0 220 214 221
 215 ?1 29 219 1307 0 221 222 215 .0266 .013 .002032 18 221 1262 0 223 218 224 2
19 ?1 29 222 1309 0 206 225 219 .0234 .012 0 18 206 1255 0 226 203 227 222 ?1 29
 225 1310 0 227 228 222 .0234 .013 0 18 227 1257 0 229 206 217 225 ?1 29 228 131
2 0 217 230 225 .0266 .012 0 18 217 1261 0 231 227 214 228 ?1 29 230 1749 0 232
 233 228 .0016 -.015 .002032 18 232 1702 0 28 234 235 230 ?1 29 233 1750 0 235 2
36 230 .0016 -.0175 .002032 18 235 1704 0 237 232 238 233 ?1 29 236 1751 0 238 2
39 233 -.0016 -.0175 .002032 18 238 1706 0 35 235 0 236 ?1 29 239 1753 0 224 240
 236 .0016 -.015 0 18 224 1699 0 241 221 242 239 ?1 29 240 1754 0 242 243 239 .0
016 -.0175 0 18 242 1701 0 36 224 234 240 ?1 29 243 1756 0 234 0 240 -.0016 -.01
5 0 18 234 1705 0 27 242 232 243 ?1 17 27 0 26 244 24 234 31 245 0 246 -15 255 2
6 1710 0 24 247 0 17 244 0 26 28 27 224 248 249 0 250 -17 31 0 251 252 246 11 27
 245 0 253 +16 245 1674 0 ?31 254 255 256 0 0 1 17 246 0 251 31 39 234 257 258 0
 248 -15 251 1722 0 252 259 0 17 39 0 251 246 252 25 35 254 0 257 -17 257 0 260
 37 248 25 246 258 0 0 +16 258 1683 0 ?257 38 249 261 0 0 1 17 248 0 260 257 250
 234 244 249 0 0 +15 260 1646 0 248 262 263 17 250 0 260 248 37 224 264 255 0 0
 +16 249 1671 0 ?248 258 265 266 0 0 1 16 265 1696 0 ?267 249 268 269 0 0 1 31 2
66 1748 0 249 0 261 0 +0 -.015 0 0 0 1 1 0 0 .0016 30 255 261 1747 0 258 266 270
 0 +-.0016 -.015 0 0 -1 0 31 270 1746 0 38 261 271 0 +-693889390390723e-32 -.017
5 0 0 0 1 1 0 0 .0016 16 38 1679 0 ?37 255 258 270 0 0 1 30 271 1745 0 255 270 2
72 0 +.0016 -.015 0 -1734723475976805e-31 1 0 16 255 1675 0 ?250 245 38 271 0 0
 1 31 272 1744 0 30 271 273 0 +0 -.015 .002032 0 0 1 1 0 0 .0016 16 30 1687 0 ?2
4 274 0 272 0 0 1 30 273 1743 0 274 272 275 0 +-.0016 -.015 .002032 0 -1 0 16 27
4 1690 0 ?252 268 30 273 0 0 1 31 275 1742 0 268 273 269 0 +-693889390390723e-32
 -.0175 .002032 0 0 1 1 0 0 .0016 16 268 1693 0 ?276 265 274 275 0 0 1 30 269 17
41 0 265 275 277 0 +.0016 -.015 .002032 -1734723475976805e-31 1 0 30 277 1740 0
 278 269 279 0 +.0016 -.015 0 0 0 1 16 278 1678 0 ?28 280 281 277 0 0 1 30 279 1
739 0 281 277 282 0 +.0016 -.0175 0 0 0 1 16 281 1682 0 ?237 278 254 279 0 0 1 3
0 282 1738 0 254 279 256 0 +-.0016 -.0175 0 0 0 1 16 254 1686 0 ?35 281 245 282
 0 0 1 30 256 1737 0 245 282 283 0 +-.0016 -.015 0 0 0 1 31 283 1628 0 284 256 2
85 0 +-.02 -.0175 0 0 0 1 -1 0 0 .0016 16 284 1605 0 ?286 287 280 283 0 0 1 31 2
85 1627 0 280 283 288 0 +-.02 -.0175 .002032 0 0 1 -1 0 0 .0016 16 280 1608 0 ?2
89 284 278 285 0 0 1 31 288 1590 0 290 285 291 0 +.02 -.0175 0 0 0 1 1 0 0 .0016
 16 290 1567 0 ?292 293 287 288 0 0 1 31 291 1589 0 287 288 294 0 +.02 -.0175 .0
02032 0 0 1 1 0 0 .0016 16 287 1570 0 ?295 290 284 291 0 0 1 31 294 1552 0 296 2
91 297 0 +-.01 -.0175 0 0 0 1 1 0 0 .0016 16 296 1529 0 ?298 299 293 294 0 0 1 3
1 297 1551 0 293 294 300 0 +-.01 -.0175 .002032 0 0 1 1 0 0 .0016 16 293 1532 0
 ?301 296 290 297 0 0 1 31 300 1514 0 302 297 303 0 +.01 -.0175 0 0 0 1 1 0 0 .0
016 16 302 1491 0 ?304 305 299 300 0 0 1 31 303 1513 0 299 300 306 0 +.01 -.0175
 .002032 0 0 1 1 0 0 .0016 16 299 1494 0 ?307 302 296 303 0 0 1 31 306 1476 0 30
8 303 309 0 +.015 -.015 0 0 0 1 1 0 0 .0016 16 308 1453 0 ?310 311 305 306 0 0 1
 31 309 1475 0 305 306 312 0 +.015 -.015 .002032 0 0 1 1 0 0 .0016 16 305 1456 0
 ?313 308 302 309 0 0 1 31 312 1438 0 314 309 315 0 +-.015 -.015 0 0 0 1 1 0 0 .
0016 16 314 1415 0 ?316 317 311 312 0 0 1 31 315 1437 0 311 312 318 0 +-.015 -.0
15 .002032 0 0 1 1 0 0 .0016 16 311 1418 0 ?319 314 308 315 0 0 1 31 318 1304 0
 320 315 321 0 +.025 .012 0 0 0 1 1 0 0 .0016 16 320 1227 0 ?322 323 324 318 0 0
 1 30 321 1303 0 323 318 325 0 +.0266 .012 0 0 1 0 16 323 1239 0 ?326 327 320 32
1 0 0 1 31 325 1302 0 327 321 328 0 +.025 .013 0 0 0 1 1 0 0 .0016 16 327 1235 0
 ?329 330 323 325 0 0 1 30 328 1301 0 330 325 331 0 +.0234 .012 0 0 -1 0 16 330
 1231 0 ?332 333 327 328 0 0 1 31 331 1300 0 317 328 334 0 +.025 .012 .002032 0
 0 1 1 0 0 .0016 16 317 1243 0 ?40 335 314 331 0 0 1 30 334 1299 0 335 331 336 0
 +.0266 .012 .002032 0 1 0 16 335 1246 0 ?337 338 317 334 0 0 1 31 336 1298 0 33
8 334 339 0 +.025 .013 .002032 0 0 1 1 0 0 .0016 16 338 1249 0 ?340 324 335 336
 0 0 1 30 339 1297 0 324 336 341 0 +.0234 .012 .002032 0 -1 0 16 324 1252 0 ?342
 320 338 339 0 0 1 30 341 1296 0 343 339 344 0 +.0234 .012 0 0 0 1 16 343 1234 0
 ?216 345 346 341 0 0 1 30 344 1295 0 346 341 347 0 +.0234 .013 0 0 0 1 16 346 1
238 0 ?220 343 348 344 0 0 1 30 347 1294 0 348 344 349 0 +.0266 .013 0 0 0 1 16
 348 1242 0 ?223 346 333 347 0 0 1 30 349 1293 0 333 347 350 0 +.0266 .012 0 0 0
 1 16 333 1230 0 ?351 348 330 349 0 0 1 31 350 1174 0 352 349 353 0 +.025 .003 0
 0 0 1 -1 0 0 .0016 16 352 1097 0 ?354 355 356 350 0 0 1 30 353 1173 0 355 350 3
57 0 +.0234 .003 0 0 -1 0 16 355 1109 0 ?358 359 352 353 0 0 1 31 357 1172 0 359
 353 360 0 +.025 .002 0 0 0 1 -1 0 0 .0016 16 359 1105 0 ?361 362 355 357 0 0 1
 30 360 1171 0 362 357 363 0 +.0266 .003 0 0 1 0 16 362 1101 0 ?364 365 359 360
 0 0 1 31 363 1170 0 345 360 366 0 +.025 .003 .002032 0 0 1 -1 0 0 .0016 16 345
 1113 0 ?48 367 343 363 0 0 1 30 366 1169 0 367 363 368 0 +.0234 .003 .002032 0
 -1 0 16 367 1116 0 ?369 370 345 366 0 0 1 31 368 1168 0 370 366 371 0 +.025 .00
2 .002032 0 0 1 -1 0 0 .0016 16 370 1119 0 ?372 356 367 368 0 0 1 30 371 1167 0
 356 368 373 0 +.0266 .003 .002032 0 1 0 16 356 1122 0 ?374 352 370 371 0 0 1 30
 373 1166 0 375 371 376 0 +.0266 .003 0 0 0 1 16 375 1104 0 ?198 377 378 373 0 0
 1 30 376 1165 0 378 373 379 0 +.0266 .002 0 0 0 1 16 378 1108 0 ?202 375 380 37
6 0 0 1 30 379 1164 0 380 376 381 0 +.0234 .002 0 0 0 1 16 380 1112 0 ?205 378 3
65 379 0 0 1 30 381 1163 0 365 379 382 0 +.0234 .003 0 0 0 1 16 365 1100 0 ?383
 380 362 381 0 0 1 31 382 1044 0 384 381 385 0 +-.025 .012 0 0 0 1 -1 0 0 .0016
 16 384 967 0 ?386 387 388 382 0 0 1 30 385 1043 0 387 382 389 0 +-.0234 .012 0
 0 1 0 16 387 979 0 ?390 391 384 385 0 0 1 31 389 1042 0 391 385 392 0 +-.025 .0
13 0 0 0 1 -1 0 0 .0016 16 391 975 0 ?393 394 387 389 0 0 1 30 392 1041 0 394 38
9 395 0 +-.0266 .012 0 0 -1 0 16 394 971 0 ?396 397 391 392 0 0 1 31 395 1040 0
 377 392 398 0 +-.025 .012 .002032 0 0 1 -1 0 0 .0016 16 377 983 0 ?54 399 375 3
95 0 0 1 30 398 1039 0 399 395 400 0 +-.0234 .012 .002032 0 1 0 16 399 986 0 ?40
1 402 377 398 0 0 1 31 400 1038 0 402 398 403 0 +-.025 .013 .002032 0 0 1 -1 0 0
 .0016 16 402 989 0 ?404 388 399 400 0 0 1 30 403 1037 0 388 400 405 0 +-.0266 .
012 .002032 0 -1 0 16 388 992 0 ?406 384 402 403 0 0 1 30 405 1036 0 407 403 408
 0 +-.0266 .012 0 0 0 1 16 407 974 0 ?180 409 410 405 0 0 1 30 408 1035 0 410 40
5 411 0 +-.0266 .013 0 0 0 1 16 410 978 0 ?184 407 412 408 0 0 1 30 411 1034 0 4
12 408 413 0 +-.0234 .013 0 0 0 1 16 412 982 0 ?187 410 397 411 0 0 1 30 413 103
3 0 397 411 414 0 +-.0234 .012 0 0 0 1 16 397 970 0 ?415 412 394 413 0 0 1 31 41
4 914 0 416 413 417 0 +-.025 .003 0 0 0 1 1 0 0 .0016 16 416 837 0 ?418 419 420
 414 0 0 1 30 417 913 0 419 414 421 0 +-.0266 .003 0 0 -1 0 16 419 849 0 ?422 42
3 416 417 0 0 1 31 421 912 0 423 417 424 0 +-.025 .002 0 0 0 1 1 0 0 .0016 16 42
3 845 0 ?425 426 419 421 0 0 1 30 424 911 0 426 421 427 0 +-.0234 .003 0 0 1 0 1
6 426 841 0 ?428 429 423 424 0 0 1 31 427 910 0 409 424 430 0 +-.025 .003 .00203
2 0 0 1 1 0 0 .0016 16 409 853 0 ?60 431 407 427 0 0 1 30 430 909 0 431 427 432
 0 +-.0266 .003 .002032 0 -1 0 16 431 856 0 ?433 434 409 430 0 0 1 31 432 908 0
 434 430 435 0 +-.025 .002 .002032 0 0 1 1 0 0 .0016 16 434 859 0 ?436 420 431 4
32 0 0 1 30 435 907 0 420 432 437 0 +-.0234 .003 .002032 0 1 0 16 420 862 0 ?438
 416 434 435 0 0 1 30 437 906 0 439 435 440 0 +-.0234 .003 0 0 0 1 16 439 844 0
 ?162 441 442 437 0 0 1 30 440 905 0 442 437 443 0 +-.0234 .002 0 0 0 1 16 442 8
48 0 ?166 439 444 440 0 0 1 30 443 904 0 444 440 445 0 +-.0266 .002 0 0 0 1 16 4
44 852 0 ?169 442 429 443 0 0 1 30 445 903 0 429 443 446 0 +-.0266 .003 0 0 0 1
 16 429 840 0 ?447 444 426 445 0 0 1 30 446 504 0 448 445 449 0 +.0205 -.003 0 0
 1 0 16 448 566 0 ?450 451 452 446 0 0 1 30 449 503 0 451 446 453 0 +-.0205 .018
 0 -1 0 0 16 451 544 0 ?454 455 448 449 0 0 1 30 453 502 0 455 449 456 0 +-.0205
 -.003 0 0 -1 0 16 455 610 0 ?457 458 451 453 0 0 1 30 456 501 0 458 453 459 0 +
-.0205 -.003 0 1 0 0 16 458 588 0 ?460 461 455 456 0 0 1 30 459 500 0 441 456 46
2 0 +.0205 -.003 .002032 0 1 0 16 441 560 0 ?463 464 439 459 0 0 1 30 462 499 0
 464 459 465 0 +-.0205 .018 .002032 -1 0 0 16 464 538 0 ?466 467 441 462 0 0 1 3
0 465 498 0 467 462 468 0 +-.0205 -.003 .002032 0 -1 0 16 467 604 0 ?469 452 464
 465 0 0 1 30 468 497 0 452 465 470 0 +-.0205 -.003 .002032 1 0 0 16 452 582 0 ?
471 448 467 468 0 0 1 30 470 5 0 472 468 473 0 +.03 -.0225 .002032 0 1 0 16 472
 212 0 ?474 475 476 470 0 0 1 30 473 8 0 475 470 477 0 +-.03 .0225 .002032 -1 0
 0 16 475 218 0 ?478 479 472 473 0 0 1 30 477 11 0 479 473 480 0 +-.03 -.0225 .0
02032 0 -1 0 16 479 196 0 ?481 482 475 477 0 0 1 30 480 14 0 482 477 483 0 +-.03
 -.0225 .002032 1 0 0 16 482 142 0 ?484 485 479 480 0 0 1 30 483 69 0 461 480 48
6 0 +.03 -.0225 0 0 1 0 16 461 158 0 ?487 488 458 483 0 0 1 30 486 68 0 488 483
 489 0 +-.03 .0225 0 -1 0 0 16 488 170 0 ?490 491 461 486 0 0 1 30 489 67 0 491
 486 492 0 +-.03 -.0225 0 0 -1 0 16 491 164 0 ?493 476 488 489 0 0 1 30 492 66 0
 476 489 494 0 +-.03 -.0225 0 1 0 0 16 476 136 0 ?495 472 491 492 0 0 1 30 494 1
49 0 485 492 496 0 -.025 -.0225 .002032 0 0 -1 16 485 147 0 ?149 497 482 494 0 0
 1 30 496 154 0 497 494 498 0 +-.025 -.0225 .002032 0 0 -1 16 497 152 0 ?499 500
 485 496 0 0 1 31 498 177 0 500 496 501 0 +.025 .0175 0 0 0 -1 -1 0 0 .005 16 50
0 175 0 ?143 502 497 498 0 0 1 31 501 182 0 502 498 503 0 +-.025 .0175 0 0 0 -1
 -1 0 0 .005 16 502 180 0 ?131 504 500 501 0 0 1 31 503 187 0 504 501 505 0 +.02
5 -.0175 0 0 0 -1 -1 0 0 .005 16 504 185 0 ?155 506 502 503 0 0 1 31 505 192 0 5
06 503 507 0 +-.025 -.0175 0 0 0 -1 -1 0 0 .005 16 506 190 0 ?137 508 504 505 0
 0 1 30 507 203 0 508 505 509 0 +-.03 .0175 .002032 0 0 -1 16 508 201 0 ?510 511
 506 507 0 0 1 30 509 208 0 511 507 512 0 --.03 -.0175 .002032 0 0 -1 16 511 206
 0 ?125 513 508 509 0 0 1 31 512 225 0 513 509 514 0 -.025 .0175 .002032 0 0 -1
 -1 0 0 .005 16 513 223 0 ?116 515 511 512 0 0 1 31 514 230 0 515 512 516 0 --.0
25 .0175 .002032 0 0 -1 -1 0 0 .005 16 515 228 0 ?128 517 513 514 0 0 1 31 516 2
35 0 517 514 518 0 -.025 -.0175 .002032 0 0 -1 -1 0 0 .005 16 517 233 0 ?122 519
 515 516 0 0 1 31 518 240 0 519 516 520 0 --.025 -.0175 .002032 0 0 -1 -1 0 0 .0
05 16 519 238 0 ?152 521 517 518 0 0 1 30 520 245 0 521 518 522 0 -.03 .0175 .00
2032 0 0 -1 16 521 243 0 ?119 523 519 520 0 0 1 30 522 250 0 523 520 524 0 +.03
 -.0175 .002032 0 0 -1 16 523 248 0 ?525 526 521 522 0 0 1 30 524 255 0 526 522
 527 0 +.025 .0225 .002032 0 0 -1 16 526 253 0 ?528 529 523 524 0 0 1 30 527 260
 0 529 524 530 0 --.025 .0225 .002032 0 0 -1 16 529 258 0 ?113 531 526 527 0 0 1
 30 530 551 0 531 527 532 0 --.02 .018 0 0 0 1 16 531 549 0 ?101 533 529 530 0 0
 1 30 532 556 0 533 530 534 0 +.02 .018 .002032 0 0 1 16 533 554 0 ?535 536 531
 532 0 0 1 30 534 573 0 536 532 537 0 +.0205 -.0025 .002032 0 0 1 16 536 571 0 ?
538 539 533 534 0 0 1 30 537 578 0 539 534 540 0 -.0205 .0175 0 0 0 1 16 539 576
 0 ?89 541 536 537 0 0 1 30 540 595 0 541 537 542 0 +-.02 -.003 .002032 0 0 1 16
 541 593 0 ?543 544 539 540 0 0 1 30 542 600 0 544 540 545 0 -.02 -.003 0 0 0 1
 16 544 598 0 ?77 546 541 542 0 0 1 30 545 617 0 546 542 547 0 +-.0205 .0175 .00
2032 0 0 1 16 546 615 0 ?548 549 544 545 0 0 1 30 547 622 0 549 545 550 0 --.020
5 -.0025 0 0 0 1 16 549 620 0 ?66 551 546 547 0 0 1 31 550 657 0 551 547 552 0 +
.02 .0175 .002032 0 0 -1 -1 0 0 5e-4 16 551 625 0 ?95 553 549 550 0 0 1 31 552 6
58 0 553 550 554 0 -.02 .0175 0 0 0 -1 -1 0 0 5e-4 16 553 629 0 ?104 555 551 552
 0 0 1 31 554 659 0 555 552 556 0 +.02 -.0025 .002032 0 0 -1 -1 0 0 5e-4 16 555
 633 0 ?83 557 553 554 0 0 1 31 556 660 0 557 554 558 0 -.02 -.0025 0 0 0 -1 -1
 0 0 5e-4 16 557 637 0 ?92 559 555 556 0 0 1 31 558 661 0 559 556 560 0 +-.02 -.
0025 .002032 0 0 -1 -1 0 0 5e-4 16 559 641 0 ?71 561 557 558 0 0 1 31 560 662 0
 561 558 19 0 --.02 -.0025 0 0 0 -1 -1 0 0 5e-4 16 561 645 0 ?80 23 559 560 0 0
 1 31 19 663 0 23 560 7 0 +-.02 .0175 .002032 0 0 -1 -1 0 0 5e-4 16 23 649 0 ?10
7 10 561 19 0 0 1 17 107 0 562 563 564 105 74 23 0 466 +15 562 407 0 563 565 566
 17 563 0 562 95 107 108 466 464 0 0 -17 564 0 562 107 71 72 469 467 0 0 -17 74
 0 567 568 569 72 107 23 0 548 -17 466 0 570 101 535 105 563 464 0 569 +15 570 4
78 0 571 572 0 17 101 0 570 571 466 99 569 531 0 454 +17 535 0 570 466 571 108 5
73 533 0 563 +17 569 0 567 74 574 105 101 531 0 0 -15 567 744 0 574 17 0 17 574
 0 567 569 568 99 22 10 0 0 -17 568 0 567 574 74 67 548 546 0 0 -17 22 0 575 457
 454 67 574 10 0 576 +15 575 402 0 460 262 577 17 457 0 575 80 22 64 576 455 0 5
78 +17 454 0 575 22 104 99 571 451 0 574 +17 576 0 579 548 66 67 457 455 0 568 -
15 579 474 0 469 580 0 17 548 0 579 469 576 72 568 546 0 564 +17 66 0 579 576 46
9 64 581 549 0 457 +17 469 0 579 66 548 69 564 467 0 581 +17 581 0 582 86 578 69
 66 549 0 0 -15 582 723 0 578 583 0 17 86 0 582 584 581 84 71 559 0 543 -17 578
 0 582 581 584 64 80 561 0 0 -17 584 0 582 578 86 78 543 541 0 0 -17 80 0 575 46
0 457 78 578 561 0 585 +17 460 0 575 92 80 75 585 458 0 586 +17 585 0 587 543 77
 78 460 458 0 584 -15 587 470 0 471 588 0 17 543 0 587 471 585 84 584 541 0 589
 +17 77 0 587 585 471 75 590 544 0 460 +17 471 0 587 77 543 81 589 452 0 590 +17
 590 0 591 98 586 81 77 544 0 0 -15 591 702 0 586 592 0 17 98 0 591 593 590 96 8
3 555 0 538 -17 586 0 591 590 593 75 92 557 0 0 -17 593 0 591 586 98 90 538 536
 0 0 -17 92 0 575 450 460 90 586 557 0 594 +17 450 0 575 104 92 87 594 448 0 595
 +17 594 0 596 538 89 90 450 448 0 593 -15 596 466 0 463 597 0 17 538 0 596 463
 594 96 593 536 0 598 +17 89 0 596 594 463 87 599 539 0 450 +17 463 0 596 89 538
 93 598 441 0 599 +17 599 0 600 110 595 93 89 539 0 0 -15 600 681 0 595 601 0 17
 110 0 600 573 599 108 95 551 0 535 -17 595 0 600 599 573 87 104 553 0 0 -17 573
 0 600 595 110 102 535 533 0 0 -17 104 0 575 454 450 102 595 553 0 571 +17 571 0
 570 535 101 102 454 451 0 573 -17 95 0 562 598 563 93 110 551 0 463 +17 598 0 5
62 83 95 96 463 441 0 0 -17 83 0 562 589 598 81 98 555 0 471 +17 589 0 562 71 83
 84 471 452 0 0 -17 71 0 562 564 589 69 86 559 0 469 +14 255 601 680 602 ?592 57
2 600 5 603 -0 0 592 572 21 81 1 602 2119 604 601 605 0 0 606 607 14 592 701 606
 ?583 601 591 5 608 -0 0 583 601 21 14 572 475 609 ?601 580 570 5 610 -0 0 601 5
80 21 51 603 692 0 601 611 608 0 +.02 .0175 0 0 0 -1 5e-4 -1 0 0 13 21 29 0 0 0
 0 0 0 9 15 14 15 85 612 ?613 0 614 5 615 -0 0 613 0 21 81 1 612 2122 604 15 616
 0 609 617 618 14 613 83 617 ?619 15 620 5 621 -0 0 619 15 21 15 614 84 0 622 15
 0 50 255 615 93 0 15 621 623 0 +.03 -.0225 .002032 -1 0 0 0 0 1 50 621 92 0 613
 624 615 0 +-.03 .0225 .002032 0 -1 0 0 0 -1 51 623 290 0 625 615 626 0 +-.025 -
.0175 .002032 0 0 -1 .005 -1 0 0 14 625 278 627 ?628 262 629 5 623 +0 0 628 262
 21 51 626 311 0 628 623 630 0 +.025 -.0175 .002032 0 0 -1 .005 -1 0 0 14 628 29
9 631 ?632 625 633 5 626 +0 0 632 625 21 51 630 332 0 632 626 611 0 +-.025 .0175
 .002032 0 0 -1 .005 -1 0 0 14 632 320 634 ?635 628 636 5 630 +0 0 635 628 21 51
 611 353 0 635 630 603 0 +.025 .0175 .002032 0 0 -1 .005 -1 0 0 14 635 341 637 ?
597 632 638 5 611 +0 0 597 632 21 81 1 637 2127 604 635 639 0 634 640 641 14 597
 463 640 ?588 635 596 5 642 -0 0 588 635 21 15 638 342 0 643 635 0 17 643 0 638
 644 645 117 116 513 0 0 -17 644 0 638 134 643 141 119 521 0 0 -17 645 0 638 643
 134 114 528 526 0 0 -17 116 0 566 478 474 114 643 513 0 646 +15 566 3 0 481 565
 0 17 478 0 566 128 116 111 646 475 0 647 +17 474 0 566 116 122 117 622 472 0 64
3 +17 646 0 620 528 113 114 478 475 0 645 -15 620 82 0 490 613 0 17 528 0 620 49
0 646 132 645 526 0 648 +17 113 0 620 646 490 111 649 529 0 478 +17 490 0 620 11
3 528 129 648 488 0 649 +17 649 0 636 140 647 129 113 529 0 0 -15 636 321 0 647
 632 0 17 140 0 636 650 649 138 131 502 0 510 -17 647 0 636 649 650 111 128 515
 0 0 -17 650 0 636 647 140 126 510 508 0 0 -17 128 0 566 481 478 126 647 515 0 6
51 +17 481 0 566 152 128 123 651 479 0 652 +17 651 0 653 510 125 126 481 479 0 6
50 -15 653 80 0 493 619 0 17 510 0 653 493 651 138 650 508 0 654 +17 125 0 653 6
51 493 123 655 511 0 481 +17 493 0 653 125 510 135 654 491 0 655 +17 655 0 629 1
58 652 135 125 511 0 0 -15 629 279 0 652 625 0 17 158 0 629 656 655 156 137 506
 0 499 -17 652 0 629 655 656 123 152 519 0 0 -17 656 0 629 652 158 150 499 497 0
 0 -17 152 0 566 484 481 150 652 519 0 657 +17 484 0 566 122 152 147 657 482 0 6
58 +17 657 0 659 499 149 150 484 482 0 656 -15 659 78 0 657 660 0 17 499 0 659 4
95 657 156 656 497 0 661 +17 149 0 659 657 495 147 662 485 0 484 +17 495 0 659 1
49 499 153 661 476 0 662 +17 662 0 633 146 658 153 149 485 0 0 -15 633 300 0 658
 628 0 17 146 0 633 663 662 144 155 504 0 525 -17 658 0 633 662 663 147 122 517
 0 0 -17 663 0 633 658 146 120 525 523 0 0 -17 122 0 566 474 484 120 658 517 0 6
22 +17 622 0 614 525 119 120 474 472 0 663 -17 525 0 614 487 622 144 663 523 0 6
64 +17 119 0 614 622 487 117 644 521 0 474 +17 487 0 614 119 525 141 664 461 0 6
44 +17 664 0 577 155 143 144 487 461 0 0 -15 577 44 0 661 262 0 17 155 0 577 661
 664 153 146 504 0 495 +17 143 0 577 664 648 141 134 500 0 487 +17 648 0 577 143
 131 132 490 488 0 0 -17 134 0 638 645 644 132 143 500 0 528 -17 131 0 577 648 6
54 129 140 502 0 490 +17 654 0 577 131 137 138 493 491 0 0 -17 137 0 577 654 661
 135 158 506 0 493 +17 661 0 577 137 155 156 495 476 0 0 -14 262 43 665 ?625 565
 260 5 666 +0 0 625 565 21 81 1 665 2129 604 262 667 0 640 668 669 14 565 1 668
 ?262 660 670 5 671 -0 0 262 660 21 50 666 65 0 262 671 672 0 +0 0 0 0 0 -1 -1 0
 0 50 671 2 0 565 642 666 0 +0 0 .002032 0 0 -1 -1 0 0 50 672 90 0 660 666 624 0
 +-.03 -.0225 .002032 0 1 0 0 0 1 14 660 79 673 ?565 619 659 5 672 -0 0 565 619
 21 50 624 91 0 619 672 621 0 +-.03 -.0225 .002032 1 0 0 0 0 -1 14 619 81 674 ?6
60 613 653 5 624 -0 0 660 613 21 81 1 674 2132 604 619 675 0 673 676 677 80 255
 1 604 678 679 9000 1 1 1 1 1 1 1 1 0 FFFFTFTFFFFFFF1 81 1 675 1987 680 619 0 67
4 681 682 683 81 1 673 2131 604 660 682 0 668 674 684 81 1 676 2133 604 685 686
 0 674 687 688 82 255 1 677 1769931043 14 685 1421 676 ?689 690 691 5 692 -0 0 6
89 690 21 81 1 686 2019 680 685 0 676 693 694 695 81 1 687 2134 604 689 694 0 67
6 696 697 82 1 688 1893335345 14 689 1459 687 ?698 685 699 5 700 -0 0 698 685 21
 81 1 694 2020 680 689 0 687 686 701 702 81 1 696 2135 604 698 701 0 687 703 704
 82 1 697 1897333041 14 698 1497 696 ?705 689 706 5 707 -0 0 705 689 21 81 1 701
 2021 680 698 0 696 694 708 709 81 1 703 2136 604 705 708 0 696 710 711 82 1 704
 1901265201 14 705 1535 703 ?712 698 713 5 714 -0 0 712 698 21 81 1 708 2022 680
 705 0 703 701 715 716 81 1 710 2137 604 712 715 0 703 717 718 82 1 711 19051973
61 14 712 1573 710 ?719 705 720 5 721 -0 0 719 705 21 81 1 715 2023 680 712 0 71
0 708 722 723 81 1 717 2138 604 719 722 0 710 724 725 82 1 718 1909129521 14 719
 1611 717 ?247 712 726 5 727 -0 0 247 712 21 81 1 722 2024 680 719 0 717 715 728
 729 81 1 724 2139 604 247 728 0 717 730 731 82 1 725 1913061681 14 247 1707 724
 ?732 719 26 5 733 -0 0 732 719 21 81 1 728 2025 680 247 0 724 722 734 735 81 1
 730 2140 604 732 734 0 724 736 737 82 1 731 1923481905 14 732 1711 730 ?738 247
 739 5 740 -0 0 738 247 21 81 1 734 2026 680 732 0 730 728 741 742 81 1 736 2141
 604 738 741 0 730 743 744 82 1 737 1923088689 14 738 1715 736 ?259 732 34 5 745
 -0 0 259 732 21 81 1 741 2027 680 738 0 736 734 746 747 81 1 743 2142 604 259 7
46 0 736 748 749 82 1 744 1923219761 14 259 1719 743 ?0 738 251 5 750 -0 0 0 738
 21 81 1 746 2028 680 259 0 743 741 0 751 81 1 748 2143 604 752 753 0 743 754 75
5 82 1 749 1923350833 14 752 1267 748 ?756 757 758 5 759 -0 0 756 757 21 81 1 75
3 2016 680 752 0 748 760 761 762 81 1 754 2144 604 756 761 0 748 763 764 82 1 75
5 1948975402 14 756 1271 754 ?690 752 765 5 766 -0 0 690 752 21 81 1 761 2017 68
0 756 0 754 753 693 767 81 1 763 2145 604 690 693 0 754 768 769 82 1 764 1949106
474 14 690 1275 763 ?685 756 770 5 771 -0 0 685 756 21 81 1 693 2018 680 690 0 7
63 761 686 772 81 1 768 2146 604 757 760 0 763 773 774 82 1 769 1949237546 14 75
7 1263 768 ?752 775 776 5 777 -0 0 752 775 21 81 1 760 2015 680 757 0 768 778 75
3 779 81 1 773 2147 604 780 781 0 768 782 783 82 1 774 1949368618 14 780 1137 77
3 ?784 785 786 5 787 -0 0 784 785 21 81 1 781 2012 680 780 0 773 788 789 790 81
 1 782 2148 604 784 789 0 773 791 792 82 1 783 1937834282 14 784 1141 782 ?775 7
80 793 5 794 -0 0 775 780 21 81 1 789 2013 680 784 0 782 781 778 795 81 1 791 21
49 604 775 778 0 782 796 797 82 1 792 1937965354 14 775 1145 791 ?757 784 798 5
 799 -0 0 757 784 21 81 1 778 2014 680 775 0 791 789 760 800 81 1 796 2150 604 7
85 788 0 791 801 802 82 1 797 1938096426 14 785 1133 796 ?780 803 804 5 805 -0 0
 780 803 21 81 1 788 2011 680 785 0 796 806 781 807 81 1 801 2151 604 808 809 0
 796 810 811 82 1 802 1938227498 14 808 1007 801 ?812 813 814 5 815 -0 0 812 813
 21 81 1 809 2008 680 808 0 801 816 817 818 81 1 810 2152 604 812 817 0 801 819
 820 82 1 811 1926693162 14 812 1011 810 ?803 808 821 5 822 -0 0 803 808 21 81 1
 817 2009 680 812 0 810 809 806 823 81 1 819 2153 604 803 806 0 810 824 825 82 1
 820 1926824234 14 803 1015 819 ?785 812 826 5 827 -0 0 785 812 21 81 1 806 2010
 680 803 0 819 817 788 828 81 1 824 2154 604 813 816 0 819 829 830 82 1 825 1926
955306 14 813 1003 824 ?808 831 832 5 833 -0 0 808 831 21 81 1 816 2007 680 813
 0 824 834 809 835 81 1 829 2155 604 836 837 0 824 838 839 82 1 830 1927086378 1
4 836 877 829 ?840 841 842 5 843 -0 0 840 841 21 81 1 837 2004 680 836 0 829 844
 845 846 81 1 838 2156 604 840 845 0 829 847 848 82 1 839 1915486506 14 840 881
 838 ?831 836 849 5 850 -0 0 831 836 21 81 1 845 2005 680 840 0 838 837 834 851
 81 1 847 2157 604 831 834 0 838 852 853 82 1 848 1915617578 14 831 885 847 ?813
 840 854 5 855 -0 0 813 840 21 81 1 834 2006 680 831 0 847 845 816 856 81 1 852
 2158 604 841 844 0 847 857 858 82 1 853 1915748650 14 841 873 852 ?836 17 859 5
 860 -0 0 836 17 21 81 1 844 2003 680 841 0 852 861 837 862 81 1 857 2159 604 58
8 863 0 852 864 865 82 1 858 1915879722 14 588 467 857 ?580 597 587 5 866 -0 0 5
80 597 21 81 1 863 1996 680 588 0 857 867 868 869 81 1 864 2160 604 580 868 0 85
7 870 871 82 1 865 1825177895 14 580 471 864 ?572 588 579 5 872 -0 0 572 588 21
 81 1 868 1997 680 580 0 864 863 873 874 81 1 870 2161 604 583 875 0 864 876 877
 82 1 871 1825308967 14 583 722 870 ?17 592 582 5 18 -0 0 17 592 21 81 1 875 200
1 680 583 0 870 878 861 879 81 1 876 2162 604 17 861 0 870 0 880 82 1 877 184044
7783 14 17 743 876 ?841 583 567 5 6 -0 0 841 583 21 81 1 861 2002 680 17 0 876 8
75 844 881 82 1 880 1842413863 80 1 680 0 882 8001 0 0 0 0 3 5 0 0 0 FFFFTFTFFFF
FFF2 83 255 3 881 .796078431372549 .823529411764706 .937254901960784 79 255 15 8
82 SDL/TYSA_COLOUR81 1 878 2000 680 592 0 606 605 875 883 83 3 879 .796078431372
549 .823529411764706 .937254901960784 81 1 606 2120 604 592 878 0 602 609 884 81
 1 605 1999 680 601 0 602 873 878 885 83 3 883 .796078431372549 .823529411764706
 .937254901960784 81 1 873 1998 680 572 0 609 868 605 886 83 3 885 .796078431372
549 .823529411764706 .937254901960784 81 1 609 2121 604 572 873 0 606 612 887 83
 3 886 .796078431372549 .823529411764706 .937254901960784 82 1 887 1825440039 82
 1 884 1838481703 51 18 734 0 583 608 6 0 +-.02 -.0025 0 0 0 -1 5e-4 -1 0 0 51 6
08 713 0 592 603 18 0 +.02 -.0025 0 0 0 -1 5e-4 -1 0 0 83 3 874 .796078431372549
 .823529411764706 .937254901960784 50 872 489 0 580 866 610 0 +-.0205 -.003 0 -1
 0 0 0 0 1 50 866 490 0 588 860 872 0 +-.0205 -.003 0 0 -1 0 0 0 -1 50 610 488 0
 572 872 642 0 +-.0205 .018 0 0 1 0 0 0 1 50 642 487 0 597 610 671 0 +.0205 -.00
3 0 1 0 0 0 0 -1 51 860 897 0 841 855 866 0 +-.025 .003 0 0 0 1 .0016 1 0 0 50 8
55 898 0 831 850 860 0 +-.0266 .003 0 -1 0 0 0 0 1 51 850 899 0 840 843 855 0 +-
.025 .002 0 0 0 1 .0016 1 0 0 50 843 900 0 836 833 850 0 +-.0234 .003 0 1 0 0 0
 0 -1 51 833 1027 0 813 827 843 0 +-.025 .012 0 0 0 1 .0016 1 0 0 50 827 1028 0
 803 822 833 0 +-.0234 .012 0 1 0 0 0 0 -1 51 822 1029 0 812 815 827 0 +-.025 .0
13 0 0 0 1 .0016 1 0 0 50 815 1030 0 808 805 822 0 +-.0266 .012 0 -1 0 0 0 0 1 5
1 805 1157 0 785 799 815 0 +.025 .003 0 0 0 1 .0016 1 0 0 50 799 1158 0 775 794
 805 0 +.0234 .003 0 -1 0 0 0 0 1 51 794 1159 0 784 787 799 0 +.025 .002 0 0 0 1
 .0016 1 0 0 50 787 1160 0 780 777 794 0 +.0266 .003 0 1 0 0 0 0 -1 51 777 1287
 0 757 771 787 0 +.025 .012 0 0 0 1 .0016 1 0 0 50 771 1288 0 690 766 777 0 +.02
66 .012 0 1 0 0 0 0 -1 51 766 1289 0 756 759 771 0 +.025 .013 0 0 0 1 .0016 1 0
 0 50 759 1290 0 752 692 766 0 +.0234 .012 0 -1 0 0 0 0 1 51 692 1434 0 685 700
 759 0 +-.015 -.015 0 0 0 1 .0016 1 0 0 51 700 1472 0 689 707 692 0 +.015 -.015
 0 0 0 1 .0016 1 0 0 51 707 1510 0 698 714 700 0 +.01 -.0175 0 0 0 1 .0016 1 0 0
 51 714 1548 0 705 721 707 0 +-.01 -.0175 0 0 0 1 .0016 1 0 0 51 721 1586 0 712
 727 714 0 +.02 -.0175 0 0 0 1 .0016 1 0 0 51 727 1624 0 719 733 721 0 +-.02 -.0
175 0 0 0 1 .0016 1 0 0 51 733 1731 0 247 750 727 0 +0 -.015 0 0 0 1 .0016 1 0 0
 50 750 1732 0 259 745 733 0 +-.0016 -.015 0 -1 0 0 0 0 1 51 745 1733 0 738 740
 750 0 +-693889390390723e-32 -.0175 0 0 0 1 .0016 1 0 0 50 740 1734 0 732 0 745
 0 +.0016 -.015 0 1 1734723475976805e-31 0 -1734723475976805e-31 1 0 81 1 867 19
95 680 597 0 640 639 863 888 83 3 869 .796078431372549 .823529411764706 .9372549
01960784 81 1 640 2128 604 597 867 0 637 665 889 81 1 639 1994 680 635 0 637 890
 867 891 83 3 888 .796078431372549 .823529411764706 .937254901960784 81 1 890 19
93 680 632 0 634 892 639 893 83 3 891 .796078431372549 .823529411764706 .9372549
01960784 81 1 634 2126 604 632 890 0 631 637 894 81 1 892 1992 680 628 0 631 895
 890 896 83 3 893 .796078431372549 .823529411764706 .937254901960784 81 1 631 21
25 604 628 892 0 627 634 897 81 1 895 1991 680 625 0 627 667 892 898 83 3 896 .7
96078431372549 .823529411764706 .937254901960784 81 1 627 2124 604 625 895 0 617
 631 899 81 1 667 1990 680 262 0 665 900 895 901 83 3 898 .796078431372549 .8235
29411764706 .937254901960784 81 1 900 1989 680 565 0 668 682 667 902 83 3 901 .7
96078431372549 .823529411764706 .937254901960784 81 1 668 2130 604 565 900 0 665
 673 903 81 1 682 1988 680 660 0 673 675 900 904 83 3 902 .796078431372549 .8235
29411764706 .937254901960784 83 3 904 .796078431372549 .823529411764706 .9372549
01960784 82 1 903 1763115313 81 1 617 2123 604 613 681 0 612 627 905 82 1 899 17
77271075 81 1 681 1986 680 613 0 617 616 675 906 82 1 905 1770193187 81 1 616 19
85 680 15 0 612 0 681 907 83 3 906 .796078431372549 .823529411764706 .9372549019
60784 83 3 907 .796078431372549 .823529411764706 .937254901960784 82 1 897 17792
37155 82 1 894 1781203235 82 1 889 1825571111 83 3 862 .796078431372549 .8235294
11764706 .937254901960784 15 859 876 0 60 841 0 17 60 0 859 177 162 58 908 409 0
 447 +17 177 0 859 909 60 163 447 429 0 910 -17 162 0 859 60 909 160 172 439 0 4
38 +17 908 0 911 912 913 160 60 409 0 0 -17 447 0 854 433 910 58 177 429 0 913 +
15 854 888 0 433 831 0 17 433 0 854 914 447 167 913 431 0 915 +17 910 0 854 447
 914 163 422 419 0 418 -17 913 0 911 908 915 58 433 431 0 0 -15 911 817 0 913 56
5 562 17 915 0 911 913 912 167 436 434 0 0 -17 912 0 911 915 908 164 438 420 0 0
 -17 436 0 849 175 169 164 915 434 0 912 +15 849 884 0 436 840 0 17 175 0 849 63
 436 173 166 442 0 916 -17 169 0 849 436 63 167 914 444 0 433 +17 63 0 849 169 1
75 61 425 423 0 914 -17 914 0 854 910 433 61 169 444 0 422 -17 422 0 917 425 418
 61 910 419 0 0 +15 917 812 0 418 262 575 17 425 0 917 428 422 173 63 423 0 0 +1
7 418 0 917 422 428 163 909 416 0 0 +17 428 0 917 418 425 159 916 426 0 0 +17 90
9 0 859 162 177 159 418 416 0 428 -17 916 0 842 166 172 173 428 426 0 425 -15 84
2 880 0 438 836 0 17 166 0 842 438 916 164 175 442 0 436 +17 172 0 842 916 438 1
59 162 439 0 909 -17 438 0 842 172 166 160 912 420 0 908 +83 3 856 .796078431372
549 .823529411764706 .937254901960784 83 3 851 .796078431372549 .823529411764706
 .937254901960784 83 3 846 .796078431372549 .823529411764706 .937254901960784 83
 3 835 .796078431372549 .823529411764706 .937254901960784 15 832 1006 0 54 813 0
 17 54 0 832 195 180 52 918 377 0 415 +17 195 0 832 919 54 181 415 397 0 920 -17
 180 0 832 54 919 178 190 407 0 406 +17 918 0 921 922 923 178 54 377 0 0 -17 415
 0 826 401 920 52 195 397 0 923 +15 826 1018 0 401 803 0 17 401 0 826 924 415 18
5 923 399 0 925 +17 920 0 826 415 924 181 390 387 0 386 -17 923 0 921 918 925 52
 401 399 0 0 -15 921 947 0 923 565 911 17 925 0 921 923 922 185 404 402 0 0 -17
 922 0 921 925 918 182 406 388 0 0 -17 404 0 821 193 187 182 925 402 0 922 +15 8
21 1014 0 404 812 0 17 193 0 821 57 404 191 184 410 0 926 -17 187 0 821 404 57 1
85 924 412 0 401 +17 57 0 821 187 193 55 393 391 0 924 -17 924 0 826 920 401 55
 187 412 0 390 -17 390 0 927 393 386 55 920 387 0 0 +15 927 942 0 386 262 917 17
 393 0 927 396 390 191 57 391 0 0 +17 386 0 927 390 396 181 919 384 0 0 +17 396
 0 927 386 393 170 926 394 0 0 +17 919 0 832 180 195 170 386 384 0 396 -17 926 0
 814 184 190 191 396 394 0 393 -15 814 1010 0 406 808 0 17 184 0 814 406 926 182
 193 410 0 404 +17 190 0 814 926 406 170 180 407 0 919 -17 406 0 814 190 184 178
 922 388 0 918 +83 3 828 .796078431372549 .823529411764706 .937254901960784 83 3
 823 .796078431372549 .823529411764706 .937254901960784 83 3 818 .79607843137254
9 .823529411764706 .937254901960784 83 3 807 .796078431372549 .823529411764706 .
937254901960784 15 804 1136 0 48 785 0 17 48 0 804 213 198 46 928 345 0 383 +17
 213 0 804 929 48 199 383 365 0 930 -17 198 0 804 48 929 196 208 375 0 374 +17 9
28 0 931 932 933 196 48 345 0 0 -17 383 0 798 369 930 46 213 365 0 933 +15 798 1
148 0 369 775 0 17 369 0 798 934 383 203 933 367 0 935 +17 930 0 798 383 934 199
 358 355 0 354 -17 933 0 931 928 935 46 369 367 0 0 -15 931 1077 0 933 565 921 1
7 935 0 931 933 932 203 372 370 0 0 -17 932 0 931 935 928 200 374 356 0 0 -17 37
2 0 793 211 205 200 935 370 0 932 +15 793 1144 0 372 784 0 17 211 0 793 51 372 2
09 202 378 0 936 -17 205 0 793 372 51 203 934 380 0 369 +17 51 0 793 205 211 49
 361 359 0 934 -17 934 0 798 930 369 49 205 380 0 358 -17 358 0 937 361 354 49 9
30 355 0 0 +15 937 1072 0 354 262 927 17 361 0 937 364 358 209 51 359 0 0 +17 35
4 0 937 358 364 199 929 352 0 0 +17 364 0 937 354 361 188 936 362 0 0 +17 929 0
 804 198 213 188 354 352 0 364 -17 936 0 786 202 208 209 364 362 0 361 -15 786 1
140 0 374 780 0 17 202 0 786 374 936 200 211 378 0 372 +17 208 0 786 936 374 188
 198 375 0 929 -17 374 0 786 208 202 196 932 356 0 928 +83 3 800 .79607843137254
9 .823529411764706 .937254901960784 83 3 795 .796078431372549 .823529411764706 .
937254901960784 83 3 790 .796078431372549 .823529411764706 .937254901960784 83 3
 779 .796078431372549 .823529411764706 .937254901960784 15 776 1266 0 40 757 0 1
7 40 0 776 231 216 33 938 317 0 351 +17 231 0 776 939 40 217 351 333 0 940 -17 2
16 0 776 40 939 214 226 343 0 342 +17 938 0 941 942 943 214 40 317 0 0 -17 351 0
 770 337 940 33 231 333 0 943 +15 770 1278 0 337 690 0 17 337 0 770 944 351 221
 943 335 0 945 +17 940 0 770 351 944 217 326 323 0 322 -17 943 0 941 938 945 33
 337 335 0 0 -15 941 1207 0 943 565 931 17 945 0 941 943 942 221 340 338 0 0 -17
 942 0 941 945 938 218 342 324 0 0 -17 340 0 765 229 223 218 945 338 0 942 +15 7
65 1274 0 340 756 0 17 229 0 765 45 340 227 220 346 0 946 -17 223 0 765 340 45 2
21 944 348 0 337 +17 45 0 765 223 229 41 329 327 0 944 -17 944 0 770 940 337 41
 223 348 0 326 -17 326 0 947 329 322 41 940 323 0 0 +15 947 1202 0 322 262 937 1
7 329 0 947 332 326 227 45 327 0 0 +17 322 0 947 326 332 217 939 320 0 0 +17 332
 0 947 322 329 206 946 330 0 0 +17 939 0 776 216 231 206 322 320 0 332 -17 946 0
 758 220 226 227 332 330 0 329 -15 758 1270 0 342 752 0 17 220 0 758 342 946 218
 229 346 0 340 +17 226 0 758 946 342 206 216 343 0 939 -17 342 0 758 226 220 214
 942 324 0 938 +83 3 772 .796078431372549 .823529411764706 .937254901960784 83 3
 767 .796078431372549 .823529411764706 .937254901960784 83 3 762 .79607843137254
9 .823529411764706 .937254901960784 83 3 751 .796078431372549 .823529411764706 .
937254901960784 83 3 747 .796078431372549 .823529411764706 .937254901960784 15 3
4 1718 0 276 738 0 17 276 0 34 36 35 235 948 268 0 949 +17 36 0 34 32 276 242 23
7 281 0 264 -17 35 0 34 276 32 238 39 254 0 252 +17 948 0 670 253 949 238 276 26
8 0 0 -17 949 0 670 948 29 235 267 265 0 0 -15 670 1651 0 253 565 950 17 29 0 67
0 949 253 232 24 30 0 0 -17 267 0 739 241 237 232 949 265 0 29 +15 739 1714 0 26
7 732 0 17 241 0 739 264 267 224 28 278 0 244 -17 237 0 739 267 264 235 36 281 0
 276 +17 264 0 739 237 241 242 250 255 0 37 -17 37 0 260 250 257 242 32 38 0 0 +
17 28 0 26 24 244 232 241 278 0 267 +17 253 0 670 29 948 11 252 274 0 0 -17 252
 0 251 39 31 238 253 274 0 948 +15 950 1599 0 951 565 952 17 951 0 950 951 951 0
 289 280 0 0 -15 952 1561 0 953 565 954 17 953 0 952 953 953 0 295 287 0 0 -15 9
54 1523 0 955 565 956 17 955 0 954 955 955 0 301 293 0 0 -15 956 1485 0 957 565
 958 17 957 0 956 957 957 0 307 299 0 0 -15 958 1447 0 959 565 960 17 959 0 958
 959 959 0 313 305 0 0 -15 960 1409 0 961 565 941 17 961 0 960 961 961 0 319 311
 0 0 -17 319 0 962 319 319 0 961 311 0 0 +15 962 1425 0 319 685 0 17 313 0 963 3
13 313 0 959 305 0 0 +15 963 1463 0 313 689 0 17 307 0 964 307 307 0 957 299 0 0
 +15 964 1501 0 307 698 0 17 301 0 965 301 301 0 955 293 0 0 +15 965 1539 0 301
 705 0 17 295 0 966 295 295 0 953 287 0 0 +15 966 1577 0 295 712 0 17 289 0 967
 289 289 0 951 280 0 0 +15 967 1615 0 289 719 0 83 3 742 .796078431372549 .82352
9411764706 .937254901960784 83 3 735 .796078431372549 .823529411764706 .93725490
1960784 83 3 729 .796078431372549 .823529411764706 .937254901960784 15 726 1614
 0 968 719 967 17 968 0 726 968 968 0 286 284 0 0 -17 286 0 263 286 286 0 968 28
4 0 0 +15 263 1594 0 286 262 969 15 969 1556 0 292 262 970 17 292 0 969 292 292
 0 971 290 0 0 +15 970 1518 0 298 262 972 17 298 0 970 298 298 0 973 296 0 0 +15
 972 1480 0 304 262 974 17 304 0 972 304 304 0 975 302 0 0 +15 974 1442 0 310 26
2 976 17 310 0 974 310 310 0 977 308 0 0 +15 976 1404 0 316 262 947 17 316 0 976
 316 316 0 978 314 0 0 +17 978 0 691 978 978 0 316 314 0 0 -15 691 1424 0 978 68
5 962 17 977 0 699 977 977 0 310 308 0 0 -15 699 1462 0 977 689 963 17 975 0 706
 975 975 0 304 302 0 0 -15 706 1500 0 975 698 964 17 973 0 713 973 973 0 298 296
 0 0 -15 713 1538 0 973 705 965 17 971 0 720 971 971 0 292 290 0 0 -15 720 1576
 0 971 712 966 83 3 723 .796078431372549 .823529411764706 .937254901960784 83 3
 716 .796078431372549 .823529411764706 .937254901960784 83 3 709 .79607843137254
9 .823529411764706 .937254901960784 83 3 702 .796078431372549 .823529411764706 .
937254901960784 83 3 695 .796078431372549 .823529411764706 .937254901960784 82 1
 684 1769668899 83 3 683 .796078431372549 .823529411764706 .937254901960784 79 1
4 679 SWEntUnchanged82 1 669 1766588721 82 1 641 1783169315 82 1 618 1770455331
 82 1 607 1836515623 19 16 95 0 1 0 9 5 S74 4 CI16 index_map_offset0 0 1 dCCZ20
 14 3 0 0 876 2 746 0 0 0 0 0 0 0 0 0 0 0 0 0 0 0 0 0 80 2 12 979 980 8004 0 0 0
 0 3 5 0 0 0 FFTFFFFFFFFFFF2 3 83 1 13 1e3 79 16 980 SDL/TYSA_DENSITY1 0 
